<svg width="40" height="40" viewBox="0 0 40 40" fill="none" xmlns="http://www.w3.org/2000/svg">
<path d="M31.9126 30.5876C32.0047 30.6734 32.0785 30.7769 32.1298 30.8919C32.181 31.0069 32.2086 31.131 32.2108 31.2569C32.213 31.3828 32.1899 31.5078 32.1427 31.6245C32.0956 31.7413 32.0254 31.8473 31.9364 31.9364C31.8473 32.0254 31.7413 32.0956 31.6245 32.1427C31.5078 32.1899 31.3828 32.213 31.2569 32.2108C31.131 32.2086 31.0069 32.181 30.8919 32.1298C30.7769 32.0785 30.6734 32.0047 30.5876 31.9126L20.0001 21.3266L9.41255 31.9126C9.23483 32.0782 8.99978 32.1683 8.7569 32.164C8.51402 32.1597 8.28229 32.0613 8.11052 31.8896C7.93876 31.7178 7.84037 31.4861 7.83608 31.2432C7.8318 31.0003 7.92195 30.7653 8.08755 30.5876L18.6735 20.0001L8.08755 9.41255C7.92195 9.23483 7.8318 8.99978 7.83608 8.7569C7.84037 8.51402 7.93876 8.28229 8.11052 8.11052C8.28229 7.93876 8.51402 7.84037 8.7569 7.83608C8.99978 7.8318 9.23483 7.92195 9.41255 8.08755L20.0001 18.6735L30.5876 8.08755C30.7653 7.92195 31.0003 7.8318 31.2432 7.83608C31.4861 7.84037 31.7178 7.93876 31.8896 8.11052C32.0613 8.28229 32.1597 8.51402 32.164 8.7569C32.1683 8.99978 32.0782 9.23483 31.9126 9.41255L21.3266 20.0001L31.9126 30.5876Z" fill="#C4A478"/>
</svg>
