<svg width="24" height="24" viewBox="0 0 24 24" fill="none" xmlns="http://www.w3.org/2000/svg">
<g clip-path="url(#clip0_256_212)">
<path d="M11.6406 1.42773C5.60882 1.42773 0.719238 6.31731 0.719238 12.3491C0.719238 18.3809 5.60882 23.2704 11.6406 23.2704C17.6724 23.2704 22.5619 18.3809 22.5619 12.3491C22.5619 6.31731 17.6724 1.42773 11.6406 1.42773ZM15.8408 13.7495C15.8408 13.7495 16.8066 14.7029 17.0444 15.1454C17.0512 15.1545 17.0546 15.1636 17.0569 15.1682C17.1536 15.3308 17.1763 15.4571 17.1286 15.5515C17.0489 15.7085 16.7759 15.7859 16.6826 15.7927H14.9761C14.8578 15.7927 14.6098 15.762 14.3095 15.555C14.0786 15.3934 13.851 15.1283 13.6292 14.8701C13.2981 14.4856 13.0114 14.1534 12.7225 14.1534C12.6858 14.1533 12.6493 14.1591 12.6144 14.1704C12.396 14.241 12.1161 14.5527 12.1161 15.3832C12.1161 15.6426 11.9113 15.7916 11.7669 15.7916H10.9853C10.7191 15.7916 9.33231 15.6983 8.10366 14.4025C6.5997 12.8155 5.24591 9.6324 5.23453 9.60282C5.14921 9.39691 5.32554 9.28655 5.51781 9.28655H7.24133C7.47113 9.28655 7.54622 9.42648 7.59855 9.55049C7.65998 9.69497 7.88524 10.2695 8.25497 10.9157C8.85451 11.9691 9.22196 12.3969 9.51661 12.3969C9.57186 12.3962 9.62613 12.3822 9.67474 12.3559C10.0593 12.142 9.9876 10.7712 9.97053 10.4868C9.97053 10.4333 9.96939 9.87358 9.77258 9.60509C9.63151 9.41056 9.39147 9.33661 9.24585 9.30931C9.30479 9.22798 9.38244 9.16203 9.47224 9.11705C9.73618 8.98508 10.2117 8.96574 10.6838 8.96574H10.9466C11.4586 8.97257 11.5905 9.00556 11.776 9.0522C12.1514 9.14207 12.1594 9.38439 12.1264 10.2137C12.1161 10.4492 12.1059 10.7154 12.1059 11.0294C12.1059 11.0977 12.1025 11.1705 12.1025 11.2478C12.0911 11.6699 12.0774 12.1489 12.3755 12.3457C12.4144 12.37 12.4593 12.3831 12.5052 12.3832C12.6087 12.3832 12.9204 12.3832 13.7646 10.935C14.0249 10.4689 14.2511 9.98447 14.4415 9.48564C14.4585 9.45606 14.5086 9.36505 14.5677 9.32979C14.6114 9.30753 14.6598 9.29621 14.7088 9.29679H16.7349C16.9556 9.29679 17.1069 9.32978 17.1354 9.41511C17.1854 9.55049 17.1263 9.96345 16.2014 11.216L15.7884 11.7609C14.95 12.8599 14.95 12.9156 15.8408 13.7495Z" fill="#C4A478"/>
</g>
<defs>
<clipPath id="clip0_256_212">
<rect width="22.7528" height="22.7528" fill="white" transform="translate(0.26416 0.972656)"/>
</clipPath>
</defs>
</svg>
