<svg width="26" height="26" viewBox="0 0 26 26" fill="none" xmlns="http://www.w3.org/2000/svg">
<g clip-path="url(#clip0_256_208)">
<path fill-rule="evenodd" clip-rule="evenodd" d="M12.6404 2.68652C6.82263 2.68652 2.10669 7.40246 2.10669 13.2202C2.10669 15.2111 2.65971 17.0756 3.62144 18.6641L2.68183 21.8579C2.62788 22.0412 2.62433 22.2358 2.67155 22.421C2.71878 22.6062 2.81503 22.7753 2.95019 22.9104C3.08535 23.0456 3.25442 23.1419 3.43964 23.1891C3.62486 23.2363 3.81938 23.2327 4.00276 23.1788L7.19658 22.2392C8.83844 23.2326 10.7214 23.7565 12.6404 23.7539C18.4582 23.7539 23.1741 19.038 23.1741 13.2202C23.1741 7.40246 18.4582 2.68652 12.6404 2.68652ZM10.2577 15.604C12.3886 17.7339 14.4227 18.0152 15.1411 18.0415C16.2334 18.0815 17.2973 17.2473 17.7113 16.2792C17.7636 16.1588 17.7826 16.0265 17.7663 15.8963C17.7499 15.766 17.699 15.6425 17.6186 15.5387C17.0414 14.8013 16.2608 14.2715 15.4982 13.7448C15.339 13.6347 15.1433 13.5905 14.9522 13.6216C14.7611 13.6526 14.5895 13.7564 14.4733 13.9112L13.8412 14.8751C13.808 14.9269 13.7562 14.964 13.6965 14.9789C13.6368 14.9938 13.5736 14.9853 13.52 14.9551C13.0912 14.7097 12.4666 14.2926 12.0179 13.8438C11.5691 13.3951 11.1773 12.7989 10.9571 12.3975C10.9298 12.3466 10.9219 12.2874 10.9349 12.231C10.9479 12.1747 10.9808 12.1249 11.0277 12.091L12.001 11.3684C12.1399 11.2476 12.2295 11.08 12.2529 10.8974C12.2762 10.7148 12.2315 10.53 12.1274 10.3782C11.6555 9.68723 11.1056 8.80871 10.3082 8.2262C10.2053 8.15163 10.0848 8.10513 9.95844 8.09127C9.83211 8.07742 9.70435 8.09669 9.58773 8.1472C8.61863 8.56223 7.78014 9.62613 7.82017 10.7206C7.84651 11.439 8.12776 13.473 10.2577 15.604Z" fill="#C4A478"/>
</g>
<defs>
<clipPath id="clip0_256_208">
<rect width="25.2809" height="25.2809" fill="white" transform="translate(0 0.579102)"/>
</clipPath>
</defs>
</svg>
