<svg width="37" height="37" fill="none" xmlns="http://www.w3.org/2000/svg"><path fill-rule="evenodd" clip-rule="evenodd" d="M23.986 22.68c-.166 0-.285.047-.358.146-.073.093-.108.253-.108.476v.534h.921v-.534c0-.223-.037-.383-.11-.476-.07-.099-.187-.145-.345-.145zm-3.593-.018a.4.4 0 01.325.137c.073.092.11.23.11.408v2.736c0 .171-.031.291-.091.365-.06.076-.153.113-.28.113a.582.582 0 01-.252-.057.894.894 0 01-.248-.187v-3.302a.777.777 0 01.215-.162.496.496 0 01.221-.05zm3.128 2v.998c0 .28.034.473.101.581.07.108.187.16.354.16.172 0 .293-.045.361-.136.069-.091.105-.292.105-.605v-.241h1.072v.272c0 .544-.13.953-.393 1.229-.26.274-.65.41-1.168.41-.467 0-.835-.144-1.103-.436-.268-.29-.404-.691-.404-1.203v-2.38c0-.458.149-.834.443-1.123.294-.29.674-.434 1.141-.434.477 0 .844.134 1.1.402.257.268.384.653.384 1.156v1.351H23.52v-.002zm-1.866 2.29c-.162.2-.4.3-.709.3-.204 0-.385-.038-.544-.115a1.336 1.336 0 01-.445-.36v.407h-1.053v-7.183h1.053v2.314a1.6 1.6 0 01.446-.369 1.01 1.01 0 01.48-.126c.332 0 .583.113.756.338.176.226.262.557.262.99v2.942c0 .375-.082.662-.246.862zm-4.576.232v-.582a2.22 2.22 0 01-.602.49c-.209.115-.41.169-.606.169-.242 0-.42-.077-.545-.236-.12-.16-.182-.393-.182-.71v-4.431h1.041v4.065c0 .126.022.216.064.272.046.057.117.085.214.085.076 0 .174-.037.291-.113.118-.074.224-.169.324-.283v-4.026h1.041v5.3h-1.04zm-3.607-6.14v6.14h-1.175v-6.14h-1.214v-1.043h3.603v1.044h-1.214zm4.823-3.356s7.211.011 8.068.866c.859.857.868 5.083.868 5.108 0 0-.007 4.248-.868 5.108-.857.853-8.068.872-8.068.872s-7.212-.019-8.07-.873c-.858-.857-.86-5.076-.86-5.108 0-.025.002-4.25.86-5.108.859-.854 8.07-.865 8.07-.865zm5.687-2.222h-1.174v-.645c-.214.237-.44.42-.675.543-.234.124-.46.186-.68.186-.274 0-.476-.087-.613-.261-.137-.174-.206-.434-.206-.783V9.627h1.171v4.476c0 .138.027.239.076.3.048.062.129.093.238.093.085 0 .195-.041.327-.123a1.54 1.54 0 00.361-.314V9.627h1.174v5.839zm-6.372-.996c.083.088.202.131.358.131a.53.53 0 00.378-.133.49.49 0 00.14-.369v-3.18a.381.381 0 00-.143-.31.573.573 0 00-.375-.117.513.513 0 00-.35.117.397.397 0 00-.134.31v3.18c0 .16.043.283.126.371zm-.86-4.588c.316-.268.742-.402 1.273-.402.485 0 .884.141 1.195.424.309.283.464.647.464 1.092v3.015c0 .5-.152.89-.455 1.175-.306.284-.724.427-1.257.427-.512 0-.924-.147-1.232-.44-.307-.294-.461-.688-.461-1.184v-3.026c0-.453.157-.813.474-1.08zm-3.669-2.33h-1.33l1.572 4.778v3.136h1.321v-3.284l1.537-4.63h-1.343l-.816 3.163h-.083l-.858-3.163zm5.217 28.657c-9.891 0-17.91-8.02-17.91-17.91 0-9.892 8.019-17.91 17.91-17.91 9.892 0 17.91 8.018 17.91 17.91 0 9.89-8.018 17.91-17.91 17.91z" fill="#1F394B"/></svg>