<svg width="23" height="23" viewBox="0 0 23 23" fill="none" xmlns="http://www.w3.org/2000/svg">
<g clip-path="url(#clip0_256_206)">
<path d="M11.5898 0.725616C8.71552 0.739029 5.96351 1.89026 3.9358 3.92748C1.90809 5.96469 0.769744 8.72206 0.769775 11.5964C0.769775 14.4795 1.91509 17.2445 3.95375 19.2832C5.99242 21.3219 8.75745 22.4672 11.6406 22.4672C14.5237 22.4672 17.2887 21.3219 19.3274 19.2832C21.366 17.2445 22.5113 14.4795 22.5113 11.5964C22.5113 8.71329 21.366 5.94826 19.3274 3.9096C17.2887 1.87093 14.5237 0.725616 11.6406 0.725616C11.6237 0.725576 11.6067 0.725576 11.5898 0.725616ZM16.0849 7.26983C16.1755 7.26802 16.3757 7.29066 16.5061 7.39666C16.5928 7.47193 16.6481 7.577 16.6611 7.69107C16.6755 7.77532 16.6937 7.96828 16.6792 8.11866C16.5161 9.83805 15.8077 14.0088 15.4471 15.9338C15.295 16.7492 14.9951 17.0218 14.7043 17.0481C14.0738 17.107 13.5946 16.6314 12.9831 16.231C12.0265 15.6032 11.4857 15.2128 10.5571 14.6004C9.48362 13.8938 10.1793 13.5042 10.7908 12.8701C10.9512 12.7034 13.7323 10.1732 13.7866 9.94404C13.793 9.91505 13.7993 9.80816 13.7359 9.75199C13.6725 9.69583 13.5783 9.71485 13.5103 9.73025C13.4143 9.75199 11.8861 10.763 8.92558 12.7605C8.49075 13.0594 8.0985 13.2044 7.7461 13.1953C7.35838 13.1881 6.61192 12.977 6.0566 12.7967C5.37537 12.5748 4.83454 12.4579 4.88165 12.082C4.90611 11.8863 5.17607 11.6861 5.69062 11.4814C8.85945 10.1008 10.972 9.19033 12.0301 8.75097C15.0486 7.4954 15.6763 7.27708 16.0849 7.26983Z" fill="#C4A478"/>
</g>
<defs>
<clipPath id="clip0_256_206">
<rect width="21.7416" height="21.7416" fill="white" transform="translate(0.769775 0.725586)"/>
</clipPath>
</defs>
</svg>
