<svg width="19" height="20" fill="none" xmlns="http://www.w3.org/2000/svg"><path d="M9.5 0a5.214 5.214 0 00-5.208 5.208A5.214 5.214 0 009.5 10.417a5.214 5.214 0 005.208-5.209A5.214 5.214 0 009.5 0zm0 8.333a3.129 3.129 0 01-3.125-3.125A3.129 3.129 0 019.5 2.083a3.129 3.129 0 013.125 3.125A3.129 3.129 0 019.5 8.333zm9.375 11.459V18.75c0-4.02-3.272-7.292-7.292-7.292H7.417c-4.021 0-7.292 3.272-7.292 7.292v1.042h2.083V18.75a5.214 5.214 0 015.209-5.208h4.166a5.214 5.214 0 015.209 5.208v1.042h2.083z" fill="#fff"/></svg>