<svg width="37" height="37" fill="none" xmlns="http://www.w3.org/2000/svg"><path fill-rule="evenodd" clip-rule="evenodd" d="M24.236 13.867v-.003c.3 0 .6.006.9-.001a.73.73 0 00.7-.727v-1.725a.735.735 0 00-.737-.741h-1.722c-.41 0-.738.33-.738.742 0 .57-.002 1.14.002 1.71 0 .086.017.174.044.255.103.303.381.49.722.491h.83zm-5.535.74a3.69 3.69 0 00-.084 7.38 3.699 3.699 0 003.773-3.608 3.694 3.694 0 00-3.689-3.772zm-7.136 1.97v8.135c0 .388.335.721.723.721h12.824a.736.736 0 00.725-.723v-8.133h-1.738a5.7 5.7 0 01.224 2.397 5.567 5.567 0 01-.786 2.27 5.66 5.66 0 01-7.597 1.998 5.533 5.533 0 01-2.2-2.217c-.77-1.417-.892-2.904-.44-4.448h-1.735zm14.423 10.829c.095-.016.19-.03.284-.05a1.972 1.972 0 001.497-1.526c.015-.082.027-.163.04-.244V11.01c-.013-.08-.024-.16-.039-.24a1.97 1.97 0 00-1.66-1.562c-.034-.004-.067-.012-.101-.018H11.395c-.088.016-.177.028-.264.048a1.964 1.964 0 00-1.52 1.651c-.004.034-.011.068-.016.102v14.614c.016.092.03.186.05.278.179.789.852 1.4 1.654 1.504l.117.018h14.572zm-7.287 8.803c-9.89 0-17.91-8.02-17.91-17.91 0-9.892 8.02-17.91 17.91-17.91 9.892 0 17.91 8.018 17.91 17.91 0 9.89-8.018 17.91-17.91 17.91z" fill="#1F394B"/></svg>