<svg width="37" height="37" fill="none" xmlns="http://www.w3.org/2000/svg"><path fill-rule="evenodd" clip-rule="evenodd" d="M12.802 13.69v3.332h1.666v4.997c.131 4.086 2.377 4.937 4.996 5.219 1.523-.077 3.388-.64 4.33-1.389v-2.831c-1.212 1.178-4.468 2.334-5.052-1l-.056-5.051 5.108.055v-3.386h-5.108l.112-4.275-2.054.055c.141 3.646-1.797 4.134-3.942 4.275zm5.496 22.519c-9.891 0-17.91-8.02-17.91-17.91 0-9.892 8.019-17.91 17.91-17.91 9.892 0 17.91 8.018 17.91 17.91 0 9.89-8.018 17.91-17.91 17.91z" fill="#1F394B"/></svg>