<svg width="27" height="26" viewBox="0 0 27 26" fill="none" xmlns="http://www.w3.org/2000/svg">
<path d="M25.1445 12.0554C25.3947 12.0566 25.6343 12.1565 25.8112 12.3334C25.9881 12.5103 26.088 12.7499 26.0892 13C26.085 13.2493 25.9841 13.4871 25.8079 13.6634C25.6316 13.8396 25.3938 13.9405 25.1445 13.9447L14.1485 13.9364L14.1568 24.9325C14.1526 25.1817 14.0517 25.4195 13.8754 25.5958C13.6992 25.7721 13.4613 25.8729 13.2121 25.8771C12.9619 25.8759 12.7224 25.776 12.5455 25.5991C12.3686 25.4222 12.2687 25.1826 12.2675 24.9325L12.2757 13.9364L1.27968 13.9447C1.04516 13.9216 0.827626 13.8121 0.669374 13.6375C0.511123 13.4629 0.423472 13.2357 0.423472 13C0.423472 12.7644 0.511123 12.5372 0.669374 12.3626C0.827626 12.188 1.04516 12.0785 1.27968 12.0554L12.2757 12.0637L12.2675 1.06762C12.2905 0.833105 12.4 0.615568 12.5746 0.457316C12.7492 0.299063 12.9765 0.211412 13.2121 0.211412C13.4477 0.211413 13.675 0.299063 13.8496 0.457315C14.0242 0.615566 14.1337 0.833106 14.1568 1.06762L14.1485 12.0637L25.1445 12.0554Z" fill="#9DD0C9"/>
</svg>
