<svg width="20" height="20" viewBox="0 0 20 20" fill="none" xmlns="http://www.w3.org/2000/svg">
<path d="M19.3369 17.7614C19.5129 17.9391 19.6117 18.1792 19.6117 18.4293C19.6117 18.6795 19.5129 18.9196 19.3369 19.0973C19.1577 19.2706 18.9182 19.3674 18.6689 19.3674C18.4196 19.3674 18.1801 19.2706 18.0009 19.0973L10.2314 11.3161L2.46188 19.0973C2.28268 19.2706 2.04317 19.3674 1.79391 19.3674C1.54464 19.3674 1.30513 19.2706 1.12594 19.0973C0.949895 18.9196 0.851135 18.6795 0.851135 18.4293C0.851135 18.1792 0.949895 17.9391 1.12594 17.7614L8.90719 9.99185L1.12594 2.22232C0.976443 2.04016 0.900045 1.80892 0.911604 1.57355C0.923164 1.33819 1.02185 1.11555 1.18848 0.948919C1.35511 0.782293 1.57776 0.683601 1.81312 0.672042C2.04848 0.660483 2.27973 0.736881 2.46188 0.886378L10.2314 8.66763L18.0009 0.886378C18.1831 0.736881 18.4143 0.660483 18.6497 0.672042C18.8851 0.683601 19.1077 0.782293 19.2743 0.948919C19.441 1.11555 19.5397 1.33819 19.5512 1.57355C19.5628 1.80892 19.4864 2.04016 19.3369 2.22232L11.5556 9.99185L19.3369 17.7614Z" fill="#9DD0C9"/>
</svg>
