<svg width="291" height="127" viewBox="0 0 291 127" fill="none" xmlns="http://www.w3.org/2000/svg">
<path d="M26.717 54.7356C26.717 53.2304 26.1526 52.0074 25.0237 51.0667C23.9418 50.1259 22.5542 49.2793 20.8609 48.5267C19.2146 47.727 17.4037 46.9274 15.4281 46.1278C13.4996 45.2811 11.6887 44.2698 9.99535 43.0939C8.34905 41.8709 6.96146 40.3657 5.83257 38.5783C4.75072 36.7909 4.20979 34.5096 4.20979 31.7344C4.20979 29.3356 4.60961 27.2659 5.40924 25.5255C6.20887 23.7381 7.33776 22.2565 8.7959 21.0805C10.3011 19.9046 12.065 19.0344 14.0876 18.47C16.1102 17.9055 18.3679 17.6233 20.8609 17.6233C23.7302 17.6233 26.4348 17.882 28.9748 18.3994C31.5148 18.8698 33.6079 19.5754 35.2542 20.5161L32.2204 28.63C31.1855 27.9715 29.6333 27.3835 27.5637 26.8661C25.4941 26.3017 23.2598 26.0194 20.8609 26.0194C18.6031 26.0194 16.8628 26.4663 15.6398 27.36C14.4639 28.2537 13.8759 29.4531 13.8759 30.9583C13.8759 32.3694 14.4168 33.5454 15.4987 34.4861C16.6276 35.4268 18.0152 36.297 19.6615 37.0967C21.3548 37.8963 23.1657 38.7194 25.0942 39.5661C27.0698 40.4128 28.8807 41.4476 30.527 42.6706C32.2204 43.8465 33.6079 45.3281 34.6898 47.1156C35.8187 48.8559 36.3831 51.0431 36.3831 53.6772C36.3831 56.3113 35.9363 58.5926 35.0426 60.5211C34.1959 62.4026 32.9729 63.9783 31.3737 65.2483C29.8215 66.5183 27.9165 67.4591 25.6587 68.0706C23.4479 68.682 21.002 68.9878 18.3209 68.9878C14.7931 68.9878 11.6887 68.6585 9.00757 68C6.32646 67.3415 4.3509 66.683 3.0809 66.0244L6.18535 57.7694C6.70276 58.0517 7.36127 58.3574 8.1609 58.6867C9.00757 59.0159 9.94831 59.3217 10.9831 59.6039C12.0179 59.8861 13.0998 60.1213 14.2287 60.3094C15.4046 60.4976 16.6041 60.5917 17.827 60.5917C20.6963 60.5917 22.8835 60.1213 24.3887 59.1806C25.9409 58.1928 26.717 56.7111 26.717 54.7356Z" fill="#0B6065"/>
<path d="M95.2458 42.3883L96.3041 32.5811H95.8808L92.8469 40.4833L82.3341 58.8983H79.2297L68.1524 40.4128L65.048 32.5811H64.6952L66.1063 42.3178V68H56.9341V18.6111H65.7535L78.9474 41.1889L81.2758 46.8333H81.558L83.6747 41.0478L96.163 18.6111H104.912V68H95.2458V42.3883Z" fill="#0B653A"/>
<path d="M151.818 57.0639H136.648L132.909 68H123.243L141.023 18.2583H148.149L165.929 68H155.769L151.818 57.0639ZM139.118 49.3028H149.701L146.032 38.2961L144.55 30.535H144.198L142.716 38.3667L139.118 49.3028Z" fill="#1BA943"/>
<path d="M184.306 19.105C185.388 18.9168 186.54 18.7522 187.763 18.6111C189.033 18.423 190.28 18.2818 191.503 18.1878C192.773 18.0937 193.996 18.0231 195.172 17.9761C196.348 17.9291 197.43 17.9055 198.417 17.9055C200.722 17.9055 202.98 18.1172 205.191 18.5405C207.448 18.9639 209.447 19.693 211.188 20.7278C212.975 21.7626 214.386 23.1972 215.421 25.0317C216.503 26.8191 217.044 29.0768 217.044 31.805C217.044 35.8502 216.103 39.1428 214.222 41.6828C212.34 44.2228 209.824 45.9867 206.672 46.9744L210.13 49.1617L221.418 68H210.271L199.052 48.6678L193.972 47.7506V68H184.306V19.105ZM199.123 26.5133C198.135 26.5133 197.147 26.5368 196.16 26.5839C195.219 26.6309 194.49 26.725 193.972 26.8661V41.1889H198.065C200.746 41.1889 202.886 40.5774 204.485 39.3544C206.084 38.1315 206.884 36.1089 206.884 33.2867C206.884 31.17 206.225 29.5237 204.908 28.3478C203.591 27.1248 201.663 26.5133 199.123 26.5133Z" fill="#4CB527"/>
<path d="M275.927 27.2189H261.534V68H251.868V27.2189H237.404V18.6111H275.927V27.2189Z" fill="#F7C929"/>
<path d="M15.8044 111.963C15.8044 114.356 15.1569 116.112 13.8618 117.231C12.5667 118.372 10.7558 118.943 8.42904 118.943C6.84859 118.943 5.59741 118.833 4.67548 118.614C3.77551 118.394 3.09504 118.164 2.63407 117.922L3.52307 114.531C4.02794 114.729 4.60963 114.926 5.26815 115.124C5.94862 115.321 6.78274 115.42 7.77052 115.42C9.26316 115.42 10.2729 115.091 10.7997 114.432C11.3485 113.796 11.6229 112.896 11.6229 111.732V110.679H11.4911C10.7229 111.71 9.36194 112.226 7.40833 112.226C5.27912 112.226 3.6877 111.568 2.63407 110.251C1.6024 108.934 1.08656 106.87 1.08656 104.061C1.08656 101.119 1.78898 98.8913 3.19382 97.3767C4.59866 95.8621 6.64006 95.1048 9.31804 95.1048C10.7229 95.1048 11.9741 95.2036 13.0716 95.4011C14.1911 95.5987 15.102 95.8292 15.8044 96.0926V111.963ZM8.56074 108.802C9.39487 108.802 10.0314 108.615 10.4704 108.242C10.9314 107.869 11.2826 107.309 11.5241 106.563V99.1547C10.8436 98.8693 9.99851 98.7267 8.98878 98.7267C7.89125 98.7267 7.03517 99.1437 6.42056 99.9779C5.80594 100.79 5.49863 102.096 5.49863 103.896C5.49863 105.498 5.76204 106.717 6.28885 107.551C6.81567 108.385 7.57296 108.802 8.56074 108.802ZM28.617 99.5169C27.9365 99.2754 27.3219 99.1547 26.7732 99.1547C26.0049 99.1547 25.3573 99.3632 24.8305 99.7803C24.3257 100.175 23.9854 100.691 23.8098 101.328V111.963H19.5294V95.4999H22.855L23.3489 97.673H23.4806C23.8537 96.8609 24.3586 96.2353 24.9952 95.7963C25.6317 95.3572 26.378 95.1377 27.2341 95.1377C27.8048 95.1377 28.4524 95.2585 29.1767 95.4999L28.617 99.5169ZM30.2826 103.731C30.2826 100.944 30.9631 98.8035 32.324 97.3109C33.6849 95.7963 35.5946 95.039 38.0531 95.039C39.3702 95.039 40.5116 95.2475 41.4774 95.6646C42.4432 96.0816 43.2444 96.6743 43.881 97.4426C44.5176 98.1889 44.9895 99.0998 45.2968 100.175C45.6261 101.251 45.7907 102.436 45.7907 103.731C45.7907 106.519 45.1102 108.67 43.7493 110.185C42.4103 111.678 40.5116 112.424 38.0531 112.424C36.7361 112.424 35.5946 112.215 34.6288 111.798C33.663 111.381 32.8508 110.8 32.1923 110.053C31.5557 109.285 31.0728 108.363 30.7436 107.287C30.4363 106.212 30.2826 105.026 30.2826 103.731ZM34.6947 103.731C34.6947 104.456 34.7605 105.125 34.8922 105.74C35.0239 106.355 35.2215 106.892 35.4849 107.353C35.7483 107.814 36.0885 108.176 36.5056 108.44C36.9446 108.681 37.4605 108.802 38.0531 108.802C39.1726 108.802 40.0067 108.396 40.5555 107.584C41.1043 106.772 41.3786 105.487 41.3786 103.731C41.3786 102.217 41.1262 100.999 40.6213 100.077C40.1165 99.1328 39.2604 98.6608 38.0531 98.6608C36.9995 98.6608 36.1763 99.0559 35.5837 99.8461C34.991 100.636 34.6947 101.931 34.6947 103.731ZM52.8734 95.4999V104.851C52.8734 106.19 53.027 107.156 53.3343 107.748C53.6636 108.341 54.2892 108.637 55.2111 108.637C56.0233 108.637 56.6928 108.396 57.2196 107.913C57.7684 107.43 58.1745 106.837 58.4379 106.135V95.4999H62.7182V106.958C62.7182 107.858 62.7621 108.747 62.8499 109.625C62.9377 110.481 63.0694 111.26 63.2451 111.963H60.0183L59.261 109.526H59.1293C58.6244 110.36 57.922 111.052 57.0221 111.601C56.1221 112.149 55.0575 112.424 53.8282 112.424C52.9941 112.424 52.2478 112.314 51.5893 112.095C50.9308 111.875 50.382 111.513 49.943 111.008C49.504 110.503 49.1637 109.823 48.9223 108.967C48.7028 108.111 48.593 107.035 48.593 105.74V95.4999H52.8734ZM66.4746 95.4999H69.6026L70.0965 97.4755H70.2282C70.7989 96.6414 71.4684 96.0267 72.2367 95.6316C73.0269 95.2365 73.9817 95.039 75.1012 95.039C77.1646 95.039 78.7121 95.6975 79.7438 97.0145C80.7755 98.3096 81.2913 100.406 81.2913 103.303C81.2913 104.708 81.1267 105.981 80.7974 107.123C80.4681 108.242 79.9743 109.197 79.3157 109.987C78.6792 110.778 77.8889 111.381 76.9451 111.798C76.0231 112.215 74.9585 112.424 73.7513 112.424C73.0708 112.424 72.511 112.369 72.072 112.259C71.633 112.171 71.194 112.018 70.755 111.798V118.548H66.4746V95.4999ZM73.8171 98.6608C72.983 98.6608 72.3245 98.8693 71.8416 99.2864C71.3806 99.7035 71.0184 100.329 70.755 101.163V108.012C71.0623 108.253 71.3916 108.451 71.7428 108.604C72.1159 108.736 72.5988 108.802 73.1915 108.802C74.4207 108.802 75.3427 108.374 75.9573 107.518C76.5719 106.64 76.8792 105.202 76.8792 103.205C76.8792 101.756 76.6378 100.636 76.1548 99.8461C75.6719 99.0559 74.8927 98.6608 73.8171 98.6608ZM91.7936 103.731C91.7936 100.944 92.4741 98.8035 93.835 97.3109C95.196 95.7963 97.1057 95.039 99.5642 95.039C100.881 95.039 102.023 95.2475 102.988 95.6646C103.954 96.0816 104.755 96.6743 105.392 97.4426C106.029 98.1889 106.501 99.0998 106.808 100.175C107.137 101.251 107.302 102.436 107.302 103.731C107.302 106.519 106.621 108.67 105.26 110.185C103.921 111.678 102.023 112.424 99.5642 112.424C98.2471 112.424 97.1057 112.215 96.1399 111.798C95.174 111.381 94.3619 110.8 93.7033 110.053C93.0668 109.285 92.5839 108.363 92.2546 107.287C91.9473 106.212 91.7936 105.026 91.7936 103.731ZM96.2057 103.731C96.2057 104.456 96.2716 105.125 96.4033 105.74C96.535 106.355 96.7325 106.892 96.9959 107.353C97.2593 107.814 97.5996 108.176 98.0166 108.44C98.4556 108.681 98.9715 108.802 99.5642 108.802C100.684 108.802 101.518 108.396 102.067 107.584C102.615 106.772 102.89 105.487 102.89 103.731C102.89 102.217 102.637 100.999 102.132 100.077C101.628 99.1328 100.771 98.6608 99.5642 98.6608C98.5105 98.6608 97.6874 99.0559 97.0947 99.8461C96.502 100.636 96.2057 101.931 96.2057 103.731ZM108.368 95.4999H110.64V94.578C110.64 92.4927 111.079 90.9891 111.957 90.0671C112.835 89.1233 114.108 88.6513 115.777 88.6513C117.533 88.6513 118.992 88.8599 120.156 89.2769L119.333 92.7012C118.828 92.5256 118.378 92.4159 117.983 92.372C117.609 92.3061 117.214 92.2732 116.797 92.2732C116.358 92.2732 116.007 92.339 115.744 92.4707C115.502 92.6024 115.316 92.811 115.184 93.0963C115.074 93.3597 114.997 93.7 114.953 94.117C114.931 94.5121 114.921 94.9731 114.921 95.4999H118.542V99.1218H114.921V111.963H110.64V99.1218H108.368V95.4999ZM140.445 110.942C139.787 111.425 138.986 111.787 138.042 112.029C137.12 112.292 136.165 112.424 135.177 112.424C133.86 112.424 132.741 112.215 131.819 111.798C130.919 111.381 130.183 110.8 129.613 110.053C129.042 109.285 128.625 108.363 128.361 107.287C128.12 106.212 127.999 105.026 127.999 103.731C127.999 100.944 128.625 98.8035 129.876 97.3109C131.127 95.7963 132.949 95.039 135.342 95.039C136.549 95.039 137.515 95.1377 138.239 95.3353C138.986 95.5329 139.655 95.7853 140.248 96.0926L139.227 99.5827C138.722 99.3413 138.217 99.1547 137.712 99.023C137.23 98.8913 136.67 98.8254 136.033 98.8254C134.848 98.8254 133.948 99.2206 133.333 100.011C132.719 100.779 132.411 102.019 132.411 103.731C132.411 104.434 132.488 105.081 132.642 105.674C132.796 106.267 133.026 106.783 133.333 107.222C133.641 107.661 134.036 108.012 134.519 108.275C135.023 108.517 135.605 108.637 136.264 108.637C136.988 108.637 137.603 108.55 138.108 108.374C138.612 108.176 139.062 107.946 139.458 107.683L140.445 110.942ZM141.697 103.731C141.697 100.944 142.377 98.8035 143.738 97.3109C145.099 95.7963 147.009 95.039 149.468 95.039C150.785 95.039 151.926 95.2475 152.892 95.6646C153.858 96.0816 154.659 96.6743 155.295 97.4426C155.932 98.1889 156.404 99.0998 156.711 100.175C157.04 101.251 157.205 102.436 157.205 103.731C157.205 106.519 156.525 108.67 155.164 110.185C153.825 111.678 151.926 112.424 149.468 112.424C148.15 112.424 147.009 112.215 146.043 111.798C145.077 111.381 144.265 110.8 143.607 110.053C142.97 109.285 142.487 108.363 142.158 107.287C141.851 106.212 141.697 105.026 141.697 103.731ZM146.109 103.731C146.109 104.456 146.175 105.125 146.307 105.74C146.438 106.355 146.636 106.892 146.899 107.353C147.163 107.814 147.503 108.176 147.92 108.44C148.359 108.681 148.875 108.802 149.468 108.802C150.587 108.802 151.421 108.396 151.97 107.584C152.519 106.772 152.793 105.487 152.793 103.731C152.793 102.217 152.541 100.999 152.036 100.077C151.531 99.1328 150.675 98.6608 149.468 98.6608C148.414 98.6608 147.591 99.0559 146.998 99.8461C146.405 100.636 146.109 101.931 146.109 103.731ZM169.523 111.963V103.007C169.523 101.492 169.38 100.417 169.095 99.7803C168.81 99.1437 168.217 98.8254 167.317 98.8254C166.571 98.8254 165.967 99.034 165.506 99.451C165.045 99.8461 164.694 100.362 164.452 100.999V111.963H160.172V95.4999H163.498L163.991 97.673H164.123C164.628 96.9706 165.265 96.356 166.033 95.8292C166.823 95.3024 167.833 95.039 169.062 95.039C170.116 95.039 170.972 95.2585 171.63 95.6975C172.311 96.1145 172.838 96.8279 173.211 97.8377C173.716 96.9816 174.363 96.3011 175.153 95.7963C175.944 95.2914 176.898 95.039 178.018 95.039C178.94 95.039 179.719 95.1487 180.356 95.3682C181.014 95.5877 181.541 95.9719 181.936 96.5206C182.353 97.0474 182.66 97.7608 182.858 98.6608C183.056 99.5608 183.154 100.702 183.154 102.085V111.963H178.874V102.711C178.874 101.416 178.731 100.45 178.446 99.8132C178.183 99.1547 177.579 98.8254 176.635 98.8254C175.867 98.8254 175.252 99.034 174.791 99.451C174.352 99.8681 174.023 100.439 173.803 101.163V111.963H169.523ZM186.667 95.4999H189.795L190.289 97.4755H190.421C190.991 96.6414 191.661 96.0267 192.429 95.6316C193.219 95.2365 194.174 95.039 195.294 95.039C197.357 95.039 198.905 95.6975 199.936 97.0145C200.968 98.3096 201.484 100.406 201.484 103.303C201.484 104.708 201.319 105.981 200.99 107.123C200.661 108.242 200.167 109.197 199.508 109.987C198.872 110.778 198.081 111.381 197.138 111.798C196.216 112.215 195.151 112.424 193.944 112.424C193.263 112.424 192.704 112.369 192.265 112.259C191.826 112.171 191.387 112.018 190.947 111.798V118.548H186.667V95.4999ZM194.01 98.6608C193.175 98.6608 192.517 98.8693 192.034 99.2864C191.573 99.7035 191.211 100.329 190.947 101.163V108.012C191.255 108.253 191.584 108.451 191.935 108.604C192.308 108.736 192.791 108.802 193.384 108.802C194.613 108.802 195.535 108.374 196.15 107.518C196.764 106.64 197.072 105.202 197.072 103.205C197.072 101.756 196.83 100.636 196.347 99.8461C195.864 99.0559 195.085 98.6608 194.01 98.6608ZM204.35 96.4548C205.228 96.0597 206.27 95.7524 207.478 95.5329C208.685 95.2914 209.947 95.1707 211.264 95.1707C212.406 95.1707 213.36 95.3133 214.129 95.5987C214.897 95.8621 215.501 96.2462 215.94 96.7511C216.401 97.256 216.719 97.8596 216.894 98.562C217.092 99.2645 217.191 100.055 217.191 100.933C217.191 101.899 217.158 102.875 217.092 103.863C217.026 104.829 216.982 105.784 216.96 106.728C216.96 107.672 216.993 108.593 217.059 109.493C217.125 110.371 217.29 111.206 217.553 111.996H214.063L213.371 109.724H213.207C212.768 110.404 212.153 110.997 211.363 111.502C210.595 111.985 209.596 112.226 208.367 112.226C207.598 112.226 206.907 112.117 206.292 111.897C205.678 111.656 205.151 111.326 204.712 110.909C204.273 110.47 203.933 109.965 203.691 109.395C203.45 108.802 203.329 108.143 203.329 107.419C203.329 106.409 203.548 105.564 203.987 104.884C204.448 104.181 205.096 103.622 205.93 103.205C206.786 102.766 207.796 102.469 208.959 102.316C210.145 102.14 211.462 102.085 212.91 102.151C213.064 100.922 212.976 100.044 212.647 99.5169C212.318 98.9681 211.582 98.6937 210.441 98.6937C209.585 98.6937 208.674 98.7815 207.708 98.9571C206.764 99.1328 205.985 99.3632 205.37 99.6486L204.35 96.4548ZM209.782 108.703C210.638 108.703 211.319 108.517 211.824 108.143C212.329 107.748 212.702 107.331 212.943 106.892V104.752C212.263 104.686 211.604 104.675 210.968 104.719C210.353 104.763 209.804 104.862 209.321 105.016C208.839 105.169 208.454 105.389 208.169 105.674C207.884 105.959 207.741 106.322 207.741 106.761C207.741 107.375 207.917 107.858 208.268 108.209C208.641 108.539 209.146 108.703 209.782 108.703ZM230.858 111.963V102.612C230.858 101.273 230.661 100.307 230.265 99.7144C229.892 99.1218 229.245 98.8254 228.323 98.8254C227.511 98.8254 226.819 99.0669 226.248 99.5498C225.7 100.011 225.305 100.592 225.063 101.295V111.963H220.783V95.4999H224.174L224.668 97.673H224.8C225.305 96.9706 225.974 96.356 226.808 95.8292C227.642 95.3024 228.718 95.039 230.035 95.039C230.847 95.039 231.571 95.1487 232.208 95.3682C232.845 95.5877 233.382 95.9499 233.821 96.4548C234.26 96.9596 234.59 97.6511 234.809 98.5291C235.029 99.3852 235.138 100.45 235.138 101.723V111.963H230.858ZM239.087 95.4999H243.367V111.963H239.087V95.4999ZM238.461 90.8574C238.461 90.2208 238.692 89.683 239.153 89.244C239.636 88.783 240.294 88.5526 241.128 88.5526C241.963 88.5526 242.632 88.783 243.137 89.244C243.664 89.683 243.927 90.2208 243.927 90.8574C243.927 91.4939 243.664 92.0317 243.137 92.4707C242.632 92.8878 241.963 93.0963 241.128 93.0963C240.294 93.0963 239.636 92.8878 239.153 92.4707C238.692 92.0317 238.461 91.4939 238.461 90.8574ZM260.738 110.547C260.079 111.074 259.179 111.524 258.038 111.897C256.918 112.248 255.722 112.424 254.449 112.424C251.793 112.424 249.85 111.656 248.621 110.119C247.392 108.561 246.777 106.431 246.777 103.731C246.777 100.834 247.468 98.6608 248.851 97.2121C250.234 95.7633 252.177 95.039 254.679 95.039C255.513 95.039 256.326 95.1487 257.116 95.3682C257.906 95.5877 258.608 95.9499 259.223 96.4548C259.838 96.9596 260.332 97.6401 260.705 98.4962C261.078 99.3523 261.264 100.417 261.264 101.69C261.264 102.151 261.231 102.645 261.166 103.172C261.122 103.698 261.045 104.247 260.935 104.818H251.057C251.123 106.201 251.474 107.244 252.111 107.946C252.77 108.648 253.823 109 255.272 109C256.172 109 256.973 108.868 257.675 108.604C258.4 108.319 258.949 108.034 259.322 107.748L260.738 110.547ZM254.613 98.4633C253.494 98.4633 252.66 98.8035 252.111 99.484C251.584 100.142 251.266 101.031 251.156 102.151H257.28C257.368 100.966 257.182 100.055 256.721 99.4181C256.282 98.7815 255.579 98.4633 254.613 98.4633ZM271.103 107.419C271.103 106.98 270.917 106.629 270.543 106.365C270.17 106.102 269.709 105.861 269.16 105.641C268.612 105.422 268.008 105.202 267.35 104.983C266.691 104.741 266.087 104.423 265.539 104.028C264.99 103.611 264.529 103.095 264.156 102.48C263.783 101.844 263.596 101.031 263.596 100.044C263.596 98.4194 264.079 97.1791 265.045 96.3231C266.011 95.467 267.404 95.039 269.226 95.039C270.478 95.039 271.608 95.1707 272.618 95.4341C273.627 95.6975 274.418 95.9938 274.988 96.3231L274.034 99.4181C273.529 99.2206 272.892 99.012 272.124 98.7925C271.356 98.573 270.576 98.4633 269.786 98.4633C268.513 98.4633 267.876 98.9571 267.876 99.9449C267.876 100.34 268.063 100.658 268.436 100.9C268.809 101.141 269.27 101.372 269.819 101.591C270.368 101.789 270.971 102.008 271.63 102.25C272.288 102.491 272.892 102.809 273.441 103.205C273.99 103.578 274.451 104.072 274.824 104.686C275.197 105.301 275.383 106.091 275.383 107.057C275.383 108.725 274.846 110.042 273.77 111.008C272.716 111.952 271.125 112.424 268.996 112.424C267.832 112.424 266.735 112.27 265.703 111.963C264.694 111.678 263.87 111.337 263.234 110.942L264.419 107.748C264.924 108.034 265.594 108.319 266.428 108.604C267.262 108.868 268.118 109 268.996 109C269.632 109 270.137 108.879 270.51 108.637C270.906 108.396 271.103 107.99 271.103 107.419Z" fill="#4CB527"/>
<circle cx="144.639" cy="12.9351" r="4.7037" fill="#1BA943"/>
</svg>
