<svg width="291" height="127" fill="none" xmlns="http://www.w3.org/2000/svg"><path d="M26.717 54.736c0-1.506-.564-2.729-1.693-3.67-1.082-.94-2.47-1.787-4.163-2.54-1.646-.799-3.457-1.599-5.433-2.398a32.174 32.174 0 0 1-5.433-3.034 16.621 16.621 0 0 1-4.162-4.516C4.75 36.791 4.21 34.51 4.21 31.734c0-2.398.4-4.468 1.2-6.209.799-1.787 1.928-3.268 3.386-4.444 1.505-1.176 3.269-2.047 5.292-2.611 2.022-.564 4.28-.847 6.773-.847 2.87 0 5.574.259 8.114.776 2.54.47 4.633 1.176 6.28 2.117L32.22 28.63c-1.034-.659-2.587-1.246-4.656-1.764-2.07-.564-4.304-.847-6.703-.847-2.258 0-3.998.447-5.221 1.341-1.176.894-1.764 2.093-1.764 3.598 0 1.411.54 2.587 1.623 3.528 1.129.94 2.516 1.811 4.162 2.61 1.694.8 3.505 1.623 5.433 2.47a26.718 26.718 0 0 1 5.433 3.105 14.464 14.464 0 0 1 4.163 4.445c1.129 1.74 1.693 3.927 1.693 6.561s-.447 4.916-1.34 6.844a12.494 12.494 0 0 1-3.67 4.727c-1.552 1.27-3.457 2.211-5.714 2.823-2.211.611-4.657.917-7.338.917-3.528 0-6.632-.33-9.313-.988-2.682-.659-4.657-1.317-5.927-1.976l3.104-8.255c.518.283 1.176.588 1.976.918.847.329 1.787.635 2.822.917 1.035.282 2.117.517 3.246.705 1.176.189 2.375.283 3.598.283 2.87 0 5.056-.47 6.562-1.411 1.552-.988 2.328-2.47 2.328-4.445Z" fill="#0B6065"/><path d="m95.246 42.388 1.058-9.807h-.423l-3.034 7.902-10.513 18.415H79.23L68.152 40.413l-3.104-7.832h-.353l1.411 9.737V68h-9.172V18.611h8.82L78.947 41.19l2.329 5.644h.282l2.117-5.785L96.163 18.61h8.749V68h-9.666V42.388Z" fill="#0B653A"/><path d="M151.818 57.064h-15.17L132.909 68h-9.666l17.78-49.742h7.126L165.929 68h-10.16l-3.951-10.936Zm-12.7-7.761h10.583l-3.669-11.007-1.482-7.761h-.352l-1.482 7.832-3.598 10.936Z" fill="#1BA943"/><path d="M184.306 19.105a61.026 61.026 0 0 1 3.457-.494 53.54 53.54 0 0 1 3.74-.423c1.27-.094 2.493-.165 3.669-.212a81.75 81.75 0 0 1 3.245-.07c2.305 0 4.563.211 6.774.635 2.257.423 4.256 1.152 5.997 2.187 1.787 1.035 3.198 2.47 4.233 4.304 1.082 1.787 1.623 4.045 1.623 6.773 0 4.045-.941 7.338-2.822 9.878-1.882 2.54-4.398 4.304-7.55 5.291l3.458 2.188L221.418 68h-11.147l-11.219-19.332-5.08-.917V68h-9.666V19.105Zm14.817 7.408c-.988 0-1.976.024-2.963.07-.941.048-1.67.142-2.188.283V41.19h4.093c2.681 0 4.821-.612 6.42-1.835 1.599-1.222 2.399-3.245 2.399-6.067 0-2.117-.659-3.763-1.976-4.94-1.317-1.222-3.245-1.834-5.785-1.834Z" fill="#4CB527"/><path d="M275.927 27.219h-14.393V68h-9.666V27.219h-14.464V18.61h38.523v8.608Z" fill="#F7C929"/><path d="M15.804 111.963c0 2.393-.647 4.149-1.942 5.268-1.295 1.141-3.106 1.712-5.433 1.712-1.58 0-2.832-.11-3.754-.329-.9-.22-1.58-.45-2.04-.692l.888-3.391c.505.198 1.087.395 1.745.593.68.197 1.515.296 2.503.296 1.492 0 2.502-.329 3.029-.988.548-.636.823-1.536.823-2.7v-1.053h-.132c-.768 1.031-2.13 1.547-4.083 1.547-2.129 0-3.72-.658-4.774-1.975-1.032-1.317-1.547-3.381-1.547-6.19 0-2.942.702-5.17 2.107-6.684 1.405-1.515 3.446-2.272 6.124-2.272 1.405 0 2.656.099 3.754.296 1.12.198 2.03.428 2.732.692v15.87Zm-7.243-3.161c.834 0 1.47-.187 1.91-.56.46-.373.812-.933 1.053-1.679v-7.408c-.68-.286-1.525-.428-2.535-.428-1.098 0-1.954.417-2.568 1.25-.615.813-.922 2.119-.922 3.919 0 1.602.263 2.821.79 3.655.527.834 1.284 1.251 2.272 1.251Zm20.056-9.285c-.68-.242-1.295-.362-1.844-.362-.768 0-1.416.208-1.942.625-.505.395-.846.911-1.021 1.548v10.635h-4.28V95.5h3.325l.494 2.173h.132c.373-.812.878-1.438 1.514-1.877.637-.439 1.383-.658 2.24-.658.57 0 1.217.12 1.942.362l-.56 4.017Zm1.666 4.214c0-2.787.68-4.927 2.041-6.42 1.36-1.515 3.27-2.272 5.73-2.272 1.316 0 2.458.209 3.423.626a6.32 6.32 0 0 1 2.404 1.778c.637.746 1.108 1.657 1.416 2.732.33 1.076.494 2.261.494 3.556 0 2.788-.68 4.939-2.042 6.454-1.339 1.493-3.237 2.239-5.696 2.239-1.317 0-2.458-.209-3.424-.626a6.777 6.777 0 0 1-2.437-1.745c-.636-.768-1.12-1.69-1.448-2.766-.308-1.075-.461-2.261-.461-3.556Zm4.412 0c0 .725.066 1.394.197 2.009.132.615.33 1.152.593 1.613.263.461.604.823 1.02 1.087.44.241.956.362 1.548.362 1.12 0 1.954-.406 2.503-1.218.548-.812.823-2.097.823-3.853 0-1.514-.253-2.732-.758-3.654-.505-.944-1.36-1.416-2.568-1.416-1.053 0-1.877.395-2.47 1.185-.592.79-.888 2.085-.888 3.885ZM52.873 95.5v9.351c0 1.339.154 2.305.461 2.897.33.593.955.889 1.877.889.812 0 1.482-.241 2.009-.724a4.378 4.378 0 0 0 1.218-1.778V95.5h4.28v11.458c0 .9.044 1.789.132 2.667.088.856.22 1.635.395 2.338h-3.227l-.757-2.437h-.132c-.505.834-1.207 1.526-2.107 2.075-.9.548-1.965.823-3.194.823-.834 0-1.58-.11-2.239-.329a3.683 3.683 0 0 1-1.646-1.087c-.439-.505-.78-1.185-1.02-2.041-.22-.856-.33-1.932-.33-3.227V95.5h4.28Zm13.602 0h3.128l.494 1.975h.131c.57-.834 1.24-1.448 2.009-1.843.79-.395 1.745-.593 2.864-.593 2.064 0 3.611.659 4.643 1.975 1.031 1.296 1.547 3.392 1.547 6.289 0 1.405-.164 2.678-.494 3.82-.329 1.119-.823 2.074-1.481 2.864a6.223 6.223 0 0 1-2.37 1.811c-.923.417-1.987.626-3.195.626-.68 0-1.24-.055-1.679-.165a5.23 5.23 0 0 1-1.317-.461v6.75h-4.28V95.5Zm7.342 3.16c-.834 0-1.492.21-1.975.626-.461.418-.824 1.043-1.087 1.877v6.849c.307.241.637.439.988.592.373.132.856.198 1.449.198 1.229 0 2.15-.428 2.765-1.284.615-.878.922-2.316.922-4.313 0-1.449-.241-2.569-.724-3.359s-1.262-1.185-2.338-1.185Zm17.977 5.071c0-2.787.68-4.927 2.041-6.42 1.361-1.515 3.27-2.272 5.73-2.272 1.316 0 2.458.209 3.423.626a6.322 6.322 0 0 1 2.404 1.778c.637.746 1.109 1.657 1.416 2.732.329 1.076.494 2.261.494 3.556 0 2.788-.681 4.939-2.042 6.454-1.339 1.493-3.237 2.239-5.696 2.239-1.317 0-2.458-.209-3.424-.626a6.777 6.777 0 0 1-2.437-1.745c-.636-.768-1.12-1.69-1.448-2.766-.308-1.075-.461-2.261-.461-3.556Zm4.412 0c0 .725.066 1.394.197 2.009.132.615.33 1.152.593 1.613.263.461.604.823 1.02 1.087.44.241.956.362 1.548.362 1.12 0 1.954-.406 2.503-1.218.548-.812.823-2.097.823-3.853 0-1.514-.253-2.732-.758-3.654-.504-.944-1.361-1.416-2.568-1.416-1.053 0-1.877.395-2.47 1.185-.592.79-.888 2.085-.888 3.885Zm12.162-8.231h2.272v-.922c0-2.085.439-3.589 1.317-4.51.878-.945 2.151-1.417 3.82-1.417 1.756 0 3.215.209 4.379.626l-.823 3.424a6.301 6.301 0 0 0-1.35-.329 6.828 6.828 0 0 0-1.186-.099c-.439 0-.79.066-1.053.198-.242.131-.428.34-.56.625-.11.264-.187.604-.231 1.021-.022.395-.032.856-.032 1.383h3.621v3.622h-3.621v12.841h-4.281V99.122h-2.272V95.5Zm32.077 15.442c-.658.483-1.459.845-2.403 1.087-.922.263-1.877.395-2.865.395-1.317 0-2.436-.209-3.358-.626a5.775 5.775 0 0 1-2.206-1.745c-.571-.768-.988-1.69-1.252-2.766-.241-1.075-.362-2.261-.362-3.556 0-2.787.626-4.927 1.877-6.42 1.251-1.515 3.073-2.272 5.466-2.272 1.207 0 2.173.099 2.897.296.747.198 1.416.45 2.009.758l-1.021 3.49a8.466 8.466 0 0 0-1.515-.56c-.482-.132-1.042-.198-1.679-.198-1.185 0-2.085.396-2.7 1.186-.614.768-.922 2.008-.922 3.72 0 .703.077 1.35.231 1.943.154.593.384 1.109.691 1.548.308.439.703.79 1.186 1.053.504.242 1.086.362 1.745.362.724 0 1.339-.087 1.844-.263a7.173 7.173 0 0 0 1.35-.691l.987 3.259Zm1.252-7.211c0-2.787.68-4.927 2.041-6.42 1.361-1.515 3.271-2.272 5.73-2.272 1.317 0 2.458.209 3.424.626a6.31 6.31 0 0 1 2.403 1.778c.637.746 1.109 1.657 1.416 2.732.329 1.076.494 2.261.494 3.556 0 2.788-.68 4.939-2.041 6.454-1.339 1.493-3.238 2.239-5.696 2.239-1.318 0-2.459-.209-3.425-.626a6.769 6.769 0 0 1-2.436-1.745c-.637-.768-1.12-1.69-1.449-2.766-.307-1.075-.461-2.261-.461-3.556Zm4.412 0c0 .725.066 1.394.198 2.009.131.615.329 1.152.592 1.613.264.461.604.823 1.021 1.087.439.241.955.362 1.548.362 1.119 0 1.953-.406 2.502-1.218.549-.812.823-2.097.823-3.853 0-1.514-.252-2.732-.757-3.654-.505-.944-1.361-1.416-2.568-1.416-1.054 0-1.877.395-2.47 1.185-.593.79-.889 2.085-.889 3.885Zm23.414 8.232v-8.956c0-1.515-.143-2.59-.428-3.227-.285-.636-.878-.955-1.778-.955-.746 0-1.35.209-1.811.626-.461.395-.812.911-1.054 1.548v10.964h-4.28V95.5h3.326l.493 2.173h.132a7.658 7.658 0 0 1 1.91-1.844c.79-.527 1.8-.79 3.029-.79 1.054 0 1.91.22 2.568.659.681.417 1.208 1.13 1.581 2.14a5.981 5.981 0 0 1 1.942-2.042c.791-.505 1.745-.757 2.865-.757.922 0 1.701.11 2.338.33.658.219 1.185.603 1.58 1.152.417.526.724 1.24.922 2.14.198.9.296 2.041.296 3.424v9.878h-4.28v-9.252c0-1.295-.143-2.261-.428-2.898-.263-.658-.867-.988-1.811-.988-.768 0-1.383.209-1.844.626-.439.417-.768.988-.988 1.712v10.8h-4.28ZM186.667 95.5h3.128l.494 1.975h.132c.57-.834 1.24-1.448 2.008-1.843.79-.395 1.745-.593 2.865-.593 2.063 0 3.611.659 4.642 1.975 1.032 1.296 1.548 3.392 1.548 6.289 0 1.405-.165 2.678-.494 3.82-.329 1.119-.823 2.074-1.482 2.864a6.223 6.223 0 0 1-2.37 1.811c-.922.417-1.987.626-3.194.626-.681 0-1.24-.055-1.679-.165a5.25 5.25 0 0 1-1.318-.461v6.75h-4.28V95.5Zm7.343 3.16c-.835 0-1.493.21-1.976.626-.461.418-.823 1.043-1.087 1.877v6.849c.308.241.637.439.988.592.373.132.856.198 1.449.198 1.229 0 2.151-.428 2.766-1.284.614-.878.922-2.316.922-4.313 0-1.449-.242-2.569-.725-3.359s-1.262-1.185-2.337-1.185Zm10.34-2.205c.878-.395 1.92-.703 3.128-.922a19.26 19.26 0 0 1 3.786-.362c1.142 0 2.096.142 2.865.428.768.263 1.372.647 1.811 1.152a4.11 4.11 0 0 1 .954 1.811c.198.703.297 1.493.297 2.371 0 .966-.033 1.942-.099 2.93-.066.966-.11 1.921-.132 2.865 0 .944.033 1.865.099 2.765.066.878.231 1.713.494 2.503h-3.49l-.692-2.272h-.164c-.439.68-1.054 1.273-1.844 1.778-.768.483-1.767.724-2.996.724-.769 0-1.46-.109-2.075-.329a4.826 4.826 0 0 1-1.58-.988 4.743 4.743 0 0 1-1.021-1.514 5.204 5.204 0 0 1-.362-1.976c0-1.01.219-1.855.658-2.535.461-.703 1.109-1.262 1.943-1.679.856-.439 1.866-.736 3.029-.889 1.186-.176 2.503-.231 3.951-.165.154-1.229.066-2.107-.263-2.634-.329-.549-1.065-.823-2.206-.823-.856 0-1.767.087-2.733.263-.944.176-1.723.406-2.338.692l-1.02-3.194Zm5.432 12.248c.856 0 1.537-.186 2.042-.56.505-.395.878-.812 1.119-1.251v-2.14a11.921 11.921 0 0 0-1.975-.033 7.097 7.097 0 0 0-1.647.297c-.482.153-.867.373-1.152.658-.285.285-.428.648-.428 1.087 0 .614.176 1.097.527 1.448.373.33.878.494 1.514.494Zm21.076 3.26v-9.351c0-1.339-.197-2.305-.593-2.898-.373-.592-1.02-.889-1.942-.889-.812 0-1.504.242-2.075.725a3.886 3.886 0 0 0-1.185 1.745v10.668h-4.28V95.5h3.391l.494 2.173h.132c.505-.702 1.174-1.317 2.008-1.844.834-.527 1.91-.79 3.227-.79.812 0 1.536.11 2.173.33.637.219 1.174.58 1.613 1.086.439.505.769 1.196.988 2.074.22.856.329 1.921.329 3.194v10.24h-4.28Zm8.229-16.463h4.28v16.463h-4.28V95.5Zm-.626-4.643c0-.636.231-1.174.692-1.613.483-.461 1.141-.691 1.975-.691.835 0 1.504.23 2.009.691.527.439.79.977.79 1.613 0 .637-.263 1.175-.79 1.614-.505.417-1.174.625-2.009.625-.834 0-1.492-.208-1.975-.625a2.142 2.142 0 0 1-.692-1.614Zm22.277 19.69c-.659.527-1.559.977-2.7 1.35-1.12.351-2.316.527-3.589.527-2.656 0-4.599-.768-5.828-2.305-1.229-1.558-1.844-3.688-1.844-6.388 0-2.897.691-5.07 2.074-6.519 1.383-1.449 3.326-2.173 5.828-2.173.834 0 1.647.11 2.437.33.79.219 1.492.58 2.107 1.086.615.505 1.109 1.185 1.482 2.041.373.856.559 1.921.559 3.194 0 .461-.033.955-.098 1.482a15.582 15.582 0 0 1-.231 1.646h-9.878c.066 1.383.417 2.426 1.054 3.128.659.702 1.712 1.054 3.161 1.054.9 0 1.701-.132 2.403-.396.725-.285 1.274-.57 1.647-.856l1.416 2.799Zm-6.125-12.084c-1.119 0-1.953.34-2.502 1.021-.527.658-.845 1.547-.955 2.667h6.124c.088-1.185-.098-2.096-.559-2.733-.439-.637-1.142-.955-2.108-.955Zm16.49 8.956c0-.439-.186-.79-.56-1.054a6.778 6.778 0 0 0-1.383-.724 32.85 32.85 0 0 0-1.81-.658 7.502 7.502 0 0 1-1.811-.955 5.507 5.507 0 0 1-1.383-1.548c-.373-.636-.56-1.449-.56-2.436 0-1.625.483-2.865 1.449-3.72.966-.857 2.359-1.285 4.181-1.285 1.252 0 2.382.132 3.392.395 1.009.264 1.8.56 2.37.89l-.954 3.094a21.898 21.898 0 0 0-1.91-.626 8.471 8.471 0 0 0-2.338-.329c-1.273 0-1.91.494-1.91 1.482 0 .395.187.713.56.955.373.241.834.472 1.383.691.549.198 1.152.417 1.811.659a7.469 7.469 0 0 1 1.811.955c.549.373 1.01.867 1.383 1.481.373.615.559 1.405.559 2.371 0 1.668-.537 2.985-1.613 3.951-1.054.944-2.645 1.416-4.774 1.416a11.49 11.49 0 0 1-3.293-.461c-1.009-.285-1.833-.626-2.469-1.021l1.185-3.194c.505.286 1.175.571 2.009.856a8.46 8.46 0 0 0 2.568.396c.636 0 1.141-.121 1.514-.363.396-.241.593-.647.593-1.218Z" fill="#4CB527"/><circle cx="144.639" cy="12.935" r="4.704" fill="#1BA943"/></svg>