<svg width="154" height="40" fill="none" xmlns="http://www.w3.org/2000/svg"><path fill-rule="evenodd" clip-rule="evenodd" d="M25.592 21.271c-.02 1.02-.892 1.834-1.967 1.834-1.068 0-1.939-.815-1.96-1.834V3.288c0-1.033.878-1.869 1.96-1.869 1.09 0 1.967.836 1.967 1.869V21.27zm32.083-1.91h8.395c1.082 0 1.96.843 1.96 1.875 0 1.033-.878 1.869-1.96 1.869H55.715c-1.075 0-1.946-.815-1.967-1.834V3.288c0-1.033.878-1.869 1.967-1.869 1.082 0 1.96.836 1.96 1.869V19.36zM34.17 16.93c-.766 0-1.96 1.053-1.96 1.875 0 .815.295 1.138.758 1.475v.007l.745.506.414.253.436.253.443.245.463.232.47.225.486.21.491.19.506.176.52.155.527.133.534.113.54.084.549.049.54.021.619-.007.625-.035.64-.056.653-.092.667-.133.674-.183.682-.238.667-.324.646-.393.605-.492.547-.583.471-.681.373-.752.267-.829.161-.885.098-.871-.042-.745-.049-.815-.154-.787-.253-.73-.352-.682-.428-.61-.492-.542-.54-.477-.57-.408-.597-.365-.611-.31-.625-.28-.626-.246-.632-.225-.632-.204-.632-.19-.619-.175-1.187-.337-.576-.169-.534-.161-.505-.169-.464-.168-.415-.169-.358-.176-.302-.168-.239-.162-.175-.147-.113-.134-.077-.112-.05-.106-.034-.133-.014-.197.014-.358.056-.316.077-.253.105-.225.127-.19.14-.175.183-.162.21-.154.254-.148.288-.133.323-.113.358-.105.38-.077.407-.063.415-.043.428-.02h.33l.344.013.345.021.35.043.352.049.351.056.345.077.344.077.337.092.33.105.316.113.31.119.294.12.281.133.26.133c.281.148.611.24.956.24 1.082 0 1.96-.844 1.96-1.876 0-.696-.394-1.3-.977-1.623l-.4-.21-.415-.19-.428-.183-.436-.169-.45-.147-.449-.148-.464-.126-.47-.113-.478-.098-.485-.084-.484-.064-.485-.056-.499-.035L40.288 0h-.498l-.619.028-.632.063-.625.092-.632.14L36.65.5l-.619.225-.604.274-.59.344-.555.4-.52.47-.463.549-.4.611-.31.674-.225.724-.133.766-.042.815.07.737.182.724.31.674.393.597.47.513.52.443.548.372.57.323.583.274.59.246.597.218.61.203.612.183.611.183.604.168.597.169.577.168.569.17.54.175.513.182.478.183.436.197.393.204.344.203.288.211.24.21.189.211.147.211.113.218.091.253.056.295.021.365.056.527-.084.668-.084.435-.105.337-.141.274-.148.225-.182.19-.204.168-.246.148-.295.14-.337.12-.38.105-.414.084-.435.057-.464.042-.464.02-.45.008-.315-.007-.31-.028-.33-.05-.33-.07-.344-.091-.351-.105-.359-.12-.358-.14-.358-.162-.358-.162-.352-.182-.344-.183-.337-.197-.323-.203-.548-.373c-.33-.238-.422-.379-1.187-.379zM77.745 1.6c.26-.119.548-.182.85-.182 1.082 0 1.96.836 1.96 1.869 0 .822-.548 1.517-1.306 1.77-1.35.674-2.276 2.023-2.276 3.569v7.313c0 1.56.955 2.929 2.325 3.596.737.267 1.454 1.23 1.18 2.171-.28.941-1.187 1.447-1.883 1.447-.695 0-.59-.063-.85-.183v.008c-2.767-1.25-4.7-3.941-4.7-7.04v-7.31c0-3.098 1.933-5.789 4.7-7.04v.015zm7.152 21.265c2.634-1.292 4.453-3.92 4.453-6.926V8.627c0-3.014-1.826-5.648-4.474-6.934l-.007.007a1.979 1.979 0 00-1.033-.281c-1.082 0-1.967.836-1.967 1.869 0 .744.457 1.384 1.11 1.686h-.007c1.447.646 2.452 2.044 2.452 3.653v7.313c0 1.608-1.012 3.006-2.452 3.653l.007.007c-.653.302-1.187.899-1.026 1.868.169.963.787 1.426 1.468 1.532.682.105 1.167.049 1.476-.134zm13.797-1.595c-.021 1.02-.892 1.834-1.967 1.834-1.068 0-1.94-.815-1.96-1.834V3.288c0-1.033.878-1.869 1.96-1.869 1.089 0 1.967.836 1.967 1.869V21.27zm42.184 0c-.021 1.02-.892 1.834-1.967 1.834-1.067 0-1.938-.815-1.959-1.834V3.288c0-1.033.878-1.869 1.959-1.869 1.089 0 1.967.836 1.967 1.869V21.27zm-30.193-.8c.436.927.007 2.023-.955 2.458-.97.436-2.129.05-2.599-.864l-.014-.035-4.384-8.872h-.808c-1.061-.028-1.911-.857-1.911-1.876s.85-1.84 1.911-1.869v-.007h3.042c1.208 0 2.206-.941 2.206-2.1 0-1.16-.998-2.108-2.206-2.108h-3.042c-1.061-.028-1.911-.857-1.911-1.875 0-1.019.85-1.848 1.911-1.869v-.007h3.042c3.372 0 6.133 2.634 6.133 5.859 0 2.564-1.756 4.763-4.18 5.543l3.744 7.587.021.035zm9.934 5.922c.014-.801.702-1.447 1.545-1.447.85 0 1.538.646 1.56 1.447V32.3c.007.61-.394 1.138-.949 1.362h-.007l-.028.015h-.007l-.035.014-.035.007-.035.014a1.69 1.69 0 01-.464.07h-11.949c-.836-.021-1.518-.675-1.518-1.482 0-.808.682-1.469 1.518-1.483h10.397v-4.425h.007zm-38.596 0c-.013-.801-.702-1.447-1.545-1.447-.85 0-1.538.646-1.552 1.447V32.3c-.014.597.365 1.117.906 1.349h.007l.028.014h.007l.035.014.028.014h.007l.035.007c.155.056.323.084.5.084h11.948c.843-.021 1.518-.675 1.518-1.482 0-.808-.674-1.469-1.517-1.483H82.03v-4.425h-.008zm62.031-21.195h3.042c1.173 0 2.135.879 2.205 1.981v10.06c0 1.16-.997 2.108-2.205 2.108h-3.042c-1.054.028-1.904.857-1.904 1.868 0 1.019.85 1.848 1.904 1.876h3.042c3.322 0 6.055-2.564 6.132-5.718V6.969c0-.155-.021-.31-.056-.45-.4-2.852-2.985-5.072-6.076-5.072h-3.042v.007c-1.054.028-1.904.85-1.904 1.869 0 1.018.85 1.847 1.904 1.875zm-24.131-3.596c.26-.12.541-.183.85-.183 1.082 0 1.96.836 1.96 1.869 0 .822-.541 1.517-1.307 1.77-1.348.674-2.269 2.023-2.269 3.569v7.313c0 1.56.949 2.929 2.326 3.596.73.267 1.25.83 1.25 1.75 0 .913-1.264 1.868-1.96 1.868-.695 0-.59-.063-.85-.183v.008c-2.768-1.25-4.7-3.941-4.7-7.04v-7.31c0-3.098 1.932-5.789 4.7-7.04v.015zm7.144 21.264c2.642-1.292 4.461-3.92 4.461-6.926V8.627c0-3.014-1.826-5.648-4.475-6.934l-.007.007a1.96 1.96 0 00-1.032-.281c-1.082 0-1.967.836-1.967 1.869 0 .744.456 1.384 1.11 1.686h-.007c1.447.646 2.451 2.044 2.451 3.653v7.313c0 1.608-1.011 3.006-2.451 3.653l.007.007c-.654.302-1.11.793-1.11 1.686 0 .885 1.229 1.868 1.967 1.868.737 0 .751-.105 1.053-.288zm-20.702 14.507h-8.711v-1.84a58.242 58.242 0 001.988-1.581 23.057 23.057 0 001.546-1.413c.583-.583 1.004-1.095 1.257-1.53.267-.444.393-.893.393-1.364 0-.527-.161-.927-.491-1.208-.33-.281-.794-.422-1.384-.422-.295 0-.583.036-.85.106a6.63 6.63 0 00-.822.274 5.6 5.6 0 00-.689.358c-.19.12-.337.21-.435.274h-.225v-2.473c.33-.147.857-.309 1.567-.463a9.255 9.255 0 012.051-.24c1.405 0 2.473.296 3.196.893.731.597 1.089 1.44 1.089 2.522a4.26 4.26 0 01-.492 1.967c-.33.64-.878 1.32-1.636 2.058-.478.45-.942.85-1.398 1.202-.45.35-.78.604-.977.751h5.023v2.129zM4.314 21.272c-.021 1.018-.893 1.833-1.96 1.833-1.075 0-1.946-.815-1.967-1.834V3.288c0-1.033.885-1.869 1.967-1.869s1.96.836 1.96 1.869v6.645l9.842-8.043.02-.021c.823-.675 2.066-.583 2.769.196a1.82 1.82 0 01-.211 2.649l-.028.02-7.84 6.415 7.938 8.844.021.021c.71.787.611 1.967-.21 2.641-.823.675-2.066.583-2.768-.203l-.022-.021-7.945-8.838-1.566 1.279v6.4z" fill="#0061A8"/><path d="M24.222 34.97a.745.745 0 01-.752-.737c0-.408.338-.745.752-.745.421 0 .759.337.759.745a.747.747 0 01-.759.737zm-6.863 0a.745.745 0 01-.752-.737c0-.408.337-.745.752-.745.414 0 .758.337.758.745a.751.751 0 01-.758.737zm6.863-1.693a.751.751 0 01-.752-.744c0-.408.338-.738.752-.738.421 0 .759.33.759.738a.753.753 0 01-.759.744zm-6.863 0a.751.751 0 01-.752-.744c0-.408.337-.738.752-.738a.75.75 0 01.758.738.757.757 0 01-.758.744zm6.863-1.679a.747.747 0 01-.752-.744c0-.408.338-.738.752-.738.421 0 .759.33.759.738a.748.748 0 01-.759.744zm-6.863 0a.746.746 0 01-.752-.744c0-.408.337-.738.752-.738a.75.75 0 01.758.738.753.753 0 01-.758.744zm5.149-1.679a.745.745 0 01-.752-.737c0-.408.337-.745.752-.745.421 0 .759.337.759.745a.747.747 0 01-.76.737zm-1.714 0a.751.751 0 01-.759-.737c0-.408.344-.745.759-.745.414 0 .752.337.752.745a.745.745 0 01-.752.737zm-1.714 0a.747.747 0 01-.759-.737c0-.408.337-.745.759-.745a.75.75 0 01.751.745.745.745 0 01-.751.737zm3.428 6.73a.745.745 0 01-.752-.737c0-.415.337-.745.752-.745.421 0 .759.33.759.745a.747.747 0 01-.76.737zm-1.714 0a.751.751 0 01-.759-.737c0-.415.344-.745.759-.745.414 0 .752.33.752.745a.745.745 0 01-.752.737zm-1.714 0a.747.747 0 01-.759-.737c0-.415.337-.745.759-.745.414 0 .751.33.751.745a.745.745 0 01-.751.737zm-1.721 0a.745.745 0 01-.752-.737c0-.415.337-.745.752-.745.414 0 .758.33.758.745a.751.751 0 01-.758.737zm0 1.672a.745.745 0 01-.752-.737c0-.408.337-.738.752-.738a.75.75 0 01.758.738.751.751 0 01-.758.737zm0 1.68a.745.745 0 01-.752-.738c0-.415.337-.745.752-.745.414 0 .758.33.758.745a.751.751 0 01-.758.737zm10.256-9.885a.753.753 0 00-.759.745c0 .407.345.737.759.737.415 0 .752-.33.752-.737a.747.747 0 00-.752-.745zm0 1.7a.751.751 0 00-.759.738c0 .407.345.737.759.737.415 0 .752-.33.752-.737a.745.745 0 00-.752-.738zm0 1.679a.751.751 0 00-.759.738c0 .407.345.744.759.744a.751.751 0 00.752-.744.745.745 0 00-.752-.738zm0 1.672a.753.753 0 00-.759.745c0 .407.345.737.759.737.415 0 .752-.33.752-.737a.747.747 0 00-.752-.745zm3.435-6.73a.753.753 0 00-.759.745c0 .407.338.737.76.737.414 0 .75-.33.75-.737a.751.751 0 00-.75-.745zm-1.72 0a.751.751 0 00-.753.745c0 .407.338.737.752.737.422 0 .759-.33.759-.737a.753.753 0 00-.759-.745zm11.963 1.679a.753.753 0 00-.76.745c0 .407.345.737.76.737.414 0 .751-.33.751-.737a.747.747 0 00-.751-.745zm0 1.7a.751.751 0 00-.76.738c0 .407.345.737.76.737.414 0 .751-.33.751-.737a.745.745 0 00-.751-.738zm-1.715 0a.747.747 0 00-.758.738c0 .407.337.737.758.737.415 0 .752-.33.752-.737a.745.745 0 00-.752-.738zm-1.72 0a.745.745 0 00-.752.738c0 .407.337.737.751.737.422 0 .76-.33.76-.737a.747.747 0 00-.76-.738zm-1.715 0a.745.745 0 00-.751.738c0 .407.337.737.751.737.415 0 .752-.33.752-.737a.745.745 0 00-.752-.738zm5.15 1.679a.751.751 0 00-.76.738c0 .407.345.744.76.744a.751.751 0 00.751-.744.745.745 0 00-.751-.738zm-6.864 0a.747.747 0 00-.759.738c0 .407.338.744.76.744a.751.751 0 00.75-.744.745.745 0 00-.75-.738zm5.15 1.672a.748.748 0 00-.76.745c0 .407.338.737.76.737.414 0 .751-.33.751-.737a.747.747 0 00-.752-.745zm-1.722 0a.747.747 0 00-.751.745c0 .407.337.737.751.737.422 0 .76-.33.76-.737a.748.748 0 00-.76-.745zm-1.714 0a.747.747 0 00-.751.745c0 .407.337.737.751.737.415 0 .752-.33.752-.737a.747.747 0 00-.752-.745zm3.435-6.73a.753.753 0 00-.758.745c0 .407.337.737.758.737.415 0 .752-.33.752-.737a.751.751 0 00-.752-.745zm-1.72 0a.751.751 0 00-.752.745c0 .407.337.737.751.737.422 0 .76-.33.76-.737a.753.753 0 00-.76-.745zm-1.715 0a.751.751 0 00-.751.745c0 .407.337.737.751.737.415 0 .752-.33.752-.737a.751.751 0 00-.752-.745zm15.462 1.679a.753.753 0 00-.758.745.75.75 0 00.758.737c.415 0 .752-.33.752-.737a.747.747 0 00-.752-.745zm-6.863 0a.748.748 0 00-.759.745c0 .407.337.737.759.737.414 0 .752-.33.752-.737a.747.747 0 00-.752-.745zm6.863 1.7a.751.751 0 00-.758.738.75.75 0 00.758.737c.415 0 .752-.33.752-.737a.745.745 0 00-.752-.738zm-6.863 0a.747.747 0 00-.759.738c0 .407.337.737.759.737.414 0 .752-.33.752-.737a.745.745 0 00-.752-.738zm6.863 1.679a.751.751 0 00-.758.738c0 .407.344.744.758.744a.751.751 0 00.752-.744.745.745 0 00-.752-.738zm-6.863 0a.747.747 0 00-.759.738c0 .407.337.744.759.744a.751.751 0 00.752-.744.745.745 0 00-.752-.738zm6.863 1.672a.753.753 0 00-.758.745.75.75 0 00.758.737c.415 0 .752-.33.752-.737a.747.747 0 00-.752-.745zm-6.863 0a.748.748 0 00-.759.745c0 .407.337.737.759.737.414 0 .752-.33.752-.737a.747.747 0 00-.752-.745zm5.15-6.73a.753.753 0 00-.76.745c0 .407.338.737.76.737.414 0 .75-.33.75-.737a.751.751 0 00-.75-.745zm-1.722 0a.751.751 0 00-.752.745c0 .407.337.737.752.737.422 0 .759-.33.759-.737a.753.753 0 00-.759-.745zm-1.714 0a.753.753 0 00-.759.745c0 .407.337.737.759.737.414 0 .752-.33.752-.737a.751.751 0 00-.752-.745zm-1.714 0a.753.753 0 00-.759.745c0 .407.337.737.759.737.414 0 .752-.33.752-.737a.751.751 0 00-.752-.745zm17.169 1.679a.748.748 0 00-.759.745c0 .407.337.737.759.737.414 0 .752-.33.752-.737a.747.747 0 00-.752-.745zm0 1.7a.747.747 0 00-.759.738c0 .407.337.737.759.737.414 0 .752-.33.752-.737a.745.745 0 00-.752-.738zm-1.721 0a.745.745 0 00-.752.738c0 .407.337.737.752.737.421 0 .758-.33.758-.737a.747.747 0 00-.758-.738zm-1.714 0a.745.745 0 00-.752.738c0 .407.337.737.752.737a.75.75 0 00.758-.737.751.751 0 00-.758-.738zm-1.715 0a.747.747 0 00-.758.738c0 .407.337.737.758.737.415 0 .752-.33.752-.737a.745.745 0 00-.752-.738zm5.15 1.679a.747.747 0 00-.759.738c0 .407.337.744.759.744a.751.751 0 00.752-.744.745.745 0 00-.752-.738zm-6.87 0a.745.745 0 00-.752.738.75.75 0 00.751.744.753.753 0 00.76-.744.747.747 0 00-.76-.738zm5.149 1.672a.747.747 0 00-.752.745c0 .407.337.737.752.737.421 0 .758-.33.758-.737a.748.748 0 00-.758-.745zm-1.714 0a.747.747 0 00-.752.745c0 .407.337.737.752.737a.75.75 0 00.758-.737.753.753 0 00-.758-.745zm-1.715 0a.748.748 0 00-.758.745c0 .407.337.737.758.737.415 0 .752-.33.752-.737a.747.747 0 00-.752-.745zm3.429-6.73a.751.751 0 00-.752.745c0 .407.337.737.752.737.421 0 .758-.33.758-.737a.753.753 0 00-.758-.745zm-1.714 0a.751.751 0 00-.752.745c0 .407.337.737.752.737a.75.75 0 00.758-.737.757.757 0 00-.758-.745zm-1.715 0a.753.753 0 00-.758.745c0 .407.337.737.758.737.415 0 .752-.33.752-.737a.751.751 0 00-.752-.745zm-51.373-.962C2.41 27.475 0 29.842 0 32.765c0 2.915 2.41 5.282 5.388 5.282 2.979 0 5.388-2.367 5.388-5.283 0-2.922-2.41-5.29-5.388-5.29z" fill="#0061A8"/></svg>