<svg width="235" height="132" fill="none" xmlns="http://www.w3.org/2000/svg"><path d="M125.431 41.53c0-.866-.258-1.567-.774-2.103-.515-.557-1.165-1.042-1.949-1.454a21.75 21.75 0 0 0-2.506-1.207 14.772 14.772 0 0 1-2.536-1.33 7.486 7.486 0 0 1-1.919-1.95c-.515-.783-.773-1.773-.773-2.97 0-1.69.588-3.031 1.763-4.021 1.176-.99 2.847-1.485 5.012-1.485 1.258 0 2.403.093 3.434.278 1.032.186 1.836.423 2.414.712l-.774 2.258c-.474-.226-1.176-.443-2.104-.65-.907-.206-1.938-.309-3.093-.309-1.362 0-2.383.31-3.063.928-.681.599-1.021 1.31-1.021 2.135 0 .805.258 1.475.773 2.011.516.536 1.155 1.021 1.918 1.454.784.413 1.63.825 2.537 1.238.908.412 1.743.897 2.506 1.454a7.289 7.289 0 0 1 1.949 1.949c.516.763.774 1.712.774 2.846 0 .928-.165 1.764-.495 2.506a5.276 5.276 0 0 1-1.454 1.918c-.64.536-1.413.949-2.321 1.238-.907.288-1.938.433-3.093.433-1.547 0-2.826-.124-3.837-.371-1.01-.227-1.794-.485-2.351-.774l.866-2.32c.475.268 1.176.536 2.104.804.928.248 1.97.371 3.125.371.68 0 1.32-.062 1.918-.185.598-.145 1.114-.361 1.547-.65.433-.31.773-.69 1.021-1.145.268-.453.402-.99.402-1.608Zm23.304-9.033.309-3.249h-.155l-1.175 2.97-5.631 9.777h-.773l-5.971-9.807-1.114-2.94h-.155l.433 3.218v14.572h-2.413V25.38h1.918l6.776 11.076 1.021 2.413h.061l.96-2.475 6.465-11.014h2.011v21.657h-2.567V32.496Zm18.129 8.539h-7.981l-2.166 6.002h-2.537l8.199-21.997h1.175l8.23 21.997h-2.692l-2.228-6.002Zm-7.146-2.228h6.373l-2.413-6.59-.774-3.279h-.03l-.774 3.341-2.382 6.528Zm14.942-13.21c.783-.145 1.68-.258 2.691-.34a35.568 35.568 0 0 1 2.815-.124c.949 0 1.846.103 2.692.31.866.205 1.619.546 2.258 1.02a5.13 5.13 0 0 1 1.578 1.856c.392.763.588 1.692.588 2.785 0 1.69-.464 3.062-1.392 4.114-.928 1.052-2.104 1.753-3.527 2.104l1.485 1.145 5.383 8.57h-3.001l-5.971-9.344-3.032-.464v9.808h-2.567v-21.44Zm5.568 1.763h-.835c-.289 0-.567.01-.835.031-.268.02-.526.041-.774.062-.227.02-.412.052-.557.093v7.982h2.413c1.424 0 2.599-.35 3.527-1.052.928-.701 1.393-1.794 1.393-3.28 0-1.113-.382-2.031-1.145-2.753s-1.825-1.083-3.187-1.083Zm24.941.31h-6.744v19.367h-2.568V27.67h-6.744v-2.29h16.056v2.29Zm-82.213 66.57h7.27v9.528c-.33.248-.732.474-1.206.681a9.756 9.756 0 0 1-1.485.526c-.516.144-1.063.247-1.64.309-.557.082-1.103.124-1.64.124-1.382 0-2.65-.217-3.805-.65a8.1 8.1 0 0 1-3.001-2.042c-.846-.928-1.506-2.093-1.98-3.496-.474-1.423-.712-3.094-.712-5.012 0-2 .289-3.712.867-5.135.577-1.423 1.33-2.578 2.258-3.465.928-.908 1.97-1.568 3.125-1.98a10.243 10.243 0 0 1 3.465-.619c1.237 0 2.258.072 3.063.216.804.124 1.485.3 2.042.526l-.65 2.259c-.99-.474-2.403-.712-4.239-.712-.866 0-1.732.155-2.598.464-.846.29-1.609.784-2.29 1.485-.68.702-1.237 1.62-1.67 2.754-.433 1.134-.65 2.537-.65 4.207 0 1.527.175 2.847.526 3.96.351 1.114.835 2.042 1.454 2.785a6.228 6.228 0 0 0 2.289 1.639c.887.351 1.857.526 2.908.526 1.32 0 2.445-.257 3.373-.773v-6.033l-5.074-.619V94.24Zm11.642-10.643a27.24 27.24 0 0 1 2.691-.34 35.591 35.591 0 0 1 2.816-.124c.948 0 1.846.103 2.691.31.867.205 1.619.546 2.259 1.02a5.13 5.13 0 0 1 1.578 1.856c.391.763.587 1.692.587 2.785 0 1.69-.464 3.063-1.392 4.114-.928 1.052-2.104 1.754-3.527 2.104l1.485 1.145 5.383 8.569h-3.001l-5.97-9.343-3.032-.464v9.807h-2.568v-21.44Zm5.569 1.763h-.836c-.288 0-.567.01-.835.031-.268.02-.526.041-.773.062-.227.02-.413.052-.557.093v7.982h2.413c1.423 0 2.599-.35 3.527-1.052.928-.701 1.392-1.794 1.392-3.28 0-1.113-.382-2.031-1.145-2.753s-1.825-1.083-3.186-1.083Zm10.573 8.848c0-3.609.764-6.373 2.29-8.29 1.526-1.94 3.702-2.909 6.528-2.909 1.526 0 2.846.268 3.96.804a7.248 7.248 0 0 1 2.753 2.29c.743.97 1.289 2.145 1.64 3.527.35 1.36.526 2.887.526 4.578 0 3.61-.774 6.384-2.321 8.323-1.526 1.918-3.712 2.877-6.558 2.877-1.506 0-2.816-.268-3.929-.805a7.69 7.69 0 0 1-2.754-2.258c-.722-.99-1.258-2.166-1.609-3.527-.35-1.382-.526-2.918-.526-4.61Zm2.723 0c0 1.197.113 2.331.34 3.403.248 1.073.619 2.022 1.114 2.847a6.096 6.096 0 0 0 1.887 1.949c.784.474 1.702.711 2.754.711 1.918 0 3.423-.722 4.517-2.165 1.093-1.465 1.639-3.713 1.639-6.745 0-1.175-.124-2.3-.371-3.372-.227-1.093-.598-2.042-1.114-2.846a5.6 5.6 0 0 0-1.918-1.95c-.763-.494-1.681-.742-2.753-.742-1.898 0-3.393.732-4.486 2.197-1.073 1.444-1.609 3.681-1.609 6.713Zm31.76-10.828h2.475V97.83c0 1.3-.175 2.423-.526 3.372-.33.949-.814 1.733-1.454 2.351-.619.599-1.371 1.042-2.258 1.331-.887.289-1.867.433-2.939.433-2.558 0-4.486-.578-5.786-1.733-1.299-1.155-1.949-2.908-1.949-5.259V83.381h2.568v13.737c0 1.093.103 2.02.31 2.784.226.742.556 1.351.99 1.825.433.454.969.784 1.608.99.66.206 1.423.31 2.29.31 1.67 0 2.867-.454 3.588-1.362.722-.928 1.083-2.444 1.083-4.547V83.38Zm7.745.217c.784-.186 1.63-.31 2.537-.371a39.631 39.631 0 0 1 2.692-.093c.948 0 1.907.093 2.877.278.99.186 1.887.526 2.691 1.021.805.495 1.454 1.176 1.949 2.042.516.866.774 1.97.774 3.31 0 1.32-.237 2.434-.712 3.341a6.398 6.398 0 0 1-1.887 2.228 7.803 7.803 0 0 1-2.691 1.207 13.096 13.096 0 0 1-3.125.37H196.804l-.742-.061a5.291 5.291 0 0 1-.526-.062v8.229h-2.568v-21.44Zm5.291 1.763c-.537 0-1.052.01-1.547.031-.495.02-.887.072-1.176.155v8.972c.103.041.268.072.495.093.227 0 .464.01.712.03h1.206c.701 0 1.392-.061 2.073-.185a5.645 5.645 0 0 0 1.887-.743c.557-.35 1-.845 1.33-1.485.351-.639.526-1.454.526-2.444 0-.845-.165-1.547-.495-2.103a3.508 3.508 0 0 0-1.268-1.362 5.004 5.004 0 0 0-1.763-.742 9.24 9.24 0 0 0-1.98-.217Z" fill="#77A6AC"/><path d="m124.657 39.427-.302.28.005.006.297-.286Zm-1.949-1.454-.203.359.011.006.192-.365Zm-2.506-1.207-.156.382.156-.382Zm-2.536-1.33-.238.338.011.007.227-.345Zm-1.919-1.95-.344.228.003.004.341-.231Zm.99-6.991.266.316-.266-.316Zm8.446-1.207-.073.406.073-.406Zm2.414.712.39.134.117-.342-.323-.161-.184.369Zm-.774 2.258-.178.373.418.2.15-.439-.39-.134Zm-2.104-.65-.091.403h.002l.089-.402Zm-6.156.62.272.31.005-.005-.277-.306Zm-.248 4.145.298-.286-.298.286Zm1.918 1.454-.203.36.011.005.192-.365Zm2.537 1.238.171-.376-.171.376Zm2.506 1.454-.243.333.01.007.233-.34Zm2.228 7.301-.377-.168.377.168Zm-1.454 1.918.265.316-.265-.316Zm-2.321 1.238.125.393-.125-.393Zm-6.93.062.099-.401-.008-.002-.091.403Zm-2.351-.774-.386-.144-.128.342.324.168.19-.366Zm.866-2.32.203-.36-.42-.237-.169.453.386.144Zm2.104.804-.114.397.008.002.106-.399Zm5.043.186.084.404.013-.003-.097-.401Zm1.547-.65.229.343.011-.007-.24-.336Zm1.021-1.145-.355-.21-.004.007-.003.006.362.197Zm.814-1.608c0-.954-.287-1.764-.888-2.39l-.595.572c.43.447.658 1.04.658 1.818h.825Zm-.883-2.384c-.552-.597-1.241-1.108-2.059-1.54l-.385.73c.749.395 1.36.853 1.839 1.37l.605-.56Zm-2.048-1.533a22.196 22.196 0 0 0-2.553-1.23l-.313.764c.893.365 1.713.76 2.459 1.183l.407-.717Zm-2.553-1.23a14.403 14.403 0 0 1-2.467-1.293l-.453.69c.807.53 1.676.986 2.607 1.367l.313-.764Zm-2.456-1.286a7.073 7.073 0 0 1-1.814-1.842l-.683.462a7.91 7.91 0 0 0 2.022 2.055l.475-.675Zm-1.811-1.838c-.461-.7-.705-1.605-.705-2.743h-.825c0 1.255.27 2.33.841 3.197l.689-.454Zm-.705-2.743c0-1.584.544-2.803 1.616-3.706l-.531-.632c-1.279 1.077-1.91 2.539-1.91 4.338h.825Zm1.616-3.706c1.076-.907 2.639-1.389 4.746-1.389v-.825c-2.223 0-4.002.508-5.277 1.582l.531.632Zm4.746-1.389c1.239 0 2.358.092 3.361.272l.147-.812c-1.06-.19-2.23-.285-3.508-.285v.825Zm3.361.272c1.014.183 1.775.411 2.302.675l.369-.738c-.628-.314-1.475-.56-2.524-.749l-.147.812Zm2.096.172-.773 2.259.78.267.774-2.258-.781-.268Zm-.205 2.02c-.517-.247-1.254-.471-2.192-.68l-.179.805c.918.204 1.583.413 2.015.62l.356-.745Zm-2.19-.68c-.944-.214-2.007-.32-3.185-.32v.826c1.131 0 2.131.1 3.002.299l.183-.805Zm-3.185-.32c-1.416 0-2.555.322-3.341 1.036l.555.61c.576-.522 1.479-.82 2.786-.82v-.825Zm-3.335 1.032c-.76.667-1.162 1.488-1.162 2.444h.825c0-.694.28-1.296.881-1.825l-.544-.62Zm-1.162 2.444c0 .902.293 1.677.889 2.297l.595-.572c-.436-.453-.659-1.018-.659-1.725h-.825Zm.889 2.297c.548.57 1.22 1.078 2.012 1.527l.407-.718c-.735-.417-1.341-.878-1.824-1.38l-.595.571Zm2.023 1.533c.792.417 1.645.833 2.559 1.248l.341-.75c-.901-.41-1.74-.82-2.515-1.228l-.385.73Zm2.559 1.248c.883.402 1.694.873 2.433 1.412l.486-.666a14.61 14.61 0 0 0-2.578-1.497l-.341.751Zm2.443 1.42a6.885 6.885 0 0 1 1.841 1.839l.683-.462a7.723 7.723 0 0 0-2.058-2.059l-.466.681Zm1.841 1.839c.459.68.702 1.544.702 2.615h.825c0-1.197-.272-2.231-.844-3.077l-.683.462Zm.702 2.615c0 .879-.156 1.656-.459 2.338l.754.335c.356-.802.53-1.695.53-2.673h-.825Zm-.459 2.338a4.868 4.868 0 0 1-1.342 1.77l.53.632a5.696 5.696 0 0 0 1.566-2.067l-.754-.335Zm-1.342 1.77c-.593.497-1.317.886-2.181 1.16l.25.787c.952-.303 1.775-.74 2.461-1.315l-.53-.632Zm-2.181 1.16c-.859.274-1.847.414-2.968.414v.825c1.188 0 2.263-.148 3.218-.452l-.25-.786Zm-2.968.414c-1.529 0-2.771-.122-3.739-.36l-.196.802c1.054.258 2.369.383 3.935.383v-.825Zm-3.746-.361c-.996-.224-1.74-.472-2.252-.737l-.38.732c.602.312 1.425.58 2.451.81l.181-.805Zm-2.055-.227.866-2.32-.773-.288-.866 2.32.773.288Zm.276-2.105c.516.291 1.253.57 2.193.841l.229-.792c-.917-.265-1.583-.523-2.016-.767l-.406.718Zm2.201.844c.969.258 2.047.385 3.231.385v-.825c-1.126 0-2.131-.12-3.019-.358l-.212.798Zm3.231.385c.705 0 1.373-.064 2.002-.194l-.168-.808a9.045 9.045 0 0 1-1.834.177v.825Zm2.015-.197a5.2 5.2 0 0 0 1.679-.708l-.458-.686c-.386.257-.855.457-1.415.592l.194.802Zm1.69-.715a3.798 3.798 0 0 0 1.143-1.283l-.724-.395a2.978 2.978 0 0 1-.899 1.006l.48.672Zm1.136-1.27c.312-.528.459-1.14.459-1.82h-.825c0 .559-.12 1.02-.344 1.4l.71.42Zm23.351-10.853-.411-.04-.002.02v.02h.413Zm.309-3.249.411.04.043-.452h-.454v.412Zm-.155 0v-.412h-.28l-.103.26.383.152Zm-1.175 2.97.357.206.015-.026.011-.028-.383-.152Zm-5.631 9.777v.412h.238l.119-.206-.357-.206Zm-.773 0-.353.214.121.198h.232v-.412Zm-5.971-9.807-.386.146.013.035.02.033.353-.215Zm-1.114-2.94.386-.146-.101-.266h-.285v.412Zm-.155 0v-.412h-.472l.063.467.409-.055Zm.433 3.218h.413v-.028l-.004-.027-.409.055Zm0 14.572v.412h.413v-.413h-.413Zm-2.413 0h-.412v.412h.412v-.413Zm0-21.657v-.412h-.412v.412h.412Zm1.918 0 .352-.215-.12-.197h-.232v.412Zm6.776 11.076.38-.16-.012-.03-.016-.025-.352.215Zm1.021 2.413-.38.16.106.252h.274v-.412Zm.061 0v.413h.283l.102-.264-.385-.149Zm.96-2.475-.356-.209-.017.029-.012.03.385.15Zm6.465-11.014v-.412h-.236l-.119.203.355.21Zm2.011 0h.413v-.412h-.413v.412Zm0 21.657v.412h.413v-.413h-.413Zm-2.567 0h-.413v.412h.413v-.413Zm.41-14.502.31-3.248-.822-.079-.309 3.249.821.078Zm-.101-3.7h-.155v.825h.155v-.825Zm-.538.26-1.176 2.97.767.304 1.176-2.97-.767-.303Zm-1.15 2.917-5.63 9.776.714.411 5.631-9.776-.715-.411Zm-5.273 9.57h-.773v.824h.773v-.825Zm-.421.197-5.971-9.807-.705.429 5.971 9.807.705-.429Zm-5.938-9.739-1.113-2.939-.772.293 1.114 2.939.771-.293Zm-1.499-3.205h-.155v.825h.155v-.825Zm-.564.467.434 3.218.817-.11-.433-3.218-.818.11Zm.43 3.163v14.572h.825V32.466h-.825Zm.412 14.159h-2.413v.825h2.413v-.825Zm-2 .413V25.38h-.825v21.657h.825Zm-.413-21.244h1.918v-.825h-1.918v.825Zm1.566-.198 6.776 11.076.704-.43-6.776-11.076-.704.43Zm6.748 11.022 1.021 2.413.76-.322-1.021-2.413-.76.322Zm1.401 2.664h.061v-.824h-.061v.825Zm.446-.263.959-2.475-.769-.298-.959 2.475.769.298Zm.93-2.415 6.466-11.014-.711-.418-6.466 11.014.711.418Zm6.11-10.81h2.011v-.825h-2.011v.825Zm1.599-.413v21.657h.825V25.38h-.825Zm.412 21.244h-2.567v.825h2.567v-.825Zm-2.155.413V32.496h-.825v14.54h.825Zm17.717-6.002.387-.144-.1-.269h-.287v.413Zm-7.981 0v-.413h-.29l-.098.273.388.14Zm-2.166 6.002v.412h.29l.098-.273-.388-.14Zm-2.537 0-.386-.145-.208.557h.594v-.413Zm8.199-21.997v-.413h-.287l-.1.269.387.144Zm1.175 0 .386-.145-.1-.268h-.286v.413Zm8.23 21.997v.412h.594l-.208-.557-.386.145Zm-2.692 0-.387.143.1.269h.287v-.413Zm-9.374-8.23-.388-.141-.202.554h.59v-.413Zm6.373 0v.413h.59l-.203-.555-.387.142Zm-2.413-6.59-.402.095.006.024.009.023.387-.142Zm-.774-3.279.402-.095-.075-.318h-.327v.413Zm-.03 0v-.413h-.328l-.074.32.402.093Zm-.774 3.341.388.142.008-.024.006-.025-.402-.093Zm4.764 8.343h-7.981v.825h7.981v-.825Zm-8.369.273-2.166 6.002.776.28 2.166-6.002-.776-.28Zm-1.778 5.729h-2.537v.825h2.537v-.825Zm-2.15.556 8.198-21.996-.773-.288-8.198 21.996.773.288Zm7.812-21.728h1.175v-.825h-1.175v.825Zm.789-.267 8.229 21.996.773-.29-8.23-21.996-.772.29Zm8.616 21.439h-2.692v.825h2.692v-.825Zm-2.305.269-2.228-6.002-.773.287 2.227 6.002.774-.287Zm-9.761-7.673h6.373v-.825h-6.373v.825Zm6.76-.555-2.413-6.59-.774.284 2.413 6.59.774-.284Zm-2.399-6.542-.773-3.28-.803.19.773 3.28.803-.19Zm-1.175-3.598h-.03v.826h.03v-.826Zm-.432.32-.774 3.341.804.186.773-3.34-.803-.187Zm-.759 3.293-2.383 6.528.775.282 2.383-6.527-.775-.283Zm12.947-6.541-.075-.406-.338.062v.344h.413Zm2.691-.34-.033-.412.033.412Zm5.507.185-.098.4.002.001.096-.4Zm2.258 1.021-.245.331.005.004.24-.335Zm1.578 1.856.367-.188-.367.188Zm-.804 6.9-.309-.274.309.273Zm-3.527 2.103-.099-.4-.831.204.678.523.252-.327Zm1.485 1.145.349-.22-.039-.062-.058-.045-.252.327Zm5.383 8.57v.412h.746l-.397-.632-.349.22Zm-3.001 0-.347.222.121.19h.226v-.413Zm-5.971-9.344.348-.222-.101-.157-.184-.028-.063.407Zm-3.032-.464.063-.407-.475-.073v.48h.412Zm0 9.808v.412h.413v-.413h-.413Zm-2.567 0h-.413v.412h.413v-.413Zm3.898-19.646-.032-.411.032.411Zm-.774.062-.034-.411h-.003l.037.411Zm-.557.093-.113-.397-.299.086v.31h.412Zm0 7.982h-.412v.412h.412v-.412Zm5.94-1.052-.248-.33.248.33Zm.248-6.033-.284.3.284-.3Zm-8.681-2.44c.767-.142 1.65-.254 2.651-.335l-.067-.823a27.652 27.652 0 0 0-2.733.346l.149.811Zm2.65-.335a35.172 35.172 0 0 1 2.782-.123v-.825c-.858 0-1.808.042-2.848.125l.066.823Zm2.782-.123c.919 0 1.783.1 2.594.298l.196-.802a11.749 11.749 0 0 0-2.79-.32v.824Zm2.596.298c.819.195 1.519.514 2.109.951l.491-.662c-.689-.512-1.494-.873-2.409-1.091l-.191.802Zm2.114.955a4.707 4.707 0 0 1 1.451 1.71l.734-.377a5.54 5.54 0 0 0-1.704-2.003l-.481.67Zm1.451 1.71c.355.69.543 1.55.543 2.596h.825c0-1.142-.205-2.138-.634-2.973l-.734.377Zm.543 2.596c0 1.612-.441 2.88-1.289 3.841l.618.546c1.008-1.142 1.496-2.617 1.496-4.387h-.825Zm-1.289 3.841c-.87.986-1.971 1.645-3.317 1.977l.198.8c1.5-.37 2.751-1.113 3.737-2.23l-.618-.547Zm-3.47 2.704 1.485 1.145.504-.654-1.485-1.145-.504.654Zm1.388 1.037 5.383 8.57.698-.439-5.383-8.57-.698.44Zm5.732 7.938h-3.001v.825h3.001v-.825Zm-2.653.19-5.971-9.343-.695.444 5.971 9.344.695-.445Zm-6.256-9.528-3.032-.465-.125.816 3.032.464.125-.815Zm-3.507-.057v9.808h.825V37.23h-.825Zm.412 9.395h-2.567v.825h2.567v-.825Zm-2.155.413v-21.44h-.825v21.44h.825Zm5.156-20.09H179.393v.826H180.228v-.825Zm-.835 0c-.299 0-.588.011-.867.033l.063.822c.257-.02.525-.03.804-.03v-.824Zm-.867.033c-.269.02-.528.041-.776.062l.068.822.771-.062-.063-.822Zm-.779.062a3.497 3.497 0 0 0-.633.107l.227.794c.11-.032.268-.06.481-.08l-.075-.82Zm-.932.504v7.982h.825v-7.982h-.825Zm.412 8.394h2.413v-.825h-2.413v.825Zm2.413 0c1.493 0 2.761-.369 3.776-1.135l-.497-.658c-.842.636-1.925.968-3.279.968v.825Zm3.776-1.135c1.059-.8 1.556-2.033 1.556-3.608h-.825c0 1.395-.431 2.347-1.228 2.95l.497.658Zm1.556-3.608c0-1.22-.423-2.249-1.274-3.054l-.567.6c.676.639 1.016 1.445 1.016 2.454h.825Zm-1.274-3.054c-.86-.813-2.035-1.195-3.47-1.195v.825c1.288 0 2.237.34 2.903.97l.567-.6Zm21.471-.473v.412h.413v-.412h-.413Zm-6.744 0v-.413h-.412v.413h.412Zm0 19.367v.412h.413v-.413h-.413Zm-2.568 0h-.412v.412h.412v-.413Zm0-19.367h.413v-.413h-.413v.413Zm-6.744 0h-.413v.412h.413v-.412Zm0-2.29v-.412h-.413v.412h.413Zm16.056 0h.413v-.412h-.413v.412Zm0 1.877h-6.744v.825h6.744v-.825Zm-7.156.413v19.367h.825V27.67h-.825Zm.412 18.954h-2.568v.825h2.568v-.825Zm-2.155.413V27.67h-.825v19.367h.825Zm-.413-19.78h-6.744v.825h6.744v-.825Zm-6.332.413v-2.29h-.825v2.29h.825Zm-.412-1.877h16.056v-.825h-16.056v.825Zm15.644-.413v2.29h.825v-2.29h-.825Zm-81.801 68.86v-.413h-.413v.412h.413Zm7.27 0h.413v-.413h-.413v.412Zm0 9.528.248.33.165-.124v-.206h-.413Zm-1.206.681-.165-.379-.006.003.171.376Zm-1.485.526-.108-.399-.004.001.112.398Zm-1.64.309-.044-.41-.008.001-.008.001.06.408Zm-5.445-.526-.151.384.006.002.145-.386Zm-3.001-2.042-.305.278.003.003.302-.281Zm-1.98-3.496-.391.13v.002l.391-.132Zm.155-10.147.382.155-.382-.155Zm2.258-3.465.285.298.004-.003-.289-.295Zm3.125-1.98.139.388-.139-.388Zm6.528-.403-.073.407.01.001.063-.407Zm2.042.526.396.115.102-.357-.343-.14-.155.382Zm-.65 2.259-.178.372.439.21.135-.468-.396-.114Zm-6.837-.248.133.39.005-.001-.138-.389Zm-2.29 1.485-.296-.287.296.287Zm-1.67 2.754-.386-.147.386.147Zm-.124 8.167.393-.123-.393.123Zm1.454 2.785-.317.264.008.009.309-.273Zm2.289 1.639-.159.381.008.003.151-.384Zm6.281-.247.2.361.212-.118v-.243h-.412Zm0-6.033h.412v-.365l-.362-.044-.05.41Zm-5.074-.619h-.413v.366l.363.044.05-.41Zm0-1.041h7.27v-.825h-7.27v.825Zm6.858-.413v9.529h.825V94.24h-.825Zm.165 9.199a5.568 5.568 0 0 1-1.124.632l.329.757a6.383 6.383 0 0 0 1.29-.729l-.495-.66Zm-1.13.635a9.208 9.208 0 0 1-1.422.503l.215.797c.555-.15 1.072-.332 1.548-.549l-.341-.751Zm-1.426.504a9.608 9.608 0 0 1-1.572.297l.088.82a10.466 10.466 0 0 0 1.707-.322l-.223-.795Zm-1.588.299c-.538.08-1.065.119-1.58.119v.825c.558 0 1.125-.043 1.7-.128l-.12-.816Zm-1.58.119c-1.338 0-2.557-.209-3.66-.623l-.29.772c1.207.453 2.525.676 3.95.676v-.825Zm-3.654-.621a7.681 7.681 0 0 1-2.85-1.939l-.604.562a8.511 8.511 0 0 0 3.152 2.145l.302-.768Zm-2.847-1.936c-.801-.879-1.435-1.992-1.894-3.35l-.782.264c.49 1.447 1.176 2.665 2.066 3.642l.61-.556Zm-1.894-3.348c-.457-1.371-.69-2.996-.69-4.882h-.825c0 1.951.241 3.668.733 5.143l.782-.261Zm-.69-4.882c0-1.962.284-3.619.836-4.98l-.764-.31c-.603 1.484-.897 3.252-.897 5.29h.825Zm.836-4.98c.56-1.38 1.283-2.483 2.161-3.322l-.57-.596c-.978.934-1.76 2.14-2.355 3.608l.764.31Zm2.165-3.325c.888-.869 1.879-1.495 2.975-1.887l-.278-.777c-1.214.434-2.306 1.127-3.274 2.074l.577.59Zm2.975-1.887a9.828 9.828 0 0 1 3.326-.594v-.826c-1.205 0-2.407.216-3.604.643l.278.777Zm3.326-.594c1.224 0 2.218.071 2.99.21l.146-.813c-.838-.15-1.885-.222-3.136-.222v.825Zm3 .211c.783.12 1.43.29 1.949.5l.311-.763c-.595-.243-1.309-.425-2.135-.552l-.125.815Zm1.708.004-.65 2.259.793.228.65-2.258-.793-.229Zm-.075 2c-1.071-.512-2.555-.751-4.417-.751v.825c1.811 0 3.152.235 4.061.67l.356-.743Zm-4.417-.751c-.916 0-1.829.164-2.737.488l.277.777a7.272 7.272 0 0 1 2.46-.44v-.825Zm-2.732.486c-.912.312-1.73.845-2.452 1.588l.592.575c.64-.66 1.349-1.116 2.127-1.382l-.267-.781Zm-2.452 1.588c-.728.75-1.311 1.72-1.76 2.894l.771.294c.418-1.094.948-1.96 1.581-2.613l-.592-.575Zm-1.76 2.894c-.456 1.195-.677 2.651-.677 4.354h.825c0-1.638.213-2.987.623-4.06l-.771-.294Zm-.677 4.354c0 1.556.179 2.92.545 4.084l.787-.248c-.334-1.063-.507-2.34-.507-3.836h-.825Zm.545 4.084c.364 1.155.872 2.133 1.531 2.925l.634-.528c-.578-.694-1.04-1.572-1.378-2.644l-.787.247Zm1.539 2.934a6.66 6.66 0 0 0 2.439 1.747l.319-.761a5.813 5.813 0 0 1-2.14-1.533l-.618.547Zm2.447 1.75c.94.372 1.961.555 3.059.555v-.825c-1.005 0-1.922-.168-2.756-.497l-.303.767Zm3.059.555c1.374 0 2.57-.268 3.573-.825l-.401-.722c-.853.475-1.905.722-3.172.722v.825Zm3.785-1.186v-6.033h-.825v6.033h.825Zm-.362-6.442-5.074-.62-.1.82 5.074.619.1-.82Zm-4.712-.21V94.24h-.825v1.454h.825Zm11.23-12.096-.075-.406-.338.062v.344h.413Zm2.691-.34-.032-.412h-.001l.033.411Zm5.507.185-.097.4.002.001.095-.4Zm2.259 1.021-.246.331.005.004.241-.335Zm1.578 1.856.366-.188-.366.188Zm-.805 6.9-.309-.274.309.273Zm-3.527 2.103-.098-.4-.831.204.677.523.252-.327Zm1.485 1.145.35-.22-.04-.062-.058-.045-.252.327Zm5.383 8.569v.413h.747l-.397-.632-.35.219Zm-3.001 0-.347.223.122.19h.225v-.413Zm-5.97-9.343.347-.222-.1-.157-.185-.028-.062.407Zm-3.032-.464.062-.407-.475-.073v.48h.413Zm0 9.807v.413h.412v-.413h-.412Zm-2.568 0h-.413v.413h.413v-.413Zm3.898-19.645-.032-.411.032.411Zm-.773.062-.035-.411h-.003l.038.411Zm-.557.093-.114-.397-.299.086v.31h.413Zm0 7.982h-.413v.412h.413v-.412Zm5.94-1.052-.249-.33.249.33Zm.247-6.033-.283.3.283-.3Zm-8.68-2.44a26.83 26.83 0 0 1 2.65-.335l-.067-.823a27.69 27.69 0 0 0-2.733.346l.15.812Zm2.649-.335a35.176 35.176 0 0 1 2.783-.123v-.825c-.859 0-1.809.042-2.848.125l.065.823Zm2.783-.123c.918 0 1.783.1 2.594.298l.195-.802a11.74 11.74 0 0 0-2.789-.32v.824Zm2.596.298c.818.195 1.518.514 2.108.951l.492-.662c-.69-.512-1.495-.873-2.409-1.091l-.191.802Zm2.113.955a4.72 4.72 0 0 1 1.452 1.71l.733-.377a5.53 5.53 0 0 0-1.704-2.003l-.481.67Zm1.452 1.71c.354.69.542 1.55.542 2.596h.825c0-1.142-.205-2.138-.634-2.973l-.733.377Zm.542 2.596c0 1.612-.441 2.88-1.289 3.841l.618.546c1.008-1.142 1.496-2.617 1.496-4.387h-.825Zm-1.289 3.841c-.87.986-1.971 1.645-3.316 1.977l.197.8c1.501-.37 2.751-1.113 3.737-2.23l-.618-.547Zm-3.47 2.704 1.485 1.144.504-.653-1.485-1.145-.504.654Zm1.388 1.037 5.383 8.57.699-.439-5.383-8.57-.699.44Zm5.732 7.938h-3.001v.825h3.001v-.825Zm-2.653.19-5.971-9.343-.695.445 5.971 9.343.695-.445Zm-6.256-9.528-3.032-.465-.125.816 3.032.464.125-.815Zm-3.507-.057v9.807h.825V95.23h-.825Zm.413 9.395h-2.568v.825h2.568v-.825Zm-2.156.412v-21.44h-.825v21.44h.825Zm5.157-20.088H139.331v.825H140.167v-.825Zm-.836 0c-.298 0-.587.01-.867.032l.064.822c.256-.02.524-.03.803-.03v-.824Zm-.867.032c-.269.02-.527.041-.776.062l.069.822.771-.062-.064-.822Zm-.779.062a3.512 3.512 0 0 0-.633.107l.227.793c.11-.031.268-.059.481-.078l-.075-.822Zm-.932.504v7.982h.825v-7.982h-.825Zm.413 8.394h2.413v-.825h-2.413v.825Zm2.413 0c1.492 0 2.761-.368 3.775-1.135l-.497-.658c-.842.636-1.924.968-3.278.968v.825Zm3.775-1.135c1.059-.8 1.556-2.034 1.556-3.608h-.825c0 1.395-.431 2.347-1.228 2.95l.497.658Zm1.556-3.608c0-1.22-.422-2.249-1.273-3.054l-.567.6c.675.639 1.015 1.445 1.015 2.454h.825Zm-1.273-3.054c-.861-.814-2.036-1.195-3.47-1.195v.825c1.288 0 2.237.34 2.903.97l.567-.6Zm9.393-.226.323.257.001-.002-.324-.255Zm10.488-2.104.179-.371-.179.371Zm2.753 2.29-.333.243.006.008.327-.251Zm1.64 3.527-.4.101v.002l.4-.103Zm-1.795 12.901-.322-.258v.001l.322.257Zm-10.487 2.072-.182.371.003.001.179-.372Zm-2.754-2.258-.333.243.006.008.327-.251Zm-1.609-3.527-.399.102.399-.102Zm2.537-1.207-.403.086.001.007.402-.093Zm1.114 2.847-.354.212.003.004.351-.216Zm1.887 1.949-.224.346.011.007.213-.353Zm7.271-1.454.328.249.002-.003-.33-.246Zm1.268-10.117-.404.084.002.009.402-.093Zm-1.114-2.846-.354.212.007.01.347-.222Zm-1.918-1.95-.224.347.01.007.214-.353Zm-7.239 1.455-.331-.247.331.247Zm-3.919 6.713c0-3.558.753-6.216 2.2-8.034l-.646-.514c-1.606 2.019-2.379 4.888-2.379 8.548h.825Zm2.201-8.036c1.436-1.824 3.484-2.75 6.204-2.75v-.826c-2.932 0-5.236 1.013-6.852 3.066l.648.51Zm6.204-2.75c1.478 0 2.734.26 3.781.763l.358-.743c-1.182-.569-2.565-.846-4.139-.846v.826Zm3.781.763a6.834 6.834 0 0 1 2.599 2.16l.666-.485a7.653 7.653 0 0 0-2.907-2.418l-.358.743Zm2.605 2.169c.703.918 1.228 2.04 1.567 3.377l.8-.203c-.362-1.427-.931-2.655-1.712-3.676l-.655.502Zm1.567 3.379c.341 1.321.513 2.812.513 4.475h.825c0-1.719-.178-3.28-.539-4.681l-.799.206Zm.513 4.475c0 3.557-.763 6.226-2.23 8.065l.645.515c1.626-2.039 2.41-4.918 2.41-8.58h-.825Zm-2.23 8.066c-1.435 1.803-3.493 2.721-6.236 2.721v.825c2.949 0 5.264-1 6.881-3.033l-.645-.513Zm-6.236 2.721c-1.457 0-2.703-.259-3.75-.763l-.358.743c1.18.568 2.553.845 4.108.845v-.825Zm-3.748-.762a7.274 7.274 0 0 1-2.607-2.139l-.655.502a8.101 8.101 0 0 0 2.899 2.378l.363-.741Zm-2.602-2.131c-.687-.942-1.203-2.069-1.542-3.387l-.799.206c.362 1.404.918 2.629 1.675 3.667l.666-.486Zm-1.542-3.385c-.341-1.344-.513-2.846-.513-4.509h-.825c0 1.72.178 3.291.539 4.712l.799-.203Zm1.384-4.509c0 1.223.116 2.386.35 3.489l.807-.17a15.963 15.963 0 0 1-.332-3.319h-.825Zm.351 3.496c.256 1.109.642 2.099 1.162 2.966l.708-.425c-.47-.783-.827-1.69-1.066-2.726l-.804.185Zm1.165 2.97a6.51 6.51 0 0 0 2.014 2.079l.449-.692a5.685 5.685 0 0 1-1.761-1.819l-.702.432Zm2.025 2.086c.857.519 1.851.771 2.967.771v-.825c-.988 0-1.83-.222-2.54-.652l-.427.706Zm2.967.771c2.038 0 3.669-.776 4.845-2.329l-.657-.498c-1.01 1.334-2.39 2.002-4.188 2.002v.825Zm4.847-2.332c1.171-1.569 1.722-3.923 1.722-6.99h-.825c0 2.996-.543 5.137-1.558 6.497l.661.493Zm1.722-6.99c0-1.205-.127-2.36-.382-3.466l-.804.186c.24 1.04.361 2.133.361 3.28h.825Zm-.38-3.457c-.236-1.134-.624-2.131-1.171-2.985l-.694.445c.484.756.839 1.656 1.057 2.708l.808-.168Zm-1.164-2.974a6.016 6.016 0 0 0-2.058-2.09l-.428.706a5.184 5.184 0 0 1 1.778 1.808l.708-.424Zm-2.047-2.083c-.842-.546-1.841-.81-2.978-.81v.826c1.007 0 1.844.232 2.529.676l.449-.692Zm-2.978-.81c-2.022 0-3.642.79-4.817 2.363l.661.494c1.012-1.356 2.382-2.031 4.156-2.031v-.825Zm-4.817 2.364c-1.151 1.549-1.691 3.894-1.691 6.96h.825c0-2.999.534-5.13 1.528-6.468l-.662-.492Zm30.482-3.869v-.412h-.412v.412h.412Zm2.475 0h.413v-.412h-.413v.412Zm-.526 17.82-.387-.143-.002.008.389.135Zm-1.454 2.351.287.297-.287-.297Zm-2.258 1.331-.128-.392.128.392Zm-8.725-1.3-.274.309.274-.309Zm-1.949-20.202v-.412h-.412v.412h.412Zm2.568 0h.413v-.412h-.413v.412Zm.31 16.52-.399.109.004.012.395-.12Zm.99 1.826-.305.278.006.007.299-.285Zm1.608.99-.126.393.003.001.123-.394Zm5.878-1.052.323.257.003-.003-.326-.254Zm1.083-17.871h2.475v-.825h-2.475v.825Zm2.063-.413V97.83h.825V83.381h-.825Zm0 14.448c0 1.264-.171 2.337-.501 3.229l.774.286c.372-1.005.552-2.18.552-3.515h-.825Zm-.503 3.237c-.312.895-.764 1.622-1.352 2.19l.574.593c.691-.669 1.208-1.511 1.557-2.512l-.779-.271Zm-1.351 2.19c-.57.551-1.268.964-2.1 1.235l.255.784c.942-.306 1.75-.781 2.418-1.426l-.573-.593Zm-2.1 1.235c-.84.273-1.776.412-2.811.412v.825c1.109 0 2.133-.149 3.066-.453l-.255-.784Zm-2.811.412c-2.503 0-4.316-.566-5.512-1.628l-.548.617c1.404 1.247 3.448 1.836 6.06 1.836v-.825Zm-5.512-1.628c-1.183-1.052-1.81-2.674-1.81-4.951h-.825c0 2.426.672 4.31 2.087 5.568l.548-.617Zm-1.81-4.951V83.381h-.825v14.943h.825Zm-.413-14.53h2.568v-.825h-2.568v.825Zm2.156-.413v13.737h.825V83.38h-.825Zm0 13.737c0 1.116.105 2.083.323 2.891l.797-.215c-.194-.717-.295-1.607-.295-2.676h-.825Zm.327 2.904c.241.789.598 1.455 1.08 1.983l.609-.556c-.384-.421-.687-.972-.9-1.668l-.789.241Zm1.086 1.99a4.204 4.204 0 0 0 1.781 1.098l.253-.785a3.373 3.373 0 0 1-1.437-.883l-.597.57Zm1.784 1.099c.709.221 1.515.328 2.413.328v-.825c-.835 0-1.555-.099-2.167-.291l-.246.788Zm2.413.328c1.738 0 3.081-.473 3.911-1.517l-.645-.513c-.614.771-1.664 1.205-3.266 1.205v.825Zm3.914-1.52c.808-1.039 1.17-2.67 1.17-4.801h-.825c0 2.076-.36 3.476-.996 4.294l.651.507Zm1.17-4.801V83.38h-.825v13.737h.825Zm7.332-13.52-.095-.402-.317.076v.326h.412Zm2.537-.371-.028-.412.028.412Zm5.569.185-.078.405h.002l.076-.405Zm2.691 1.021-.216.351.216-.35Zm1.949 2.042-.358.205.004.006.354-.211Zm.062 6.651.366.192-.366-.192Zm-1.887 2.228.239.336.006-.004-.245-.332Zm-7.085 1.578-.034.41.017.002h.017v-.412Zm-.742-.062-.034.411.034-.411Zm-.526-.062.081-.404-.493-.1v.504h.412Zm0 8.229v.413h.413v-.413h-.413Zm-2.568 0h-.412v.413h.412v-.413Zm3.744-19.645-.018-.412.018.412Zm-1.176.155-.113-.397-.299.086v.31h.412Zm0 8.972h-.412v.279l.259.104.153-.383Zm.495.093-.037.41.018.002h.019v-.412Zm.712.03-.035.412.017.001h.018v-.413Zm3.279-.185.074.406.009-.002-.083-.404Zm1.887-.743-.22-.349.22.35Zm1.33-1.485-.361-.198-.005.01.366.188Zm.031-4.547-.363.194.004.008.005.008.354-.21Zm-1.268-1.362-.232.341.008.006.008.005.216-.352Zm-1.763-.742-.089.403.089-.403Zm-7.176-1.579c.759-.18 1.582-.3 2.47-.36l-.056-.824c-.927.063-1.795.19-2.604.381l.19.803Zm2.47-.36a39.132 39.132 0 0 1 2.664-.093v-.825c-.897 0-1.803.031-2.72.094l.056.823Zm2.664-.093c.921 0 1.854.09 2.799.271l.155-.81a15.677 15.677 0 0 0-2.954-.286v.825Zm2.801.272c.944.177 1.793.5 2.551.966l.433-.702a8.265 8.265 0 0 0-2.832-1.075l-.152.81Zm2.551.966a5.204 5.204 0 0 1 1.807 1.896l.717-.41c-.528-.922-1.225-1.655-2.091-2.188l-.433.702Zm1.811 1.902c.467.785.715 1.81.715 3.1h.825c0-1.392-.267-2.574-.831-3.522l-.709.422Zm.715 3.1c0 1.271-.228 2.316-.664 3.15l.731.382c.513-.981.758-2.165.758-3.533h-.825Zm-.664 3.15a5.992 5.992 0 0 1-1.767 2.086l.49.664a6.817 6.817 0 0 0 2.008-2.368l-.731-.383Zm-1.761 2.082a7.381 7.381 0 0 1-2.551 1.142l.197.801a8.205 8.205 0 0 0 2.832-1.27l-.478-.673Zm-2.551 1.142c-.977.24-1.986.36-3.026.36v.824c1.104 0 2.179-.127 3.223-.383l-.197-.801Zm-3.026.36H197.547v.824H198.073v-.825Zm-.526 0H196.804v.824H197.547v-.825Zm-.708 0-.743-.061-.068.822.742.062.069-.822Zm-.743-.061a5.01 5.01 0 0 1-.479-.055l-.162.809c.129.025.325.047.573.068l.068-.822Zm-.972.35v8.228h.825v-8.229h-.825Zm.412 7.816h-2.568v.825h2.568v-.825Zm-2.155.412v-21.44h-.825v21.44h.825Zm4.878-20.088c-.542 0-1.063.01-1.565.031l.035.824c.489-.02.999-.03 1.53-.03v-.825Zm-1.565.031c-.509.021-.938.075-1.271.17l.226.793c.244-.07.599-.119 1.08-.139l-.035-.824Zm-1.57.567v8.972h.825v-8.972h-.825Zm.259 9.355c.161.064.377.1.611.12l.074-.821a1.6 1.6 0 0 1-.379-.065l-.306.766Zm.648.122c.214 0 .44.01.677.03l.069-.823a8.998 8.998 0 0 0-.746-.032v.825Zm.712.031H197.454v-.825H196.743v.825Zm.711 0H197.949v-.825H197.454v.825Zm.495 0c.726 0 1.441-.064 2.147-.192l-.148-.812c-.656.12-1.322.179-1.999.179v.825Zm2.156-.194a6.05 6.05 0 0 0 2.024-.798l-.44-.698a5.226 5.226 0 0 1-1.75.688l.166.808Zm2.024-.798c.625-.393 1.116-.946 1.477-1.645l-.733-.378c-.3.58-.695 1.017-1.184 1.325l.44.698Zm1.472-1.635c.394-.718.577-1.607.577-2.643h-.825c0 .945-.168 1.685-.475 2.246l.723.397Zm.577-2.643c0-.897-.175-1.677-.553-2.314l-.709.42c.282.477.437 1.1.437 1.894h.825Zm-.544-2.298a3.92 3.92 0 0 0-1.416-1.518l-.432.703c.471.29.844.688 1.121 1.204l.727-.39Zm-1.4-1.508a5.416 5.416 0 0 0-1.907-.804l-.177.806a4.594 4.594 0 0 1 1.62.68l.464-.682Zm-1.907-.804a9.663 9.663 0 0 0-2.068-.226v.825c.629 0 1.26.069 1.891.207l.177-.806Z" fill="#77A6AC"/><path d="m132.299 61.46.309-3.25h-.154l-1.176 2.97-5.631 9.777h-.773l-5.971-9.807-1.114-2.94h-.154l.433 3.218V76h-2.413V54.344h1.918l6.775 11.075 1.021 2.413h.062l.959-2.474 6.466-11.014h2.011V76h-2.568V61.46Zm7.828-7.116h11.787v2.29h-9.219v7.084h8.445v2.29h-8.445v7.703h9.374V76h-11.942V54.344Zm16.586 0c.392-.062.825-.103 1.3-.124.495-.041 1-.062 1.516-.062a40.34 40.34 0 0 1 1.547-.03c.515-.021.99-.032 1.423-.032 1.732 0 3.227.268 4.486.805 1.278.536 2.33 1.289 3.155 2.258.825.949 1.434 2.093 1.826 3.434.412 1.34.618 2.815.618 4.424a15.24 15.24 0 0 1-.588 4.239 10.126 10.126 0 0 1-1.794 3.588c-.825 1.032-1.897 1.867-3.217 2.506-1.32.62-2.919.928-4.796.928-.33 0-.763-.01-1.299-.03-.516 0-1.052-.021-1.609-.062-.557-.021-1.072-.042-1.547-.062-.474-.02-.814-.052-1.021-.093V54.344Zm5.848 2.042h-.898c-.309 0-.618.01-.928.03-.309.021-.598.042-.866.062-.248.021-.443.042-.588.062v17.325c.103.02.299.042.588.062.289 0 .588.01.897.031.31 0 .609.01.897.031h.588c1.444 0 2.65-.247 3.62-.742.99-.495 1.774-1.155 2.351-1.98a8.08 8.08 0 0 0 1.269-2.878c.247-1.093.371-2.217.371-3.372 0-1.01-.114-2.021-.341-3.032a7.976 7.976 0 0 0-1.175-2.784c-.557-.825-1.31-1.495-2.259-2.011-.928-.536-2.103-.804-3.526-.804Zm14.982-2.042h2.568V76h-2.568V54.344Zm22.276 20.759c-.619.474-1.403.804-2.351.99-.949.185-1.96.278-3.032.278-1.3 0-2.516-.216-3.651-.65a8.164 8.164 0 0 1-2.97-2.041c-.845-.908-1.516-2.063-2.011-3.465-.495-1.423-.742-3.104-.742-5.043 0-2.021.268-3.733.804-5.136.557-1.423 1.279-2.578 2.166-3.465.907-.907 1.918-1.567 3.032-1.98a9.724 9.724 0 0 1 3.403-.619c1.237 0 2.248.073 3.032.217.783.124 1.454.3 2.011.526l-.619 2.258c-.99-.474-2.403-.711-4.239-.711-.845 0-1.681.155-2.506.464-.825.31-1.567.815-2.227 1.516-.639.701-1.155 1.619-1.547 2.753-.392 1.135-.588 2.527-.588 4.177 0 1.485.186 2.784.557 3.898.371 1.114.877 2.042 1.516 2.784.66.743 1.423 1.3 2.289 1.671a7.378 7.378 0 0 0 2.878.557c.928 0 1.732-.093 2.413-.279.701-.185 1.289-.422 1.763-.711l.619 2.01Zm13.24-5.105h-7.982L202.912 76h-2.537l8.198-21.997h1.176L217.978 76h-2.691l-2.228-6.002Zm-7.146-2.227h6.373l-2.413-6.59-.774-3.28h-.031l-.773 3.342-2.382 6.528ZM233.662 76h-12.808V54.344h2.568V73.71h10.24V76Z" fill="#9DD0C9"/><path d="m132.299 61.46-.411-.04-.001.02v.02h.412Zm.309-3.25.411.04.043-.452h-.454v.413Zm-.154 0v-.412h-.281l-.103.261.384.152Zm-1.176 2.97.358.207.015-.026.011-.028-.384-.152Zm-5.631 9.777v.413h.239l.119-.207-.358-.206Zm-.773 0-.352.215.12.198h.232v-.413Zm-5.971-9.807-.386.146.014.036.02.032.352-.214Zm-1.114-2.94.386-.145-.101-.267h-.285v.413Zm-.154 0v-.412h-.472l.063.468.409-.055Zm.433 3.218h.412v-.027l-.003-.028-.409.055Zm0 14.572v.412h.412V76h-.412Zm-2.413 0h-.413v.412h.413V76Zm0-21.656v-.413h-.413v.413h.413Zm1.918 0 .352-.215-.121-.198h-.231v.413Zm6.775 11.075.38-.16-.012-.029-.016-.026-.352.215Zm1.021 2.413-.38.161.107.252h.273v-.413Zm.062 0v.413h.282l.103-.264-.385-.148Zm.959-2.474-.356-.21-.017.03-.012.03.385.15Zm6.466-11.014v-.413h-.236l-.12.204.356.209Zm2.011 0h.412v-.413h-.412v.413Zm0 21.656v.412h.412V76h-.412Zm-2.568 0h-.412v.412h.412V76Zm.411-14.502.309-3.248-.821-.078-.31 3.248.822.078Zm-.102-3.7h-.154v.825h.154v-.825Zm-.538.261-1.175 2.97.767.304 1.175-2.97-.767-.304Zm-1.149 2.916-5.631 9.776.715.412 5.631-9.776-.715-.412Zm-5.274 9.57h-.773v.825h.773v-.825Zm-.421.198-5.971-9.807-.704.428 5.971 9.808.704-.43Zm-5.937-9.74-1.114-2.938-.771.292 1.113 2.94.772-.293Zm-1.5-3.205h-.154v.825h.154v-.825Zm-.563.468.433 3.218.818-.11-.434-3.218-.817.11Zm.429 3.162V76h.825V61.428h-.825Zm.413 14.16h-2.413v.825h2.413v-.825Zm-2.001.412V54.344h-.825V76h.825Zm-.412-21.244h1.918v-.825h-1.918v.825Zm1.566-.197 6.775 11.076.704-.43-6.775-11.076-.704.43Zm6.747 11.021 1.021 2.413.76-.321-1.021-2.413-.76.321Zm1.401 2.665h.062v-.825h-.062v.825Zm.447-.264.959-2.474-.77-.299-.959 2.475.77.298Zm.93-2.415 6.466-11.013-.712-.418-6.466 11.014.712.417Zm6.11-10.81h2.011v-.825h-2.011v.825Zm1.598-.412V76h.825V54.344h-.825Zm.413 21.244h-2.568v.825h2.568v-.825Zm-2.155.412V61.46h-.825V76h.825Zm7.415-21.656v-.413h-.413v.413h.413Zm11.787 0h.412v-.413h-.412v.413Zm0 2.29v.412h.412v-.413h-.412Zm-9.219 0v-.413h-.413v.412h.413Zm0 7.084h-.413v.412h.413v-.412Zm8.445 0h.413v-.413h-.413v.413Zm0 2.29v.412h.413v-.413h-.413Zm-8.445 0v-.413h-.413v.412h.413Zm0 7.703h-.413v.412h.413v-.412Zm9.374 0h.412v-.413h-.412v.413Zm0 2.289v.412h.412V76h-.412Zm-11.942 0h-.413v.412h.413V76Zm0-21.244h11.787v-.825h-11.787v.825Zm11.374-.412v2.29h.825v-2.29h-.825Zm.413 1.877h-9.219v.825h9.219v-.825Zm-9.632.412v7.085h.825v-7.085h-.825Zm.413 7.497h8.445v-.825h-8.445v.825Zm8.033-.412v2.29h.825v-2.29h-.825Zm.412 1.877h-8.445v.825h8.445v-.825Zm-8.858.412v7.704h.825v-7.704h-.825Zm.413 8.116h9.374v-.825h-9.374v.825Zm8.961-.412V76h.825v-2.29h-.825Zm.413 1.877h-11.942v.825h11.942v-.825Zm-11.53.412V54.344h-.825V76h.825Zm16.174-21.656-.064-.408-.348.055v.353h.412Zm1.3-.124.018.412h.016l-.034-.412Zm1.516-.062v.413h.016l-.016-.413Zm1.547-.03v.412h.016l-.016-.413Zm5.909.773-.162.38h.002l.16-.38Zm3.155 2.258-.314.267.003.004.311-.27Zm1.826 3.434-.396.116.001.005.395-.12Zm.03 8.663-.396-.115-.001.004.397.11Zm-1.794 3.588.322.258.003-.003-.325-.255Zm-3.217 2.506.175.374.004-.002-.179-.372Zm-6.095.898.016-.413h-.016v.413Zm-1.609-.062.031-.412h-.016l-.015.412Zm-1.547-.062.018-.412-.018.412Zm-1.021-.093h-.412v.338l.331.066.081-.404Zm3.156-19.553-.032-.41h-.002l.034.41Zm-.588.062-.058-.408-.354.05v.358h.412Zm0 17.325h-.412v.339l.331.066.081-.405Zm.588.062-.029.412H159.869v-.412Zm.897.031-.027.412h.027v-.412Zm.897.031-.029.411.015.002h.014v-.413Zm4.208-.742-.185-.37-.003.002.188.368Zm2.351-1.98-.337-.239-.001.002.338.237Zm1.269-2.878.401.093.001-.001-.402-.092Zm.03-6.404-.402.089v.002l.402-.09Zm-1.175-2.784.342-.23-.342.23Zm-2.259-2.011-.206.357.009.005.197-.362Zm-9.309-2.439c.374-.059.791-.099 1.253-.119l-.036-.824a12.03 12.03 0 0 0-1.346.128l.129.815Zm1.269-.12c.483-.04.977-.06 1.482-.06v-.825c-.527 0-1.044.02-1.551.063l.069.822Zm1.498-.06c.531-.021 1.041-.031 1.531-.031v-.825c-.501 0-1.022.01-1.563.03l.032.825Zm1.547-.032c.511-.02.98-.03 1.407-.03v-.825c-.44 0-.92.01-1.44.031l.033.824Zm1.407-.03c1.691 0 3.129.262 4.324.771l.323-.759c-1.321-.563-2.874-.837-4.647-.837v.825Zm4.326.772c1.225.514 2.222 1.23 3.001 2.145l.628-.534c-.87-1.023-1.977-1.813-3.31-2.372l-.319.761Zm3.004 2.149c.782.899 1.364 1.989 1.741 3.279l.791-.232c-.406-1.391-1.041-2.59-1.91-3.589l-.622.542Zm1.742 3.284c.399 1.297.601 2.73.601 4.303h.825c0-1.644-.211-3.16-.637-4.545l-.789.242Zm.601 4.303c0 1.427-.191 2.802-.572 4.124l.793.229c.403-1.4.604-2.851.604-4.353h-.825Zm-.573 4.129a9.712 9.712 0 0 1-1.721 3.444l.649.509a10.537 10.537 0 0 0 1.867-3.733l-.795-.22Zm-1.719 3.44c-.783.979-1.804 1.778-3.075 2.393l.359.743c1.37-.664 2.493-1.536 3.36-2.62l-.644-.515Zm-3.07 2.39c-1.252.588-2.788.89-4.621.89v.825c1.921 0 3.582-.317 4.971-.967l-.35-.747Zm-4.621.89c-.322 0-.749-.01-1.283-.03l-.032.824c.539.02.978.03 1.315.03v-.824Zm-1.299-.031c-.505 0-1.031-.02-1.578-.06l-.061.822c.566.042 1.112.063 1.639.063v-.825Zm-1.594-.062c-.556-.02-1.07-.04-1.544-.061l-.036.824c.476.02.992.041 1.55.062l.03-.825Zm-1.544-.061c-.473-.02-.785-.051-.958-.086l-.162.81c.24.047.608.08 1.084.1l.036-.824Zm-.626.319V54.344h-.825V76.03h.825Zm5.435-20.058H161.663v.825H162.561v-.825Zm-.898 0c-.318 0-.637.01-.955.032l.055.823c.3-.02.6-.03.9-.03v-.825Zm-.955.032c-.311.02-.601.041-.871.062l.064.823c.266-.02.553-.041.862-.062l-.055-.823Zm-.873.062c-.251.021-.456.043-.612.065l.116.817c.133-.02.32-.04.564-.06l-.068-.822Zm-.966.473v17.325h.825V56.54h-.825Zm.331 17.73c.133.026.354.048.64.069l.058-.823a5.454 5.454 0 0 1-.536-.055l-.162.809Zm.669.07c.279 0 .569.01.87.03l.055-.824a13.906 13.906 0 0 0-.925-.031v.825Zm.897.03c.3 0 .59.01.868.03l.059-.822a12.991 12.991 0 0 0-.927-.032v.825Zm.897.032H162.251v-.825H161.663v.825Zm.588 0c1.489 0 2.764-.255 3.807-.788l-.375-.735c-.895.457-2.033.698-3.432.698v.825Zm3.804-.787c1.045-.522 1.884-1.225 2.505-2.112l-.676-.473c-.534.763-1.263 1.38-2.198 1.848l.369.737Zm2.504-2.11a8.465 8.465 0 0 0 1.333-3.023l-.803-.185a7.658 7.658 0 0 1-1.204 2.731l.674.477Zm1.334-3.024c.254-1.124.381-2.28.381-3.464h-.825c0 1.126-.12 2.219-.361 3.281l.805.183Zm.381-3.464c0-1.042-.117-2.082-.35-3.122l-.805.18c.22.982.33 1.963.33 2.942h.825Zm-.35-3.12a8.412 8.412 0 0 0-1.236-2.927l-.684.462c.526.779.898 1.658 1.115 2.642l.805-.177Zm-1.236-2.927c-.597-.884-1.402-1.598-2.404-2.142l-.394.724c.896.487 1.597 1.114 2.114 1.88l.684-.462Zm-2.394-2.137c-1.008-.583-2.261-.86-3.733-.86v.825c1.373 0 2.472.26 3.32.75l.413-.715Zm11.249-2.49v-.412h-.412v.413h.412Zm2.568 0h.413v-.412h-.413v.413Zm0 21.657v.412h.413V76h-.413Zm-2.568 0h-.412v.412h.412V76Zm0-21.244h2.568v-.825h-2.568v.825Zm2.156-.412V76h.825V54.344h-.825Zm.412 21.244h-2.568v.825h2.568v-.825Zm-2.155.412V54.344h-.825V76h.825Zm21.863-.897.251.327.228-.174-.085-.275-.394.122Zm-9.034.619-.153.383.006.002.147-.385Zm-2.97-2.042.302-.282-.302.282Zm-2.011-3.465-.389.135v.002l.389-.137Zm.062-10.179-.384-.15-.001.003.385.147Zm2.166-3.465.291.292-.291-.292Zm3.032-1.98-.144-.387.144.387Zm6.435-.402-.075.406.01.002.065-.408Zm2.011.526.397.109.097-.353-.339-.138-.155.382Zm-.619 2.258-.178.372.445.214.131-.477-.398-.109Zm-6.745-.247.145.386-.145-.386Zm-2.227 1.516-.3-.283-.005.005.305.278Zm-1.547 2.753-.39-.134.39.134Zm-.031 8.075-.391.13.391-.13Zm1.516 2.784-.313.27.005.004.308-.274Zm2.289 1.671-.162.38h.003l.159-.38Zm5.291.278-.106-.398h-.003l.109.398Zm1.763-.711.394-.121-.155-.507-.453.276.214.352Zm.368 1.683c-.558.428-1.279.737-2.18.913l.159.81c.996-.195 1.843-.547 2.523-1.068l-.502-.655Zm-2.18.913c-.92.18-1.903.27-2.952.27v.826a16.19 16.19 0 0 0 3.111-.286l-.159-.81Zm-2.952.27a9.74 9.74 0 0 1-3.504-.622l-.294.77c1.185.453 2.452.678 3.798.678v-.825Zm-3.498-.62a7.746 7.746 0 0 1-2.821-1.94l-.604.563a8.573 8.573 0 0 0 3.119 2.144l.306-.766Zm-2.821-1.94c-.8-.858-1.444-1.961-1.924-3.32l-.778.274c.51 1.445 1.207 2.652 2.098 3.609l.604-.563Zm-1.923-3.319c-.476-1.369-.72-3.002-.72-4.907h-.825c0 1.972.252 3.701.766 5.178l.779-.27Zm-.72-4.907c0-1.987.264-3.646.777-4.988l-.77-.295c-.559 1.463-.832 3.228-.832 5.283h.825Zm.776-4.985c.541-1.382 1.235-2.485 2.073-3.324l-.583-.583c-.935.934-1.685 2.141-2.258 3.606l.768.3Zm2.073-3.324c.869-.869 1.83-1.495 2.884-1.885l-.287-.774c-1.174.435-2.234 1.13-3.18 2.076l.583.583Zm2.884-1.885a9.314 9.314 0 0 1 3.26-.593v-.825c-1.206 0-2.388.215-3.547.644l.287.774Zm3.26-.593c1.224 0 2.207.072 2.957.21l.149-.812c-.818-.15-1.856-.223-3.106-.223v.825Zm2.967.212c.762.12 1.4.288 1.92.5l.311-.764c-.594-.242-1.296-.424-2.102-.551l-.129.815Zm1.678.009-.619 2.258.796.218.618-2.258-.795-.218Zm-.043 1.995c-1.071-.513-2.556-.752-4.417-.752v.825c1.811 0 3.152.236 4.061.671l.356-.744Zm-4.417-.752c-.897 0-1.781.165-2.65.49l.289.773a6.675 6.675 0 0 1 2.361-.438v-.825Zm-2.65.49c-.89.334-1.684.877-2.383 1.62l.6.566c.621-.66 1.312-1.128 2.072-1.413l-.289-.772Zm-2.388 1.625c-.686.752-1.226 1.723-1.632 2.897l.78.269c.378-1.095.869-1.96 1.462-2.61l-.61-.556Zm-1.632 2.897c-.411 1.19-.61 2.631-.61 4.31h.825c0-1.62.192-2.963.565-4.041l-.78-.27Zm-.61 4.31c0 1.519.189 2.864.578 4.03l.782-.261c-.354-1.063-.535-2.316-.535-3.768h-.825Zm.578 4.03c.385 1.154.914 2.132 1.594 2.923l.626-.539c-.598-.694-1.08-1.573-1.438-2.645l-.782.26Zm1.599 2.927a6.841 6.841 0 0 0 2.435 1.776l.325-.758a6.016 6.016 0 0 1-2.144-1.566l-.616.548Zm2.438 1.778a7.79 7.79 0 0 0 3.037.588v-.825a6.964 6.964 0 0 1-2.718-.525l-.319.761Zm3.037.588c.954 0 1.796-.095 2.521-.293l-.217-.795c-.636.173-1.402.263-2.304.263v.825Zm2.518-.292c.729-.193 1.356-.443 1.873-.758l-.429-.704c-.432.262-.981.486-1.655.665l.211.797Zm1.264-.989.619 2.011.788-.243-.619-2.01-.788.242Zm14.253-3.215.387-.143-.1-.27h-.287v.413Zm-7.982 0v-.412h-.289l-.099.272.388.14ZM202.912 76v.412h.289l.099-.272-.388-.14Zm-2.537 0-.387-.144-.207.556h.594V76Zm8.198-21.997v-.412h-.286l-.1.268.386.144Zm1.176 0 .386-.144-.1-.268h-.286v.412ZM217.978 76v.412h.595l-.208-.556-.387.144Zm-2.691 0-.387.144.1.268h.287V76Zm-9.374-8.23-.388-.14-.202.553h.59v-.412Zm6.373 0v.413h.59l-.203-.554-.387.142Zm-2.413-6.59-.402.096.006.024.008.023.388-.142Zm-.774-3.278.402-.095-.075-.318h-.327v.413Zm-.031 0v-.413h-.328l-.074.32.402.093Zm-.773 3.34.387.142.009-.023.006-.025-.402-.093Zm4.764 8.344h-7.982v.825h7.982v-.825Zm-8.37.272-2.165 6.002.776.28 2.165-6.002-.776-.28Zm-1.777 5.73h-2.537v.825h2.537v-.825Zm-2.151.556 8.199-21.997-.773-.288-8.199 21.997.773.288Zm7.812-21.728h1.176v-.825h-1.176v.825Zm.79-.268 8.229 21.996.773-.288-8.23-21.997-.772.289Zm8.615 21.44h-2.691v.825h2.691v-.825Zm-2.305.269-2.227-6.002-.773.287 2.227 6.002.773-.288Zm-9.76-7.674h6.373v-.825h-6.373v.825Zm6.76-.554-2.413-6.59-.775.284 2.413 6.59.775-.284Zm-2.399-6.543-.773-3.28-.803.19.773 3.28.803-.19Zm-1.175-3.597h-.031v.825h.031v-.825Zm-.433.32-.773 3.34.804.187.773-3.341-.804-.186Zm-.759 3.292-2.382 6.528.775.283 2.382-6.528-.775-.283ZM233.662 76v.412h.413V76h-.413Zm-12.808 0h-.412v.412h.412V76Zm0-21.656v-.413h-.412v.413h.412Zm2.568 0h.413v-.413h-.413v.413Zm0 19.367h-.412v.412h.412v-.412Zm10.24 0h.413v-.413h-.413v.413Zm0 1.877h-12.808v.825h12.808v-.825ZM221.267 76V54.344h-.825V76h.825Zm-.413-21.244h2.568v-.825h-2.568v.825Zm2.156-.412V73.71h.825V54.344h-.825Zm.412 19.78h10.24v-.826h-10.24v.825Zm9.828-.413V76h.825v-2.29h-.825Z" fill="#9DD0C9"/><g clip-path="url(#a)"><path fill-rule="evenodd" clip-rule="evenodd" d="m42.776 2.87-4.848 2.854 2.366 1.517c1.3.835 13.252 7.795 26.557 15.469 23.215 13.388 24.3 13.896 26.833 12.586 2.364-1.222 2.664-1.992 2.895-7.416.14-3.328.006-6.052-.3-6.052s-1.622.698-2.925 1.552c-2.207 1.446-2.628 1.39-6.172-.831C81.885 19.229 48.42-.021 47.982 0c-.197.009-2.54 1.3-5.206 2.87Zm-21.46 12.752.01 5.71 13.455 7.662 13.455 7.664 4.894-2.7c2.692-1.483 4.895-2.92 4.896-3.193.002-.554-35.152-20.852-36.112-20.852-.335 0-.604 2.57-.598 5.709ZM-.317 27.724l-.121 5.896 24.333 13.966 24.333 13.965 15.837-9.157 15.837-9.157v-5.74c0-3.157-.204-5.74-.455-5.74-.25 0-7.404 3.999-15.898 8.886L48.104 49.53 24.127 35.68C10.939 28.06.072 21.828-.023 21.828c-.095 0-.227 2.653-.294 5.896ZM-.18 65.04l.13 18.39 5.215 2.98 5.214 2.978V77.347c0-11.059.142-11.988 1.738-11.38.957.364 9.447 5.119 18.87 10.566L48.12 86.44 66.99 75.525l18.87-10.915v24.778l5.215-2.978 5.214-2.978.188-18.39c.104-10.115.059-18.39-.099-18.39s-11.086 6.237-24.284 13.862L48.098 74.377 24.112 60.514C10.92 52.89.027 46.652-.093 46.652c-.12 0-.159 8.275-.086 18.388Zm-34.857 118.638c0 2.458.194 3.464.431 2.234.237-1.229.237-3.239 0-4.468s-.43-.223-.43 2.234Zm56.591 0c-.01 2.458.191 3.653.45 2.656.453-1.755.537-1.755 2.615 0 2.13 1.799 2.134 1.797.407-.254-.957-1.137-1.404-2.437-.993-2.889.412-.454.22-.523-.424-.153-.716.41-1.338-.202-1.602-1.579-.238-1.237-.442-.238-.453 2.219Zm48.912 0c0 3.337.318 3.959 1.987 3.894 1.092-.043 1.428-.304.744-.579-.682-.276-1.241-2.028-1.241-3.894 0-1.865-.336-3.393-.745-3.393-.41 0-.745 1.788-.745 3.972Zm6.176-3.281c-.257.439-.41 2.139-.341 3.778.094 2.276.593 2.979 2.11 2.979 1.607 0 1.987-.663 1.987-3.463 0-2.434-.489-3.556-1.646-3.778-.905-.174-1.854.044-2.11.484Zm7.977-.039c2.664.572 2.924 1.979.496 2.694-1.35.398-1.295.466.249.307 2.903-.299 2.48-3.123-.497-3.319-2.188-.143-2.218-.105-.248.318Zm12.166 1.334c0 1.259.636 1.957 1.738 1.908 1.038-.047 1.239-.28.497-.579-1.788-.722-1.528-2.101.496-2.63 1.308-.342 1.185-.483-.496-.569-1.611-.084-2.235.439-2.235 1.87Zm7.358-.617c-.702 1.829.263 3.626 1.888 3.518.853-.057.836-.219-.059-.579-1.746-.705-1.551-3.315.248-3.315 2.103 0 1.907 4.624-.248 5.879-.956.557-1.234 1.025-.618 1.042 1.833.049 3.525-2.676 3.177-5.118-.376-2.638-3.529-3.663-4.388-1.427Zm6.952 0c-.701 1.829.263 3.626 1.888 3.518.853-.057.836-.219-.059-.579-1.712-.691-1.567-3.315.183-3.315.783 0 1.619 1.123 1.858 2.495.401 2.296.426 2.277.315-.24-.135-3.044-3.208-4.424-4.185-1.879Zm8.533.157c-.856 1.054-.961 1.517-.248 1.089.794-.478 1.241-.151 1.241.908 0 1.063-.533 1.45-1.489 1.083-.82-.314-1.49-.138-1.49.39 0 .529.633.962 1.407.962s1.585.536 1.804 1.191c.734 2.2 1.41-1.552.824-4.573-.53-2.736-.637-2.791-2.049-1.05Zm6.456 2.446c0 3.337.318 3.959 1.986 3.894 1.093-.043 1.428-.304.745-.579-.682-.276-1.241-2.028-1.241-3.894 0-1.865-.336-3.393-.745-3.393s-.745 1.788-.745 3.972Zm-147.3.179c.17 1.729.88 3.256 1.576 3.394.697.138.809.023.249-.254-1.41-.699-1.281-4.059.173-4.543.73-.243.513-.657-.559-1.068-1.477-.567-1.702-.182-1.44 2.471Zm3.972 0c.17 1.729.881 3.256 1.577 3.394.696.138.809.023.248-.254-1.409-.699-1.28-4.059.173-4.543.73-.243.514-.657-.558-1.068-1.478-.567-1.702-.182-1.44 2.471Zm21.85 0c.17 1.729.88 3.256 1.577 3.394.696.138.808.023.248-.254-1.409-.699-1.28-4.059.173-4.543.73-.243.514-.657-.558-1.068-1.478-.567-1.702-.182-1.44 2.471Zm75.295-2.165c0 .546-.67.993-1.49.993-.819 0-1.49-.447-1.49-.993s.671-.993 1.49-.993c.82 0 1.49.447 1.49.993ZM-41.25 183.43c.009.992.334 1.312.757.745a12.213 12.213 0 0 1 1.64-1.738c.494-.41.154-.745-.756-.745-.92 0-1.649.772-1.64 1.738Zm8.575-1.068c.628.45 1.37 1.937 1.648 3.302.436 2.138.483 2.079.348-.42-.089-1.637-.807-3.077-1.647-3.302-.996-.269-1.112-.129-.349.42Zm4.66 1.736c.09 1.638.808 3.077 1.648 3.303.996.268 1.111.128.348-.42-.627-.451-1.37-1.937-1.647-3.303-.436-2.138-.484-2.079-.349.42Zm3.864.573c0 1.912.205 2.693.454 1.738.25-.955.25-2.52 0-3.475-.249-.956-.454-.174-.454 1.737Zm11.082-1.563c-.957 2.496.354 4.553 2.81 4.407l2.265-.135-2.234-.431c-2.813-.541-2.939-2.278-.166-2.278 1.214 0 1.899-.513 1.656-1.241-.624-1.875-3.648-2.099-4.33-.322Zm6.796 1.563c0 1.912.204 2.693.454 1.738.25-.955.25-2.52 0-3.475-.25-.956-.454-.174-.454 1.737Zm4.75-1.241c.01 1.071.295 1.319.745.645.401-.6 1.4-1.347 2.22-1.659.995-.379.747-.593-.745-.645-1.502-.053-2.23.491-2.22 1.659Zm10.304-.322c-.904 2.355.375 4.732 2.341 4.353 1.1-.211 1.741-1.24 1.741-2.79 0-2.831-3.134-4.03-4.082-1.563Zm6.925.074c-.86 2.241.345 4.483 2.34 4.353 1.658-.108 1.66-.144.031-.569-.956-.25-1.738-1.283-1.738-2.295s.782-2.044 1.738-2.295c1.63-.425 1.627-.46-.03-.568-.974-.064-2.028.555-2.341 1.374Zm15.89 0c-.86 2.241.346 4.483 2.341 4.353 1.658-.108 1.66-.144.031-.569-.956-.25-1.738-1.283-1.738-2.295s.782-2.044 1.738-2.295c1.629-.425 1.627-.46-.03-.568-.974-.064-2.028.555-2.342 1.374Zm5.987-.074c-.904 2.355.375 4.732 2.341 4.353 1.1-.211 1.741-1.24 1.741-2.79 0-2.831-3.134-4.03-4.082-1.563Zm6.796 1.563c0 1.912.204 2.693.453 1.738.25-.955.25-2.52 0-3.475-.249-.956-.453-.174-.453 1.737Zm2.4-2.309c.628.45 1.37 1.937 1.648 3.302.436 2.138.483 2.079.348-.42-.09-1.637-.807-3.077-1.647-3.302-.997-.269-1.112-.129-.349.42Zm43.456 2.309c.069 1.788.65 2.483 2.082 2.483 2.223 0 2.866-3.629.72-4.064-.696-.141-.808-.028-.248.249 1.534.761 1.221 3.318-.407 3.318-.782 0-1.607-1.005-1.833-2.234-.356-1.944-.397-1.911-.314.248Zm41.714 0c.114 2.959 3.936 3.618 4.202.725.112-1.228.02-1.303-.308-.248-.711 2.291-3.117 1.803-3.581-.725-.356-1.944-.397-1.911-.313.248Zm-141.701-1.386c-.33.33-1.187.365-1.903.078-.793-.316-.558-.552.6-.599 1.046-.043 1.632.191 1.303.521Zm22.119 1.386c0 1.103-.663 1.986-1.49 1.986-.828 0-1.49-.883-1.49-1.986s.662-1.986 1.49-1.986c.827 0 1.49.883 1.49 1.986Zm28.802 0c0 1.103-.663 1.986-1.49 1.986-.828 0-1.49-.883-1.49-1.986s.663-1.986 1.49-1.986 1.49.883 1.49 1.986Zm18.87-.496c0 .91.48 1.494 1.067 1.298.587-.195 1.068-.78 1.068-1.298 0-.519-.48-1.103-1.068-1.299-.587-.196-1.067.388-1.067 1.299Zm-7.789 1.489c0 1.365.226 1.924.5 1.241.277-.682.277-1.799 0-2.482-.274-.682-.5-.124-.5 1.241Zm27.652-.496c0 .819-.67 1.489-1.49 1.489-.819 0-1.49-.67-1.49-1.489 0-.82.671-1.49 1.49-1.49.82 0 1.49.67 1.49 1.49Zm20.935.082c.048 1.157.283 1.392.6.601.287-.717.252-1.574-.078-1.904-.33-.329-.564.256-.522 1.303Zm-139.122.176c0 .597-.783 1.29-1.738 1.54-1.568.409-1.574.465-.059.569 1.792.123 3.385-1.607 2.393-2.599-.328-.327-.596-.107-.596.49Zm39.727 0c0 .597-.782 1.29-1.738 1.54-1.568.409-1.574.465-.059.569 1.792.123 3.385-1.607 2.393-2.599-.328-.327-.596-.107-.596.49Zm85.413.072c0 .638-1.006 1.211-2.235 1.274-1.84.095-1.909.2-.391.59 1.98.509 4.424-1.223 3.304-2.343-.373-.374-.678-.157-.678.479Zm10.739 1.837c.716.287 1.573.251 1.903-.078.33-.33-.257-.564-1.303-.521-1.157.047-1.393.283-.6.599Z" fill="#77A6AC"/><path d="M96.731 43.725 44.138 68.888-1.238 43.725l-9.9 41.25L46.2 96.525l50.531-24.75v-28.05Z" fill="#fff"/><path fill-rule="evenodd" clip-rule="evenodd" d="m-.18 64.588.132 18.39 5.214 2.98 5.214 2.978V76.895c0-11.059.142-11.988 1.738-11.38.957.364 9.447 5.12 18.87 10.567l17.132 9.905L66.99 75.073l18.87-10.915v.225l10.664-6.141c.031-7.011-.023-12.042-.146-12.042-.158 0-11.086 6.238-24.284 13.862L48.098 73.925 24.112 60.063C10.92 52.438.027 46.2-.093 46.2c-.12 0-.159 8.275-.086 18.388Zm86.041 24.348V77.583l10.546-6.073-.117 11.47-5.215 2.978-5.214 2.978Zm-120.897 94.291c0 2.457.194 3.463.431 2.234.237-1.23.237-3.239 0-4.469-.237-1.229-.43-.223-.43 2.235Zm56.591 0c-.01 2.457.191 3.653.45 2.656.453-1.756.537-1.756 2.615 0 2.13 1.798 2.134 1.796.407-.255-.957-1.136-1.404-2.436-.993-2.889.412-.454.22-.522-.424-.153-.716.41-1.338-.201-1.602-1.579-.238-1.237-.442-.238-.453 2.22Zm48.912 0c0 3.336.318 3.958 1.987 3.893 1.092-.043 1.428-.304.744-.579-.682-.276-1.241-2.028-1.241-3.893 0-1.866-.336-3.393-.745-3.393-.41 0-.745 1.787-.745 3.972Zm6.176-3.282c-.257.44-.41 2.14-.341 3.778.094 2.276.593 2.979 2.11 2.979 1.607 0 1.987-.662 1.987-3.463 0-2.433-.489-3.555-1.646-3.778-.905-.173-1.854.044-2.11.484Zm7.977-.039c2.664.572 2.924 1.979.496 2.694-1.35.398-1.295.467.249.308 2.903-.3 2.48-3.124-.497-3.32-2.188-.143-2.218-.105-.248.318Zm12.166 1.335c0 1.259.636 1.957 1.738 1.907 1.038-.047 1.239-.28.497-.579-1.788-.722-1.528-2.101.496-2.63 1.308-.342 1.185-.483-.496-.569-1.611-.083-2.235.439-2.235 1.871Zm7.358-.618c-.702 1.829.263 3.626 1.888 3.518.853-.057.836-.218-.059-.579-1.746-.705-1.551-3.314.248-3.314 2.103 0 1.907 4.623-.248 5.878-.956.557-1.234 1.026-.618 1.043 1.833.048 3.525-2.676 3.177-5.119-.376-2.637-3.529-3.663-4.388-1.427Zm6.952 0c-.701 1.829.263 3.626 1.888 3.518.853-.057.836-.218-.059-.579-1.712-.691-1.567-3.314.183-3.314.783 0 1.619 1.123 1.858 2.494.402 2.297.426 2.278.315-.239-.135-3.045-3.208-4.425-4.185-1.88Zm8.533.157c-.856 1.054-.961 1.517-.248 1.089.794-.477 1.241-.151 1.241.909 0 1.062-.533 1.449-1.489 1.082-.82-.314-1.49-.138-1.49.39 0 .53.633.962 1.407.962s1.585.537 1.804 1.191c.734 2.2 1.41-1.552.824-4.573-.53-2.736-.637-2.791-2.049-1.05Zm6.456 2.447c0 3.336.318 3.958 1.986 3.893 1.093-.043 1.428-.304.745-.579-.682-.276-1.241-2.028-1.241-3.893 0-1.866-.336-3.393-.745-3.393s-.745 1.787-.745 3.972Zm-147.3.178c.17 1.729.88 3.256 1.576 3.394.697.138.809.023.249-.254-1.41-.699-1.281-4.058.173-4.543.73-.243.513-.657-.559-1.068-1.477-.567-1.702-.182-1.44 2.471Zm3.972 0c.17 1.729.881 3.256 1.577 3.394.696.138.809.023.248-.254-1.409-.699-1.28-4.058.173-4.543.73-.243.514-.657-.558-1.068-1.478-.567-1.702-.182-1.44 2.471Zm21.85 0c.17 1.729.88 3.256 1.577 3.394.696.138.808.023.248-.254-1.409-.699-1.28-4.058.173-4.543.73-.243.514-.657-.558-1.068-1.478-.567-1.702-.182-1.44 2.471Zm75.295-2.164c0 .546-.67.993-1.49.993-.819 0-1.49-.447-1.49-.993s.671-.993 1.49-.993c.82 0 1.49.447 1.49.993Zm-121.152 1.737c.009.992.334 1.312.757.745a12.213 12.213 0 0 1 1.64-1.738c.494-.41.154-.744-.756-.744-.92 0-1.649.771-1.64 1.737Zm8.575-1.068c.628.451 1.37 1.937 1.648 3.302.436 2.138.483 2.08.348-.42-.089-1.637-.807-3.077-1.647-3.302-.996-.268-1.112-.128-.349.42Zm4.66 1.737c.09 1.637.808 3.077 1.648 3.302.996.268 1.111.128.348-.42-.627-.451-1.37-1.937-1.647-3.302-.436-2.138-.484-2.08-.349.42Zm3.864.572c0 1.912.205 2.693.454 1.738.25-.955.25-2.52 0-3.475-.249-.955-.454-.174-.454 1.737Zm11.082-1.562c-.957 2.495.354 4.552 2.81 4.406l2.265-.135-2.234-.431c-2.813-.541-2.939-2.278-.166-2.278 1.214 0 1.899-.513 1.656-1.241-.624-1.874-3.648-2.099-4.33-.321Zm6.796 1.562c0 1.912.204 2.693.454 1.738.25-.955.25-2.52 0-3.475-.25-.955-.454-.174-.454 1.737Zm4.75-1.241c.01 1.072.295 1.319.745.646.401-.601 1.4-1.348 2.22-1.659.995-.38.747-.593-.745-.646-1.502-.053-2.23.492-2.22 1.659Zm10.304-.321c-.904 2.354.375 4.731 2.341 4.353 1.1-.212 1.741-1.241 1.741-2.791 0-2.83-3.134-4.03-4.082-1.562Zm6.925.073c-.86 2.241.345 4.483 2.34 4.353 1.658-.108 1.66-.144.031-.569-.956-.25-1.738-1.283-1.738-2.295 0-1.011.782-2.044 1.738-2.294 1.63-.425 1.627-.461-.03-.569-.974-.064-2.028.555-2.341 1.374Zm15.89 0c-.86 2.241.346 4.483 2.341 4.353 1.658-.108 1.66-.144.031-.569-.956-.25-1.738-1.283-1.738-2.295 0-1.011.782-2.044 1.738-2.294 1.629-.425 1.627-.461-.03-.569-.974-.064-2.028.555-2.342 1.374Zm5.987-.073c-.904 2.354.375 4.731 2.341 4.353 1.1-.212 1.741-1.241 1.741-2.791 0-2.83-3.134-4.03-4.082-1.562Zm6.796 1.562c0 1.912.204 2.693.453 1.738.25-.955.25-2.52 0-3.475-.249-.955-.453-.174-.453 1.737Zm2.4-2.309c.628.451 1.37 1.937 1.648 3.302.436 2.138.483 2.08.348-.42-.09-1.637-.807-3.077-1.647-3.302-.997-.268-1.112-.128-.349.42Zm43.456 2.309c.069 1.789.65 2.483 2.082 2.483 2.223 0 2.866-3.628.72-4.063-.696-.141-.808-.029-.248.248 1.534.762 1.221 3.318-.407 3.318-.782 0-1.607-1.004-1.833-2.234-.356-1.944-.397-1.911-.314.248Zm41.714 0c.114 2.959 3.936 3.619 4.202.725.112-1.228.02-1.302-.308-.248-.711 2.291-3.117 1.803-3.581-.725-.356-1.944-.397-1.911-.313.248Zm-141.701-1.386c-.33.33-1.187.366-1.903.079-.793-.317-.558-.552.6-.6 1.046-.043 1.632.192 1.303.521Zm22.119 1.386c0 1.104-.663 1.986-1.49 1.986-.828 0-1.49-.882-1.49-1.986 0-1.103.662-1.985 1.49-1.985.827 0 1.49.882 1.49 1.985Zm28.802 0c0 1.104-.663 1.986-1.49 1.986-.828 0-1.49-.882-1.49-1.986 0-1.103.663-1.985 1.49-1.985s1.49.882 1.49 1.985Zm18.87-.496c0 .911.48 1.494 1.067 1.299.587-.196 1.068-.781 1.068-1.299 0-.518-.48-1.103-1.068-1.299-.587-.195-1.067.388-1.067 1.299Zm-7.789 1.489c0 1.366.226 1.925.5 1.242.277-.683.277-1.8 0-2.483-.274-.682-.5-.124-.5 1.241Zm27.652-.496c0 .819-.67 1.489-1.49 1.489-.819 0-1.49-.67-1.49-1.489 0-.819.671-1.489 1.49-1.489.82 0 1.49.67 1.49 1.489Zm20.935.082c.048 1.157.283 1.392.6.601.287-.717.252-1.574-.078-1.903-.33-.33-.564.256-.522 1.302Zm-139.122.176c0 .597-.783 1.29-1.738 1.54-1.568.409-1.574.465-.059.569 1.792.123 3.385-1.606 2.393-2.598-.328-.328-.596-.108-.596.489Zm39.727 0c0 .597-.782 1.29-1.738 1.54-1.568.409-1.574.465-.059.569 1.792.123 3.385-1.606 2.393-2.598-.328-.328-.596-.108-.596.489Zm85.413.073c0 .637-1.006 1.21-2.235 1.274-1.84.094-1.909.199-.391.589 1.98.51 4.424-1.223 3.304-2.343-.373-.373-.678-.157-.678.48Zm10.739 1.837c.716.287 1.573.251 1.903-.079.33-.33-.257-.564-1.303-.521-1.157.047-1.393.283-.6.6Z" fill="#9DD0C9"/><path d="M47.85 119.831 0 92.4v12.169L47.85 132l48.262-27.431.413-36.713-30.938 16.5v11.757l19.388-10.725V98.38l-37.125 21.45Z" fill="#77A6AC"/></g><defs><clipPath id="a"><path fill="#fff" d="M0 0h96.525v132H0z"/></clipPath></defs></svg>