<svg width="122" height="32" fill="none" xmlns="http://www.w3.org/2000/svg"><path fill-rule="evenodd" clip-rule="evenodd" d="M20.376 16.936c-.017.811-.71 1.46-1.566 1.46-.85 0-1.544-.649-1.56-1.46V2.618c0-.823.699-1.488 1.56-1.488.867 0 1.566.665 1.566 1.488v14.318zm25.545-1.521h6.684c.86 0 1.56.671 1.56 1.493 0 .823-.7 1.488-1.56 1.488H44.36c-.857 0-1.55-.649-1.567-1.46V2.618c0-.823.7-1.488 1.566-1.488.861 0 1.56.665 1.56 1.488v12.797zM27.206 13.48c-.61 0-1.561.839-1.561 1.493 0 .649.235.906.604 1.175v.005l.593.403.33.201.347.202.352.195.37.185.374.18.386.167.391.15.403.14.414.124.42.106.425.09.43.067.437.039.43.017.493-.006.497-.028.51-.045.52-.072.53-.107.538-.145.542-.19.532-.258.514-.313.481-.391.437-.465.374-.542.297-.599.212-.66.129-.704.078-.694-.033-.593-.04-.649-.123-.626-.2-.582-.28-.542-.342-.487-.391-.43-.43-.381-.454-.324-.475-.291-.487-.246-.498-.224-.498-.196-.503-.179-.503-.162-.504-.151-.492-.14-.945-.268-.459-.135-.425-.128-.403-.134-.369-.135-.33-.134-.285-.14-.24-.134-.19-.129-.14-.117-.09-.106-.062-.09-.039-.084-.028-.106-.01-.157.01-.285.045-.252.062-.2.083-.18.101-.15.112-.14.145-.13.168-.122.202-.118.229-.106.257-.09.285-.084.302-.061.325-.05.33-.034.341-.017h.263l.274.011.274.017.28.034.28.039.28.045.273.061.274.062.269.072.263.084.251.09.246.095.235.095.224.106.207.107c.224.117.487.19.76.19.862 0 1.561-.672 1.561-1.494a1.48 1.48 0 00-.777-1.292l-.32-.168-.33-.15-.34-.146-.347-.134-.358-.118-.358-.117-.37-.1-.374-.09-.38-.079-.386-.067-.386-.05-.386-.045-.397-.028L32.077 0h-.397l-.492.022-.503.05-.498.073-.504.112-.503.14-.492.18-.481.217-.47.274-.442.32-.414.374-.369.436-.319.487-.246.537-.179.576-.106.61-.034.648.056.588.146.576.246.537.313.475.375.408.414.353.436.296.453.257.464.219.47.195.475.174.487.162.487.145.486.146.481.134.476.134.458.135.453.134.431.14.408.145.38.146.347.156.314.162.274.163.23.167.19.168.15.168.118.168.09.173.072.201.045.235.017.291.044.42-.067.531-.067.347-.084.268-.112.218-.117.18-.146.15-.162.135-.196.117-.235.112-.268.095-.302.084-.33.067-.347.045-.369.033-.37.017-.357.006-.252-.006-.246-.022-.263-.04-.263-.055-.274-.073-.28-.084-.285-.095-.285-.112-.285-.129-.285-.128-.28-.146-.274-.145-.269-.157-.257-.162-.436-.296c-.263-.19-.336-.302-.945-.302zM61.9 1.275c.206-.095.436-.145.676-.145.862 0 1.56.665 1.56 1.488 0 .654-.435 1.208-1.04 1.41-1.073.536-1.812 1.61-1.812 2.84v5.823c0 1.242.76 2.332 1.852 2.864.587.212 1.157.979.94 1.728-.224.75-.946 1.152-1.5 1.152-.553 0-.47-.05-.676-.145v.006c-2.204-.996-3.742-3.138-3.742-5.605V6.87c0-2.467 1.538-4.61 3.742-5.605v.011zm5.693 16.931c2.098-1.03 3.547-3.121 3.547-5.515V6.87c0-2.4-1.455-4.497-3.563-5.521l-.006.006a1.576 1.576 0 00-.822-.224c-.862 0-1.566.665-1.566 1.488 0 .593.363 1.102.883 1.342h-.005c1.152.515 1.952 1.628 1.952 2.909v5.822c0 1.28-.805 2.394-1.952 2.909l.005.005c-.52.24-.945.716-.816 1.488.134.766.626 1.135 1.169 1.22.542.083.928.039 1.174-.107zm10.986-1.27c-.017.811-.71 1.46-1.567 1.46-.85 0-1.543-.649-1.56-1.46V2.618c0-.823.7-1.488 1.56-1.488.867 0 1.567.665 1.567 1.488v14.318zm33.587 0c-.017.811-.71 1.46-1.566 1.46-.85 0-1.544-.649-1.561-1.46V2.618c0-.823.7-1.488 1.561-1.488.867 0 1.566.665 1.566 1.488v14.318zm-24.04-.637c.347.738.006 1.61-.76 1.957-.772.347-1.695.04-2.07-.688l-.011-.028-3.49-7.064h-.644c-.844-.022-1.52-.682-1.52-1.493s.676-1.466 1.52-1.488v-.006h2.422c.962 0 1.757-.75 1.757-1.672 0-.923-.795-1.678-1.757-1.678h-2.421c-.845-.022-1.522-.682-1.522-1.493s.677-1.471 1.522-1.488v-.006h2.421c2.685 0 4.883 2.098 4.883 4.665 0 2.042-1.398 3.792-3.328 4.413l2.981 6.04.017.029zm7.91 4.715c.01-.638.558-1.152 1.23-1.152.676 0 1.225.514 1.241 1.152v4.704c.006.486-.313.906-.755 1.085h-.005l-.023.011h-.005l-.028.011-.028.006-.028.011c-.118.034-.24.056-.37.056h-9.514c-.665-.017-1.208-.537-1.208-1.18 0-.643.543-1.17 1.209-1.18h8.278v-3.524h.005zm-30.73 0c-.011-.638-.56-1.152-1.23-1.152-.677 0-1.226.514-1.237 1.152v4.704c-.011.475.291.89.722 1.074h.005l.023.01h.005l.028.012.023.011h.005l.028.006c.123.045.257.067.397.067h9.514c.672-.017 1.209-.537 1.209-1.18 0-.643-.537-1.17-1.209-1.18h-8.278v-3.524h-.005zm49.388-16.875h2.422c.934 0 1.7.7 1.756 1.577v8.01c0 .923-.794 1.678-1.756 1.678h-2.422c-.839.022-1.516.682-1.516 1.488 0 .81.677 1.47 1.516 1.493h2.422c2.646 0 4.821-2.042 4.883-4.553V5.55a1.48 1.48 0 00-.045-.358c-.319-2.271-2.377-4.039-4.838-4.039h-2.422v.006c-.839.022-1.516.677-1.516 1.488 0 .81.677 1.47 1.516 1.493zM95.482 1.275a1.6 1.6 0 01.677-.145c.861 0 1.56.665 1.56 1.488a1.49 1.49 0 01-1.04 1.41c-1.074.536-1.806 1.61-1.806 2.84v5.823c0 1.242.755 2.332 1.851 2.864.582.212.996.66.996 1.393 0 .727-1.007 1.487-1.56 1.487-.555 0-.47-.05-.678-.145v.006c-2.203-.996-3.742-3.138-3.742-5.605V6.87c0-2.467 1.539-4.61 3.742-5.605v.011zm5.689 16.931c2.103-1.03 3.551-3.121 3.551-5.515V6.87c0-2.4-1.454-4.497-3.562-5.521l-.006.006a1.56 1.56 0 00-.822-.224c-.862 0-1.566.665-1.566 1.488 0 .593.363 1.102.883 1.342h-.005c1.152.515 1.952 1.628 1.952 2.909v5.822c0 1.28-.806 2.394-1.952 2.909l.005.005c-.52.24-.883.632-.883 1.343 0 .704.978 1.487 1.566 1.487.587 0 .598-.083.839-.229zm-16.484 11.55h-6.935v-1.465a46.54 46.54 0 001.583-1.259 18.24 18.24 0 001.23-1.124c.464-.464.8-.873 1.001-1.22a2.06 2.06 0 00.314-1.084c0-.42-.129-.739-.392-.962-.263-.224-.632-.336-1.102-.336-.235 0-.464.028-.677.084-.218.056-.43.128-.654.218-.213.095-.397.19-.548.285l-.347.218h-.179v-1.969c.263-.117.683-.246 1.247-.369a7.37 7.37 0 011.634-.19c1.118 0 1.969.235 2.545.71.581.476.867 1.147.867 2.009a3.4 3.4 0 01-.392 1.566c-.263.509-.7 1.051-1.303 1.638-.38.358-.75.677-1.113.957-.358.28-.621.48-.778.598h4v1.695zM3.434 16.936c-.017.811-.71 1.46-1.56 1.46-.856 0-1.55-.649-1.566-1.46V2.618c0-.823.704-1.488 1.566-1.488.861 0 1.56.665 1.56 1.488v5.291l7.836-6.404.017-.017c.655-.537 1.645-.464 2.204.156a1.449 1.449 0 01-.168 2.11l-.022.016-6.242 5.106 6.32 7.042.017.017a1.443 1.443 0 01-.168 2.103c-.654.537-1.644.465-2.204-.162l-.016-.017-6.326-7.036-1.248 1.018v5.095z" fill="#FEFEFE"/><path d="M19.285 27.843a.593.593 0 01-.598-.587c0-.325.268-.593.598-.593a.6.6 0 01.605.593.595.595 0 01-.605.587zm-5.464 0a.593.593 0 01-.599-.587.603.603 0 011.203 0 .598.598 0 01-.604.587zm5.464-1.348a.598.598 0 01-.598-.593c0-.324.268-.587.598-.587.336 0 .605.263.605.587a.6.6 0 01-.605.593zm-5.464 0a.598.598 0 01-.599-.593c0-.324.269-.587.599-.587.33 0 .604.263.604.587a.603.603 0 01-.604.593zm5.464-1.337a.594.594 0 01-.598-.592c0-.325.268-.588.598-.588.336 0 .605.263.605.588 0 .33-.269.593-.605.593zm-5.464 0a.594.594 0 01-.599-.592c0-.325.269-.588.599-.588.33 0 .604.263.604.588a.6.6 0 01-.604.593zm4.1-1.336a.593.593 0 01-.599-.588c0-.324.269-.593.599-.593a.6.6 0 01.604.593.595.595 0 01-.604.588zm-1.365 0a.598.598 0 01-.604-.588c0-.324.274-.593.604-.593.33 0 .598.269.598.593a.593.593 0 01-.598.588zm-1.365 0a.595.595 0 01-.604-.588.6.6 0 01.604-.593c.33 0 .599.269.599.593a.593.593 0 01-.599.588zm2.73 5.358a.593.593 0 01-.599-.587c0-.33.269-.593.599-.593.335 0 .604.263.604.593a.595.595 0 01-.604.587zm-1.365 0a.598.598 0 01-.604-.587.6.6 0 01.604-.593c.33 0 .598.263.598.593a.593.593 0 01-.598.587zm-1.365 0a.595.595 0 01-.604-.587c0-.33.269-.593.604-.593.33 0 .599.263.599.593a.593.593 0 01-.599.587zm-1.37 0a.593.593 0 01-.599-.587c0-.33.269-.593.599-.593a.6.6 0 01.604.593.598.598 0 01-.604.587zm0 1.331a.593.593 0 01-.599-.587c0-.325.269-.587.599-.587.33 0 .604.262.604.587a.598.598 0 01-.604.587zm0 1.337a.593.593 0 01-.599-.587c0-.33.269-.593.599-.593a.6.6 0 01.604.593.598.598 0 01-.604.587zm8.166-7.87a.6.6 0 00-.604.593c0 .325.274.587.604.587.33 0 .599-.262.599-.587a.594.594 0 00-.599-.593zm0 1.354a.598.598 0 00-.604.587c0 .325.274.587.604.587.33 0 .599-.262.599-.587a.593.593 0 00-.599-.587zm0 1.337a.598.598 0 00-.604.587c0 .324.274.593.604.593.33 0 .599-.269.599-.593a.593.593 0 00-.599-.587zm0 1.33a.6.6 0 00-.604.594c0 .324.274.587.604.587.33 0 .599-.263.599-.587a.594.594 0 00-.599-.593zm2.735-5.357a.6.6 0 00-.604.592c0 .325.269.588.604.588.33 0 .599-.263.599-.588a.598.598 0 00-.599-.593zm-1.37 0a.598.598 0 00-.599.592c0 .325.269.588.599.588a.595.595 0 00.604-.588.6.6 0 00-.604-.593zm9.525 1.336a.6.6 0 00-.604.593c0 .325.274.587.604.587.33 0 .599-.262.599-.587a.594.594 0 00-.599-.593zm0 1.354a.598.598 0 00-.604.587c0 .325.274.587.604.587.33 0 .599-.262.599-.587a.593.593 0 00-.599-.587zm-1.365 0a.595.595 0 00-.604.587c0 .325.269.587.604.587.33 0 .599-.262.599-.587a.593.593 0 00-.599-.587zm-1.37 0a.593.593 0 00-.598.587c0 .325.268.587.598.587a.595.595 0 00.604-.587.595.595 0 00-.604-.587zm-1.365 0a.593.593 0 00-.598.587c0 .325.268.587.598.587.33 0 .599-.262.599-.587a.593.593 0 00-.599-.587zm4.1 1.337a.598.598 0 00-.604.587c0 .324.274.593.604.593.33 0 .599-.269.599-.593a.593.593 0 00-.599-.587zm-5.465 0a.594.594 0 00-.604.587.6.6 0 00.605.593c.33 0 .598-.269.598-.593a.593.593 0 00-.598-.587zm4.1 1.33a.596.596 0 00-.604.594c0 .324.269.587.604.587.33 0 .599-.263.599-.587a.594.594 0 00-.599-.593zm-1.37 0a.594.594 0 00-.598.594c0 .324.268.587.598.587a.595.595 0 00.604-.587.596.596 0 00-.604-.593zm-1.365 0a.594.594 0 00-.598.594c0 .324.268.587.598.587.33 0 .599-.263.599-.587a.594.594 0 00-.599-.593zm2.735-5.357a.6.6 0 00-.604.592c0 .325.269.588.604.588.33 0 .599-.263.599-.588a.598.598 0 00-.599-.593zm-1.37 0a.598.598 0 00-.598.592c0 .325.268.588.598.588a.595.595 0 00.604-.588.6.6 0 00-.604-.593zm-1.365 0a.598.598 0 00-.598.592c0 .325.268.588.598.588.33 0 .599-.263.599-.588a.598.598 0 00-.599-.593zm12.311 1.336a.6.6 0 00-.604.593c0 .325.274.587.604.587.33 0 .599-.262.599-.587a.594.594 0 00-.599-.593zm-5.465 0a.596.596 0 00-.604.593c0 .325.269.587.604.587.33 0 .599-.262.599-.587a.594.594 0 00-.599-.593zm5.465 1.354a.598.598 0 00-.604.587c0 .325.274.587.604.587.33 0 .599-.262.599-.587a.593.593 0 00-.599-.587zm-5.465 0a.595.595 0 00-.604.587c0 .325.269.587.604.587.33 0 .599-.262.599-.587a.593.593 0 00-.599-.587zm5.465 1.337a.598.598 0 00-.604.587c0 .324.274.593.604.593.33 0 .599-.269.599-.593a.593.593 0 00-.599-.587zm-5.465 0a.595.595 0 00-.604.587.6.6 0 00.604.593c.33 0 .599-.269.599-.593a.593.593 0 00-.599-.587zm5.465 1.33a.6.6 0 00-.604.594c0 .324.274.587.604.587.33 0 .599-.263.599-.587a.594.594 0 00-.599-.593zm-5.465 0a.596.596 0 00-.604.594c0 .324.269.587.604.587.33 0 .599-.263.599-.587a.594.594 0 00-.599-.593zm4.1-5.357a.6.6 0 00-.604.592c0 .325.269.588.604.588.33 0 .599-.263.599-.588a.598.598 0 00-.599-.593zm-1.37 0a.598.598 0 00-.599.592c0 .325.269.588.599.588a.595.595 0 00.604-.588.6.6 0 00-.604-.593zm-1.365 0a.6.6 0 00-.604.592c0 .325.269.588.604.588.33 0 .599-.263.599-.588a.598.598 0 00-.599-.593zm-1.365 0a.6.6 0 00-.604.592c0 .325.269.588.604.588.33 0 .599-.263.599-.588a.598.598 0 00-.599-.593zm13.67 1.336a.596.596 0 00-.604.593c0 .325.269.587.604.587.33 0 .599-.262.599-.587a.594.594 0 00-.599-.593zm0 1.354a.595.595 0 00-.604.587c0 .325.269.587.604.587.33 0 .599-.262.599-.587a.593.593 0 00-.599-.587zm-1.37 0a.593.593 0 00-.599.587c0 .325.269.587.599.587a.595.595 0 00.604-.587.595.595 0 00-.604-.587zm-1.365 0a.593.593 0 00-.598.587c0 .325.268.587.598.587.33 0 .604-.262.604-.587a.598.598 0 00-.604-.587zm-1.364 0a.595.595 0 00-.605.587c0 .325.269.587.605.587.33 0 .598-.262.598-.587a.593.593 0 00-.599-.587zm4.1 1.337a.594.594 0 00-.605.587.6.6 0 00.604.593c.33 0 .599-.269.599-.593a.593.593 0 00-.599-.587zm-5.47 0a.593.593 0 00-.6.587.6.6 0 00.6.593.6.6 0 00.603-.593.595.595 0 00-.604-.587zm4.099 1.33a.594.594 0 00-.599.594c0 .324.269.587.599.587a.595.595 0 00.604-.587.596.596 0 00-.604-.593zm-1.365 0a.594.594 0 00-.598.594c0 .324.268.587.598.587.33 0 .604-.263.604-.587a.6.6 0 00-.604-.593zm-1.364 0a.596.596 0 00-.605.594c0 .324.269.587.605.587.33 0 .598-.263.598-.587a.594.594 0 00-.599-.593zm2.729-5.357a.598.598 0 00-.599.592c0 .325.269.588.599.588a.595.595 0 00.604-.588.6.6 0 00-.604-.593zm-1.365 0a.598.598 0 00-.598.592c0 .325.268.588.598.588.33 0 .604-.263.604-.588a.603.603 0 00-.604-.593zm-1.364 0a.6.6 0 00-.605.592c0 .325.269.588.605.588.33 0 .598-.263.598-.588a.598.598 0 00-.599-.593zM4.29 21.875C1.918 21.875 0 23.76 0 26.087c0 2.321 1.918 4.206 4.29 4.206s4.29-1.885 4.29-4.206c0-2.327-1.918-4.212-4.29-4.212z" fill="#FEFEFE"/></svg>