<svg width="203" height="64" viewBox="0 0 203 64" fill="none" xmlns="http://www.w3.org/2000/svg">
<path d="M121.835 63.3436H116.584L142.651 4.66935H115.332V0.248047H147.902V4.48512L121.835 63.3436Z" fill="#C4A478"/>
<path d="M7.46094 63.3436V4.57724H0V0.248047H12.0665V63.3436H7.46094Z" fill="#C4A478"/>
<path d="M158.74 63.3434V59.1328L183.325 35.974C184.837 34.5704 186.198 33.2278 187.407 31.9463C188.617 30.6648 189.645 29.3528 190.492 28.0103C191.339 26.6067 191.974 25.1116 192.397 23.525C192.881 21.8773 193.123 20.016 193.123 17.9412C193.123 16.0494 192.79 14.2797 192.125 12.6321C191.46 10.9844 190.492 9.55034 189.222 8.32985C188.012 7.10936 186.53 6.16348 184.776 5.49221C183.083 4.82094 181.148 4.4853 178.97 4.4853C174.797 4.4853 171.471 5.37016 168.991 7.13987C166.512 8.90958 164.334 11.3506 162.459 14.4628L158.649 12.1744C160.766 8.51292 163.427 5.58374 166.633 3.38686C169.838 1.12895 173.951 0 178.97 0C181.813 0 184.414 0.488195 186.772 1.46459C189.131 2.37996 191.127 3.66147 192.76 5.30914C194.453 6.89577 195.754 8.78753 196.661 10.9844C197.628 13.1203 198.112 15.4392 198.112 17.9412C198.112 20.3212 197.81 22.4875 197.205 24.4403C196.661 26.3321 195.875 28.1018 194.846 29.7495C193.818 31.3361 192.578 32.8922 191.127 34.4178C189.736 35.8824 188.194 37.408 186.5 38.9947L165.181 59.1328H202.234V63.3434H158.74Z" fill="#C4A478"/>
<path fill-rule="evenodd" clip-rule="evenodd" d="M82.1725 59.2332L96.5013 4.78369H101.015L86.6859 59.2332H82.1725Z" fill="#C4A478"/>
<path d="M44.2467 63.3434L58.1597 41.7293C57.1358 42.2116 55.9011 42.6638 54.4556 43.0858C53.0703 43.4475 51.2634 43.6284 49.0349 43.6284C45.9632 43.6284 43.1324 43.0858 40.5426 42.0006C37.9527 40.855 35.7242 39.3176 33.8571 37.3883C31.99 35.4591 30.5144 33.168 29.4303 30.5152C28.4064 27.8625 27.8944 24.9987 27.8944 21.9239C27.8944 18.9093 28.4365 16.1058 29.5206 13.5133C30.665 10.8606 32.2008 8.59968 34.1282 6.73067C36.0555 4.80138 38.3141 3.29412 40.904 2.20889C43.5541 1.12367 46.3848 0.581055 49.3963 0.581055C52.468 0.581055 55.2988 1.12367 57.8887 2.20889C60.5387 3.29412 62.8275 4.80138 64.7548 6.73067C66.6822 8.59968 68.1879 10.8606 69.272 13.5133C70.3561 16.1058 70.8982 18.9093 70.8982 21.9239C70.8982 24.4561 70.5067 26.8978 69.7237 29.2491C69.001 31.5402 68.0975 33.5599 67.0134 35.3083L49.3963 63.3434H44.2467ZM49.3963 39.2875C51.8055 39.2875 54.034 38.8655 56.0818 38.0214C58.1898 37.117 59.9666 35.9112 61.4121 34.404C62.9178 32.8364 64.0923 30.9976 64.9355 28.8874C65.7787 26.7772 66.2003 24.4862 66.2003 22.0143C66.2003 19.6027 65.7787 17.3719 64.9355 15.3221C64.0923 13.2119 62.9178 11.4032 61.4121 9.89592C59.9666 8.32837 58.1898 7.12256 56.0818 6.2785C54.034 5.37414 51.8055 4.92196 49.3963 4.92196C46.9269 4.92196 44.6683 5.37414 42.6205 6.2785C40.5727 7.12256 38.7658 8.32837 37.1999 9.89592C35.6941 11.4032 34.5196 13.2119 33.6764 15.3221C32.8332 17.3719 32.4116 19.6027 32.4116 22.0143C32.4116 24.4862 32.8332 26.7772 33.6764 28.8874C34.5196 30.9976 35.6941 32.8364 37.1999 34.404C38.7658 35.9112 40.5727 37.117 42.6205 38.0214C44.6683 38.8655 46.9269 39.2875 49.3963 39.2875Z" fill="#C4A478"/>
<path d="M44.2467 63.3434L58.1597 41.7293C57.1358 42.2116 55.9011 42.6638 54.4556 43.0858C53.0703 43.4475 51.2634 43.6284 49.0349 43.6284C45.9632 43.6284 43.1324 43.0858 40.5426 42.0006C37.9527 40.855 35.7242 39.3176 33.8571 37.3883C31.99 35.4591 30.5144 33.168 29.4303 30.5152C28.4064 27.8625 27.8944 24.9987 27.8944 21.9239C27.8944 18.9093 28.4365 16.1058 29.5206 13.5133C30.665 10.8606 32.2008 8.59968 34.1282 6.73067C36.0555 4.80138 38.3141 3.29412 40.904 2.20889C43.5541 1.12367 46.3848 0.581055 49.3963 0.581055C52.468 0.581055 55.2988 1.12367 57.8887 2.20889C60.5387 3.29412 62.8275 4.80138 64.7548 6.73067C66.6822 8.59968 68.1879 10.8606 69.272 13.5133C70.3561 16.1058 70.8982 18.9093 70.8982 21.9239C70.8982 24.4561 70.5067 26.8978 69.7237 29.2491C69.001 31.5402 68.0975 33.5599 67.0134 35.3083L49.3963 63.3434H44.2467ZM49.3963 39.2875C51.8055 39.2875 54.034 38.8655 56.0818 38.0214C58.1898 37.117 59.9666 35.9112 61.4121 34.404C62.9178 32.8364 64.0923 30.9976 64.9355 28.8874C65.7787 26.7772 66.2003 24.4862 66.2003 22.0143C66.2003 19.6027 65.7787 17.3719 64.9355 15.3221C64.0923 13.2119 62.9178 11.4032 61.4121 9.89592C59.9666 8.32837 58.1898 7.12256 56.0818 6.2785C54.034 5.37414 51.8055 4.92196 49.3963 4.92196C46.9269 4.92196 44.6683 5.37414 42.6205 6.2785C40.5727 7.12256 38.7658 8.32837 37.1999 9.89592C35.6941 11.4032 34.5196 13.2119 33.6764 15.3221C32.8332 17.3719 32.4116 19.6027 32.4116 22.0143C32.4116 24.4862 32.8332 26.7772 33.6764 28.8874C34.5196 30.9976 35.6941 32.8364 37.1999 34.404C38.7658 35.9112 40.5727 37.117 42.6205 38.0214C44.6683 38.8655 46.9269 39.2875 49.3963 39.2875Z" fill="#C4A478"/>
</svg>
