<svg xmlns="http://www.w3.org/2000/svg" xmlns:xlink="http://www.w3.org/1999/xlink"><symbol id="icon-arrow-back" viewBox="0 0 51 16"><g fill="none">
<path d="M0.292892 7.28313C-0.0976295 7.67365 -0.0976295 8.30682 0.292892 8.69734L6.65685 15.0613C7.04738 15.4518 7.68054 15.4518 8.07107 15.0613C8.46159 14.6708 8.46159 14.0376 8.07107 13.6471L2.41422 7.99023L8.07107 2.33338C8.46159 1.94286 8.46159 1.30969 8.07107 0.919167C7.68054 0.528642 7.04738 0.528642 6.65685 0.919167L0.292892 7.28313ZM51 6.99023L1 6.99023V8.99023L51 8.99023V6.99023Z" fill="#C4A478"/>
</g></symbol><symbol id="icon-arrow" viewBox="0 0 16 51"><g fill="none">
<path d="M7.58891 50.6973C7.97944 51.0879 8.6126 51.0879 9.00313 50.6973L15.3671 44.3334C15.7576 43.9429 15.7576 43.3097 15.3671 42.9192C14.9766 42.5286 14.3434 42.5286 13.9529 42.9192L8.29602 48.576L2.63917 42.9192C2.24864 42.5286 1.61548 42.5286 1.22495 42.9192C0.834428 43.3097 0.834428 43.9429 1.22495 44.3334L7.58891 50.6973ZM7.29602 -0.00976562L7.29602 49.9902H9.29602L9.29602 -0.00976563L7.29602 -0.00976562Z" fill="#C4A478"/>
</g></symbol><symbol id="icon-burger" viewBox="0 0 40 40"><g fill="none">
<path d="M35.625 20C35.625 20.4973 35.4275 20.9742 35.0758 21.3258C34.7242 21.6775 34.2473 21.875 33.75 21.875H6.25C5.75272 21.875 5.27581 21.6775 4.92417 21.3258C4.57254 20.9742 4.375 20.4973 4.375 20C4.375 19.5027 4.57254 19.0258 4.92417 18.6742C5.27581 18.3225 5.75272 18.125 6.25 18.125H33.75C34.2473 18.125 34.7242 18.3225 35.0758 18.6742C35.4275 19.0258 35.625 19.5027 35.625 20ZM6.25 11.875H33.75C34.2473 11.875 34.7242 11.6775 35.0758 11.3258C35.4275 10.9742 35.625 10.4973 35.625 10C35.625 9.50272 35.4275 9.02581 35.0758 8.67417C34.7242 8.32254 34.2473 8.125 33.75 8.125H6.25C5.75272 8.125 5.27581 8.32254 4.92417 8.67417C4.57254 9.02581 4.375 9.50272 4.375 10C4.375 10.4973 4.57254 10.9742 4.92417 11.3258C5.27581 11.6775 5.75272 11.875 6.25 11.875ZM33.75 28.125H6.25C5.75272 28.125 5.27581 28.3225 4.92417 28.6742C4.57254 29.0258 4.375 29.5027 4.375 30C4.375 30.4973 4.57254 30.9742 4.92417 31.3258C5.27581 31.6775 5.75272 31.875 6.25 31.875H33.75C34.2473 31.875 34.7242 31.6775 35.0758 31.3258C35.4275 30.9742 35.625 30.4973 35.625 30C35.625 29.5027 35.4275 29.0258 35.0758 28.6742C34.7242 28.3225 34.2473 28.125 33.75 28.125Z" fill="#C4A478"/>
</g></symbol><symbol id="icon-cross" viewBox="0 0 40 40"><g fill="none">
<path d="M31.9126 30.5876C32.0047 30.6734 32.0785 30.7769 32.1298 30.8919C32.181 31.0069 32.2086 31.131 32.2108 31.2569C32.213 31.3828 32.1899 31.5078 32.1427 31.6245C32.0956 31.7413 32.0254 31.8473 31.9364 31.9364C31.8473 32.0254 31.7413 32.0956 31.6245 32.1427C31.5078 32.1899 31.3828 32.213 31.2569 32.2108C31.131 32.2086 31.0069 32.181 30.8919 32.1298C30.7769 32.0785 30.6734 32.0047 30.5876 31.9126L20.0001 21.3266L9.41255 31.9126C9.23483 32.0782 8.99978 32.1683 8.7569 32.164C8.51402 32.1597 8.28229 32.0613 8.11052 31.8896C7.93876 31.7178 7.84037 31.4861 7.83608 31.2432C7.8318 31.0003 7.92195 30.7653 8.08755 30.5876L18.6735 20.0001L8.08755 9.41255C7.92195 9.23483 7.8318 8.99978 7.83608 8.7569C7.84037 8.51402 7.93876 8.28229 8.11052 8.11052C8.28229 7.93876 8.51402 7.84037 8.7569 7.83608C8.99978 7.8318 9.23483 7.92195 9.41255 8.08755L20.0001 18.6735L30.5876 8.08755C30.7653 7.92195 31.0003 7.8318 31.2432 7.83608C31.4861 7.84037 31.7178 7.93876 31.8896 8.11052C32.0613 8.28229 32.1597 8.51402 32.164 8.7569C32.1683 8.99978 32.0782 9.23483 31.9126 9.41255L21.3266 20.0001L31.9126 30.5876Z" fill="#C4A478"/>
</g></symbol><symbol id="icon-slider-arrow" viewBox="0 0 31 16"><g fill="none">
<path d="M0.292891 8.70711C-0.0976334 8.31658 -0.0976334 7.68342 0.292891 7.29289L6.65685 0.928932C7.04738 0.538408 7.68054 0.538408 8.07107 0.928932C8.46159 1.31946 8.46159 1.95262 8.07107 2.34315L2.41421 8L8.07107 13.6569C8.46159 14.0474 8.46159 14.6805 8.07107 15.0711C7.68054 15.4616 7.04738 15.4616 6.65685 15.0711L0.292891 8.70711ZM31 9L0.999998 9V7L31 7V9Z" fill="#C4A478"/>
</g></symbol></svg>