<svg xmlns="http://www.w3.org/2000/svg" xmlns:xlink="http://www.w3.org/1999/xlink"><defs>
<clipPath id="clip0_256_206">
<rect width="21.7416" height="21.7416" fill="white" transform="translate(0.769775 0.725586)"/>
</clipPath>

<clipPath id="clip0_256_212">
<rect width="22.7528" height="22.7528" fill="white" transform="translate(0.26416 0.972656)"/>
</clipPath>

<clipPath id="clip0_256_208">
<rect width="25.2809" height="25.2809" fill="white" transform="translate(0 0.579102)"/>
</clipPath>
</defs><symbol id="icon-arrow-back" viewBox="0 0 51 16"><g fill="none">
<path d="M0.292892 7.28313C-0.0976295 7.67365 -0.0976295 8.30682 0.292892 8.69734L6.65685 15.0613C7.04738 15.4518 7.68054 15.4518 8.07107 15.0613C8.46159 14.6708 8.46159 14.0376 8.07107 13.6471L2.41422 7.99023L8.07107 2.33338C8.46159 1.94286 8.46159 1.30969 8.07107 0.919167C7.68054 0.528642 7.04738 0.528642 6.65685 0.919167L0.292892 7.28313ZM51 6.99023L1 6.99023V8.99023L51 8.99023V6.99023Z" fill="#C4A478"/>
</g></symbol><symbol id="icon-arrow" viewBox="0 0 16 51"><g fill="none">
<path d="M7.58891 50.6973C7.97944 51.0879 8.6126 51.0879 9.00313 50.6973L15.3671 44.3334C15.7576 43.9429 15.7576 43.3097 15.3671 42.9192C14.9766 42.5286 14.3434 42.5286 13.9529 42.9192L8.29602 48.576L2.63917 42.9192C2.24864 42.5286 1.61548 42.5286 1.22495 42.9192C0.834428 43.3097 0.834428 43.9429 1.22495 44.3334L7.58891 50.6973ZM7.29602 -0.00976562L7.29602 49.9902H9.29602L9.29602 -0.00976563L7.29602 -0.00976562Z" fill="#C4A478"/>
</g></symbol><symbol id="icon-burger" viewBox="0 0 40 40"><g fill="none">
<path d="M35.625 20C35.625 20.4973 35.4275 20.9742 35.0758 21.3258C34.7242 21.6775 34.2473 21.875 33.75 21.875H6.25C5.75272 21.875 5.27581 21.6775 4.92417 21.3258C4.57254 20.9742 4.375 20.4973 4.375 20C4.375 19.5027 4.57254 19.0258 4.92417 18.6742C5.27581 18.3225 5.75272 18.125 6.25 18.125H33.75C34.2473 18.125 34.7242 18.3225 35.0758 18.6742C35.4275 19.0258 35.625 19.5027 35.625 20ZM6.25 11.875H33.75C34.2473 11.875 34.7242 11.6775 35.0758 11.3258C35.4275 10.9742 35.625 10.4973 35.625 10C35.625 9.50272 35.4275 9.02581 35.0758 8.67417C34.7242 8.32254 34.2473 8.125 33.75 8.125H6.25C5.75272 8.125 5.27581 8.32254 4.92417 8.67417C4.57254 9.02581 4.375 9.50272 4.375 10C4.375 10.4973 4.57254 10.9742 4.92417 11.3258C5.27581 11.6775 5.75272 11.875 6.25 11.875ZM33.75 28.125H6.25C5.75272 28.125 5.27581 28.3225 4.92417 28.6742C4.57254 29.0258 4.375 29.5027 4.375 30C4.375 30.4973 4.57254 30.9742 4.92417 31.3258C5.27581 31.6775 5.75272 31.875 6.25 31.875H33.75C34.2473 31.875 34.7242 31.6775 35.0758 31.3258C35.4275 30.9742 35.625 30.4973 35.625 30C35.625 29.5027 35.4275 29.0258 35.0758 28.6742C34.7242 28.3225 34.2473 28.125 33.75 28.125Z" fill="#C4A478"/>
</g></symbol><symbol id="icon-close" viewBox="0 0 40 40"><g fill="none">
<path d="M31.9126 30.5876C32.0047 30.6734 32.0785 30.7769 32.1298 30.8919C32.181 31.0069 32.2086 31.131 32.2108 31.2569C32.213 31.3828 32.1899 31.5078 32.1427 31.6245C32.0956 31.7413 32.0254 31.8473 31.9364 31.9364C31.8473 32.0254 31.7413 32.0956 31.6245 32.1427C31.5078 32.1899 31.3828 32.213 31.2569 32.2108C31.131 32.2086 31.0069 32.181 30.8919 32.1298C30.7769 32.0785 30.6734 32.0047 30.5876 31.9126L20.0001 21.3266L9.41255 31.9126C9.23483 32.0782 8.99978 32.1683 8.7569 32.164C8.51402 32.1597 8.28229 32.0613 8.11052 31.8896C7.93876 31.7178 7.84037 31.4861 7.83608 31.2432C7.8318 31.0003 7.92195 30.7653 8.08755 30.5876L18.6735 20.0001L8.08755 9.41255C7.92195 9.23483 7.8318 8.99978 7.83608 8.7569C7.84037 8.51402 7.93876 8.28229 8.11052 8.11052C8.28229 7.93876 8.51402 7.84037 8.7569 7.83608C8.99978 7.8318 9.23483 7.92195 9.41255 8.08755L20.0001 18.6735L30.5876 8.08755C30.7653 7.92195 31.0003 7.8318 31.2432 7.83608C31.4861 7.84037 31.7178 7.93876 31.8896 8.11052C32.0613 8.28229 32.1597 8.51402 32.164 8.7569C32.1683 8.99978 32.0782 9.23483 31.9126 9.41255L21.3266 20.0001L31.9126 30.5876Z" fill="#EFE8D8"/>
</g></symbol><symbol id="icon-cross" viewBox="0 0 40 40"><g fill="none">
<path d="M31.9126 30.5876C32.0047 30.6734 32.0785 30.7769 32.1298 30.8919C32.181 31.0069 32.2086 31.131 32.2108 31.2569C32.213 31.3828 32.1899 31.5078 32.1427 31.6245C32.0956 31.7413 32.0254 31.8473 31.9364 31.9364C31.8473 32.0254 31.7413 32.0956 31.6245 32.1427C31.5078 32.1899 31.3828 32.213 31.2569 32.2108C31.131 32.2086 31.0069 32.181 30.8919 32.1298C30.7769 32.0785 30.6734 32.0047 30.5876 31.9126L20.0001 21.3266L9.41255 31.9126C9.23483 32.0782 8.99978 32.1683 8.7569 32.164C8.51402 32.1597 8.28229 32.0613 8.11052 31.8896C7.93876 31.7178 7.84037 31.4861 7.83608 31.2432C7.8318 31.0003 7.92195 30.7653 8.08755 30.5876L18.6735 20.0001L8.08755 9.41255C7.92195 9.23483 7.8318 8.99978 7.83608 8.7569C7.84037 8.51402 7.93876 8.28229 8.11052 8.11052C8.28229 7.93876 8.51402 7.84037 8.7569 7.83608C8.99978 7.8318 9.23483 7.92195 9.41255 8.08755L20.0001 18.6735L30.5876 8.08755C30.7653 7.92195 31.0003 7.8318 31.2432 7.83608C31.4861 7.84037 31.7178 7.93876 31.8896 8.11052C32.0613 8.28229 32.1597 8.51402 32.164 8.7569C32.1683 8.99978 32.0782 9.23483 31.9126 9.41255L21.3266 20.0001L31.9126 30.5876Z" fill="#C4A478"/>
</g></symbol><symbol id="icon-slider-arrow-long" viewBox="0 0 51 16"><g fill="none">
<path d="M0.292892 8.70711C-0.0976295 8.31658 -0.0976295 7.68342 0.292892 7.29289L6.65685 0.928932C7.04738 0.538408 7.68054 0.538408 8.07107 0.928932C8.46159 1.31946 8.46159 1.95262 8.07107 2.34315L2.41422 8L8.07107 13.6569C8.46159 14.0474 8.46159 14.6805 8.07107 15.0711C7.68054 15.4616 7.04738 15.4616 6.65685 15.0711L0.292892 8.70711ZM51 9L1 9V7L51 7V9Z" fill="#C4A478"/>
</g></symbol><symbol id="icon-slider-arrow" viewBox="0 0 31 16"><g fill="none">
<path d="M0.292891 8.70711C-0.0976334 8.31658 -0.0976334 7.68342 0.292891 7.29289L6.65685 0.928932C7.04738 0.538408 7.68054 0.538408 8.07107 0.928932C8.46159 1.31946 8.46159 1.95262 8.07107 2.34315L2.41421 8L8.07107 13.6569C8.46159 14.0474 8.46159 14.6805 8.07107 15.0711C7.68054 15.4616 7.04738 15.4616 6.65685 15.0711L0.292891 8.70711ZM31 9L0.999998 9V7L31 7V9Z" fill="#C4A478"/>
</g></symbol><symbol id="icon-telegram" viewBox="0 0 23 23"><g fill="none">
<g clip-path="url(#clip0_256_206)">
<path d="M11.5898 0.725616C8.71552 0.739029 5.96351 1.89026 3.9358 3.92748C1.90809 5.96469 0.769744 8.72206 0.769775 11.5964C0.769775 14.4795 1.91509 17.2445 3.95375 19.2832C5.99242 21.3219 8.75745 22.4672 11.6406 22.4672C14.5237 22.4672 17.2887 21.3219 19.3274 19.2832C21.366 17.2445 22.5113 14.4795 22.5113 11.5964C22.5113 8.71329 21.366 5.94826 19.3274 3.9096C17.2887 1.87093 14.5237 0.725616 11.6406 0.725616C11.6237 0.725576 11.6067 0.725576 11.5898 0.725616ZM16.0849 7.26983C16.1755 7.26802 16.3757 7.29066 16.5061 7.39666C16.5928 7.47193 16.6481 7.577 16.6611 7.69107C16.6755 7.77532 16.6937 7.96828 16.6792 8.11866C16.5161 9.83805 15.8077 14.0088 15.4471 15.9338C15.295 16.7492 14.9951 17.0218 14.7043 17.0481C14.0738 17.107 13.5946 16.6314 12.9831 16.231C12.0265 15.6032 11.4857 15.2128 10.5571 14.6004C9.48362 13.8938 10.1793 13.5042 10.7908 12.8701C10.9512 12.7034 13.7323 10.1732 13.7866 9.94404C13.793 9.91505 13.7993 9.80816 13.7359 9.75199C13.6725 9.69583 13.5783 9.71485 13.5103 9.73025C13.4143 9.75199 11.8861 10.763 8.92558 12.7605C8.49075 13.0594 8.0985 13.2044 7.7461 13.1953C7.35838 13.1881 6.61192 12.977 6.0566 12.7967C5.37537 12.5748 4.83454 12.4579 4.88165 12.082C4.90611 11.8863 5.17607 11.6861 5.69062 11.4814C8.85945 10.1008 10.972 9.19033 12.0301 8.75097C15.0486 7.4954 15.6763 7.27708 16.0849 7.26983Z" fill="#C4A478"/>
</g>

</g></symbol><symbol id="icon-vk" viewBox="0 0 24 24"><g fill="none">
<g clip-path="url(#clip0_256_212)">
<path d="M11.6406 1.42773C5.60882 1.42773 0.719238 6.31731 0.719238 12.3491C0.719238 18.3809 5.60882 23.2704 11.6406 23.2704C17.6724 23.2704 22.5619 18.3809 22.5619 12.3491C22.5619 6.31731 17.6724 1.42773 11.6406 1.42773ZM15.8408 13.7495C15.8408 13.7495 16.8066 14.7029 17.0444 15.1454C17.0512 15.1545 17.0546 15.1636 17.0569 15.1682C17.1536 15.3308 17.1763 15.4571 17.1286 15.5515C17.0489 15.7085 16.7759 15.7859 16.6826 15.7927H14.9761C14.8578 15.7927 14.6098 15.762 14.3095 15.555C14.0786 15.3934 13.851 15.1283 13.6292 14.8701C13.2981 14.4856 13.0114 14.1534 12.7225 14.1534C12.6858 14.1533 12.6493 14.1591 12.6144 14.1704C12.396 14.241 12.1161 14.5527 12.1161 15.3832C12.1161 15.6426 11.9113 15.7916 11.7669 15.7916H10.9853C10.7191 15.7916 9.33231 15.6983 8.10366 14.4025C6.5997 12.8155 5.24591 9.6324 5.23453 9.60282C5.14921 9.39691 5.32554 9.28655 5.51781 9.28655H7.24133C7.47113 9.28655 7.54622 9.42648 7.59855 9.55049C7.65998 9.69497 7.88524 10.2695 8.25497 10.9157C8.85451 11.9691 9.22196 12.3969 9.51661 12.3969C9.57186 12.3962 9.62613 12.3822 9.67474 12.3559C10.0593 12.142 9.9876 10.7712 9.97053 10.4868C9.97053 10.4333 9.96939 9.87358 9.77258 9.60509C9.63151 9.41056 9.39147 9.33661 9.24585 9.30931C9.30479 9.22798 9.38244 9.16203 9.47224 9.11705C9.73618 8.98508 10.2117 8.96574 10.6838 8.96574H10.9466C11.4586 8.97257 11.5905 9.00556 11.776 9.0522C12.1514 9.14207 12.1594 9.38439 12.1264 10.2137C12.1161 10.4492 12.1059 10.7154 12.1059 11.0294C12.1059 11.0977 12.1025 11.1705 12.1025 11.2478C12.0911 11.6699 12.0774 12.1489 12.3755 12.3457C12.4144 12.37 12.4593 12.3831 12.5052 12.3832C12.6087 12.3832 12.9204 12.3832 13.7646 10.935C14.0249 10.4689 14.2511 9.98447 14.4415 9.48564C14.4585 9.45606 14.5086 9.36505 14.5677 9.32979C14.6114 9.30753 14.6598 9.29621 14.7088 9.29679H16.7349C16.9556 9.29679 17.1069 9.32978 17.1354 9.41511C17.1854 9.55049 17.1263 9.96345 16.2014 11.216L15.7884 11.7609C14.95 12.8599 14.95 12.9156 15.8408 13.7495Z" fill="#C4A478"/>
</g>

</g></symbol><symbol id="icon-wa" viewBox="0 0 26 26"><g fill="none">
<g clip-path="url(#clip0_256_208)">
<path fill-rule="evenodd" clip-rule="evenodd" d="M12.6404 2.68652C6.82263 2.68652 2.10669 7.40246 2.10669 13.2202C2.10669 15.2111 2.65971 17.0756 3.62144 18.6641L2.68183 21.8579C2.62788 22.0412 2.62433 22.2358 2.67155 22.421C2.71878 22.6062 2.81503 22.7753 2.95019 22.9104C3.08535 23.0456 3.25442 23.1419 3.43964 23.1891C3.62486 23.2363 3.81938 23.2327 4.00276 23.1788L7.19658 22.2392C8.83844 23.2326 10.7214 23.7565 12.6404 23.7539C18.4582 23.7539 23.1741 19.038 23.1741 13.2202C23.1741 7.40246 18.4582 2.68652 12.6404 2.68652ZM10.2577 15.604C12.3886 17.7339 14.4227 18.0152 15.1411 18.0415C16.2334 18.0815 17.2973 17.2473 17.7113 16.2792C17.7636 16.1588 17.7826 16.0265 17.7663 15.8963C17.7499 15.766 17.699 15.6425 17.6186 15.5387C17.0414 14.8013 16.2608 14.2715 15.4982 13.7448C15.339 13.6347 15.1433 13.5905 14.9522 13.6216C14.7611 13.6526 14.5895 13.7564 14.4733 13.9112L13.8412 14.8751C13.808 14.9269 13.7562 14.964 13.6965 14.9789C13.6368 14.9938 13.5736 14.9853 13.52 14.9551C13.0912 14.7097 12.4666 14.2926 12.0179 13.8438C11.5691 13.3951 11.1773 12.7989 10.9571 12.3975C10.9298 12.3466 10.9219 12.2874 10.9349 12.231C10.9479 12.1747 10.9808 12.1249 11.0277 12.091L12.001 11.3684C12.1399 11.2476 12.2295 11.08 12.2529 10.8974C12.2762 10.7148 12.2315 10.53 12.1274 10.3782C11.6555 9.68723 11.1056 8.80871 10.3082 8.2262C10.2053 8.15163 10.0848 8.10513 9.95844 8.09127C9.83211 8.07742 9.70435 8.09669 9.58773 8.1472C8.61863 8.56223 7.78014 9.62613 7.82017 10.7206C7.84651 11.439 8.12776 13.473 10.2577 15.604Z" fill="#C4A478"/>
</g>

</g></symbol></svg>